<svg width="64" height="64" viewBox="0 0 64 64" fill="none" xmlns="http://www.w3.org/2000/svg">
<rect width="64" height="64" rx="20" fill="#F1F7FF"/>
<g clip-path="url(#clip0_2512_26330)">
<path d="M45.6133 17.252C45.1267 16.468 44.284 16 43.3613 16H39.3493C37.304 16 35.4707 17.1387 34.5667 18.9733L32.0853 24.004C32.0573 24.004 32.0293 24 32.0013 24C31.9827 24 31.9653 24.0027 31.9467 24.0027L29.4653 18.9733C28.56 17.1387 26.728 16 24.6827 16H20.6707C19.748 16 18.9053 16.468 18.4173 17.252C17.9307 18.036 17.884 18.9987 18.292 19.8267L22.6013 28.564C20.9787 30.6107 20.0013 33.192 20.0013 36.0013C20.0013 42.6173 25.3853 48.0013 32.0013 48.0013C38.6173 48.0013 44.0013 42.6173 44.0013 36.0013C44.0013 33.2027 43.0307 30.632 41.4187 28.588L45.74 19.828C46.1493 19 46.1014 18.0373 45.6147 17.2533L45.6133 17.252ZM24.6813 18.6667C25.704 18.6667 26.62 19.236 27.072 20.1533L29.1453 24.3573C27.46 24.7707 25.9133 25.536 24.5907 26.5787L20.6693 18.6667H24.6813ZM32 45.3333C26.8533 45.3333 22.6667 41.1467 22.6667 36C22.6667 31.12 26.4333 27.1093 31.212 26.7067C31.2133 26.7067 31.2147 26.7067 31.2173 26.7067C31.476 26.6853 31.7373 26.6667 32.0013 26.6667C37.148 26.6667 41.3347 30.8533 41.3347 36C41.3347 41.1467 37.148 45.3333 32.0013 45.3333H32ZM39.4267 26.5933C38.1067 25.548 36.5627 24.7813 34.88 24.364L36.9573 20.1533C37.4093 19.236 38.3253 18.6667 39.348 18.6667L43.348 18.6467L39.4267 26.5933ZM37.5427 35.2133C37.5427 35.6947 37.208 36.1 36.824 36.3133L34.8373 37.4173L35.7187 39.8213C35.8893 40.2867 35.7347 40.8093 35.3387 41.108C34.9333 41.4133 34.3747 41.4093 33.9747 41.0987L31.9987 39.5707L30.0227 41.0987C29.6213 41.408 29.0627 41.412 28.6587 41.108C28.2627 40.8093 28.108 40.288 28.2787 39.8213L29.16 37.4173L27.1733 36.3133C26.7893 36.1 26.4547 35.6947 26.4547 35.2133C26.4547 34.8053 26.8093 34.3547 27.3827 34.3547H30.236L30.992 31.4547C31.112 30.9947 31.524 30.6747 31.9987 30.6667C32.472 30.676 32.8853 30.9947 33.0053 31.4547L33.7613 34.3547H36.6147C37.188 34.3547 37.5427 34.804 37.5427 35.2133Z" fill="#5495FF"/>
</g>
<defs>
<clipPath id="clip0_2512_26330">
<rect width="32" height="32" fill="white" transform="translate(16 16)"/>
</clipPath>
</defs>
</svg>
