<svg width="64" height="64" viewBox="0 0 64 64" fill="none" xmlns="http://www.w3.org/2000/svg">
<rect width="64" height="64" rx="20" fill="#F1F7FF"/>
<g clip-path="url(#clip0_2512_26344)">
<path d="M36.06 16C36.024 15.9987 27.976 15.9987 27.94 16C24.292 16.032 21.3333 19.0107 21.3333 22.6654V41.332C21.3333 45.008 24.324 47.9987 28 47.9987H36C39.676 47.9987 42.6666 45.008 42.6666 41.332V22.6667C42.6666 19.0107 39.708 16.0334 36.06 16ZM40 41.332C40 43.5374 38.2053 45.332 36 45.332H28C25.7946 45.332 24 43.5374 24 41.332V22.6667C24 20.7294 25.384 19.1107 27.2146 18.744L28.14 20.596C28.3653 21.048 28.828 21.3334 29.3333 21.3334H34.6666C35.172 21.3334 35.6333 21.048 35.86 20.596L36.7853 18.744C38.616 19.1094 40 20.7294 40 22.6667V41.332ZM33.3333 42.6654H30.6666C29.9306 42.6654 29.3333 42.068 29.3333 41.332C29.3333 40.596 29.9306 39.9987 30.6666 39.9987H33.3333C34.0693 39.9987 34.6666 40.596 34.6666 41.332C34.6666 42.068 34.0693 42.6654 33.3333 42.6654Z" fill="#5495FF"/>
</g>
<defs>
<clipPath id="clip0_2512_26344">
<rect width="32" height="32" fill="white" transform="translate(16 16)"/>
</clipPath>
</defs>
</svg>
