<svg width="64" height="64" viewBox="0 0 64 64" fill="none" xmlns="http://www.w3.org/2000/svg">
<rect width="64" height="64" rx="20" fill="#F1F7FF"/>
<g clip-path="url(#clip0_2514_27056)">
<path d="M36.6147 29.3335H35.948V28.6668C35.948 26.8281 34.452 25.3335 32.6147 25.3335H31.2813C29.444 25.3335 27.948 26.8281 27.948 28.6668V29.3335H27.2813C25.444 29.3335 23.948 30.8281 23.948 32.6668V34.0001C23.948 35.8388 25.444 37.3335 27.2813 37.3335H27.948V38.0001C27.948 39.8388 29.444 41.3335 31.2813 41.3335H32.6147C34.452 41.3335 35.948 39.8388 35.948 38.0001V37.3335H36.6147C38.452 37.3335 39.948 35.8388 39.948 34.0001V32.6668C39.948 30.8281 38.452 29.3335 36.6147 29.3335ZM37.2813 34.0001C37.2813 34.3668 36.9827 34.6668 36.6147 34.6668H34.6147C33.8787 34.6668 33.2813 35.2628 33.2813 36.0001V38.0001C33.2813 38.3668 32.9827 38.6668 32.6147 38.6668H31.2813C30.9133 38.6668 30.6147 38.3668 30.6147 38.0001V36.0001C30.6147 35.2628 30.0173 34.6668 29.2813 34.6668H27.2813C26.9133 34.6668 26.6147 34.3668 26.6147 34.0001V32.6668C26.6147 32.3001 26.9133 32.0001 27.2813 32.0001H29.2813C30.0173 32.0001 30.6147 31.4041 30.6147 30.6668V28.6668C30.6147 28.3001 30.9133 28.0001 31.2813 28.0001H32.6147C32.9827 28.0001 33.2813 28.3001 33.2813 28.6668V30.6668C33.2813 31.4041 33.8787 32.0001 34.6147 32.0001H36.6147C36.9827 32.0001 37.2813 32.3001 37.2813 32.6668V34.0001ZM45.0107 23.4388L35.6773 17.1401C33.412 15.6121 30.484 15.6121 28.2187 17.1401L18.8867 23.4388C17.0467 24.6801 15.948 26.7455 15.948 28.9655V41.3335C15.948 45.0095 18.9387 48.0001 22.6147 48.0001H41.2813C44.9573 48.0001 47.948 45.0095 47.948 41.3335V28.9655C47.948 26.7455 46.8493 24.6801 45.0107 23.4388ZM45.2813 41.3335C45.2813 43.5388 43.4867 45.3335 41.2813 45.3335H22.6147C20.4093 45.3335 18.6147 43.5388 18.6147 41.3335V28.9655C18.6147 27.6335 19.2733 26.3948 20.3773 25.6508L29.712 19.3521C30.392 18.8921 31.1707 18.6628 31.9493 18.6628C32.728 18.6628 33.5067 18.8921 34.1867 19.3521L43.52 25.6508C44.624 26.3961 45.2827 27.6335 45.2827 28.9655L45.2813 41.3335Z" fill="#5495FF"/>
</g>
<defs>
<clipPath id="clip0_2514_27056">
<rect width="32" height="32" fill="white" transform="translate(16 16)"/>
</clipPath>
</defs>
</svg>
