<svg width="64" height="64" viewBox="0 0 64 64" fill="none" xmlns="http://www.w3.org/2000/svg">
<rect width="64" height="64" rx="20" fill="#F1F7FF"/>
<g clip-path="url(#clip0_2514_27049)">
<path d="M24 28C19.4387 28 16 30.0067 16 32.6667V43.3333C16 45.9933 19.4387 48 24 48C28.5613 48 32 45.9933 32 43.3333V32.6667C32 30.0067 28.5613 28 24 28ZM29.3333 38C29.3333 38.7053 27.308 40 24 40C20.692 40 18.6667 38.7053 18.6667 38V36.2027C20.0613 36.9133 21.9133 37.3333 24 37.3333C26.0867 37.3333 27.9387 36.9133 29.3333 36.2027V38ZM24 30.6667C27.308 30.6667 29.3333 31.9613 29.3333 32.6667C29.3333 33.372 27.308 34.6667 24 34.6667C20.692 34.6667 18.6667 33.372 18.6667 32.6667C18.6667 31.9613 20.692 30.6667 24 30.6667ZM24 45.3333C20.692 45.3333 18.6667 44.0387 18.6667 43.3333V41.536C20.0613 42.2467 21.9133 42.6667 24 42.6667C26.0867 42.6667 27.9387 42.2467 29.3333 41.536V43.3333C29.3333 44.0387 27.308 45.3333 24 45.3333ZM48 22.6667V41.3333C48 45.0093 45.0093 48 41.3333 48H34.6667C33.9293 48 33.3333 47.4027 33.3333 46.6667C33.3333 45.9307 33.9293 45.3333 34.6667 45.3333H41.3333C43.5387 45.3333 45.3333 43.5387 45.3333 41.3333V22.6667C45.3333 20.4613 43.5387 18.6667 41.3333 18.6667H28C25.7947 18.6667 24 20.4613 24 22.6667V24C24 24.736 23.404 25.3333 22.6667 25.3333C21.9293 25.3333 21.3333 24.736 21.3333 24V22.6667C21.3333 18.9907 24.324 16 28 16H41.3333C45.0093 16 48 18.9907 48 22.6667ZM33.3333 29.3333C32.596 29.3333 32 28.736 32 28C32 27.264 32.596 26.6667 33.3333 26.6667H40V24H29.3333V24.6667C29.3333 25.4027 28.7373 26 28 26C27.2627 26 26.6667 25.4027 26.6667 24.6667V24C26.6667 22.5293 27.8627 21.3333 29.3333 21.3333H40C41.4707 21.3333 42.6667 22.5293 42.6667 24V26.6667C42.6667 28.1373 41.4707 29.3333 40 29.3333H33.3333ZM34.6667 40C34.6667 39.264 35.2627 38.6667 36 38.6667H41.3333C42.0707 38.6667 42.6667 39.264 42.6667 40C42.6667 40.736 42.0707 41.3333 41.3333 41.3333H36C35.2627 41.3333 34.6667 40.736 34.6667 40ZM34.6667 34.6667V33.3333C34.6667 32.5973 35.2627 32 36 32C36.7373 32 37.3333 32.5973 37.3333 33.3333V34.6667C37.3333 35.4027 36.7373 36 36 36C35.2627 36 34.6667 35.4027 34.6667 34.6667ZM42.6667 34.6667C42.6667 35.4027 42.0707 36 41.3333 36C40.596 36 40 35.4027 40 34.6667V33.3333C40 32.5973 40.596 32 41.3333 32C42.0707 32 42.6667 32.5973 42.6667 33.3333V34.6667Z" fill="#5495FF"/>
</g>
<defs>
<clipPath id="clip0_2514_27049">
<rect width="32" height="32" fill="white" transform="translate(16 16)"/>
</clipPath>
</defs>
</svg>
