<svg width="64" height="64" viewBox="0 0 64 64" fill="none" xmlns="http://www.w3.org/2000/svg">
<rect width="64" height="64" rx="20" fill="#F1F7FF"/>
<g clip-path="url(#clip0_2512_26337)">
<path d="M32 16C27.7579 16.0046 23.6909 17.6918 20.6914 20.6914C17.6918 23.6909 16.0046 27.7579 16 32C16.8 53.2 47.2 53.1907 48 32C47.9954 27.7579 46.3082 23.6909 43.3086 20.6914C40.3091 17.6918 36.2421 16.0046 32 16ZM32 18.6667C34.6759 18.6696 37.2892 19.4769 39.5004 20.9839C41.7116 22.4908 43.4187 24.6278 44.4 27.1173L34.6987 29.0573C32.8546 29.4253 30.956 29.4253 29.112 29.0573L19.592 27.1533C20.5682 24.6559 22.2741 22.5105 24.4874 20.9967C26.7006 19.4829 29.3186 18.671 32 18.6667ZM18.6667 32.1427L24.2067 33.2507C24.9743 33.4042 25.6987 33.7249 26.3285 34.1899C26.9583 34.6549 27.478 35.2529 27.8507 35.9413L28.684 37.4787C29.1047 38.2569 29.3255 39.1274 29.3267 40.012V45.0667C26.3429 44.4511 23.6594 42.8336 21.7216 40.4828C19.7838 38.1319 18.7082 35.1891 18.6733 32.1427H18.6667ZM34.6667 45.0667V40.0173C34.6678 39.1327 34.8886 38.2622 35.3093 37.484L36.1427 35.9467C36.5154 35.2582 37.035 34.6603 37.6648 34.1952C38.2946 33.7302 39.019 33.4096 39.7867 33.256L45.3333 32.1427C45.2979 35.1909 44.2204 38.1353 42.2799 40.4864C40.3394 42.8375 37.6529 44.4538 34.6667 45.0667Z" fill="#5495FF"/>
</g>
<defs>
<clipPath id="clip0_2512_26337">
<rect width="32" height="32" fill="white" transform="translate(16 16)"/>
</clipPath>
</defs>
</svg>
