<svg width="64" height="64" viewBox="0 0 64 64" fill="none" xmlns="http://www.w3.org/2000/svg">
<rect width="64" height="64" rx="20" fill="#F1F7FF"/>
<g clip-path="url(#clip0_2514_27042)">
<path d="M47.6091 37.7654C47.359 37.5154 47.02 37.375 46.6664 37.375C46.3129 37.375 45.9738 37.5154 45.7237 37.7654L38.2211 45.2694L34.6371 41.732C34.3895 41.4783 34.0513 41.3333 33.6969 41.329C33.3425 41.3246 33.0008 41.4612 32.7471 41.7087C32.4933 41.9562 32.3483 42.2944 32.344 42.6489C32.3396 43.0033 32.4762 43.345 32.7237 43.5987L36.3824 47.1987C36.6119 47.4461 36.8891 47.6446 37.1973 47.7821C37.5055 47.9195 37.8383 47.9932 38.1757 47.9987H38.2197C38.5505 47.9998 38.8781 47.9352 39.1837 47.8086C39.4893 47.682 39.7667 47.496 39.9997 47.2614L47.6091 39.6507C47.859 39.4007 47.9995 39.0616 47.9995 38.708C47.9995 38.3545 47.859 38.0154 47.6091 37.7654Z" fill="#5495FF"/>
<path d="M30.7866 45.2779C28.212 45.0426 25.7613 44.0639 23.7329 42.4609C21.7045 40.8579 20.1859 38.6998 19.3619 36.2493C18.538 33.7988 18.4442 31.1616 19.092 28.6587C19.7399 26.1559 21.1014 23.8953 23.0108 22.1523C24.9203 20.4094 27.2953 19.2591 29.8467 18.8415C32.3981 18.424 35.0158 18.7573 37.3812 19.8007C39.7467 20.8441 41.7577 22.5527 43.1696 24.7185C44.5814 26.8843 45.3332 29.4139 45.3333 31.9992C45.3333 32.4085 45.3133 32.8139 45.2786 33.2139C45.2623 33.3887 45.2807 33.565 45.3327 33.7327C45.3847 33.9004 45.4693 34.0562 45.5817 34.1911C45.694 34.326 45.8319 34.4374 45.9875 34.5189C46.143 34.6003 46.3131 34.6503 46.488 34.6659C46.6627 34.6835 46.8392 34.6659 47.0072 34.6144C47.1751 34.5628 47.331 34.4782 47.4657 34.3656C47.6005 34.2529 47.7114 34.1145 47.7919 33.9584C47.8724 33.8023 47.921 33.6316 47.9346 33.4565C47.9773 32.9725 48 32.4885 48 31.9992C47.9998 28.8967 47.0976 25.8611 45.4033 23.2621C43.709 20.6631 41.2955 18.6128 38.4569 17.3607C35.6182 16.1087 32.4768 15.709 29.415 16.2102C26.3532 16.7114 23.5033 18.092 21.212 20.1839C18.9208 22.2758 17.2872 24.9887 16.51 27.9923C15.7329 30.9959 15.8458 34.1607 16.835 37.1013C17.8241 40.0419 19.6469 42.6315 22.0814 44.5547C24.5158 46.478 27.4569 47.6521 30.5466 47.9339H30.668C31.0216 47.9496 31.367 47.8242 31.6282 47.5853C31.8893 47.3464 32.0449 47.0135 32.0606 46.6599C32.0764 46.3062 31.951 45.9609 31.7121 45.6997C31.4731 45.4385 31.1403 45.2829 30.7866 45.2672V45.2779Z" fill="#5495FF"/>
<path d="M30.6669 25.3333V31.448L27.0576 35.0573C26.9302 35.1803 26.8287 35.3274 26.7588 35.4901C26.6889 35.6528 26.6521 35.8277 26.6506 36.0048C26.6491 36.1818 26.6828 36.3574 26.7498 36.5213C26.8169 36.6851 26.9159 36.834 27.0411 36.9592C27.1663 37.0844 27.3151 37.1834 27.479 37.2504C27.6428 37.3175 27.8184 37.3512 27.9955 37.3497C28.1725 37.3481 28.3475 37.3113 28.5101 37.2415C28.6728 37.1716 28.8199 37.07 28.9429 36.9426L32.9429 32.9427C33.193 32.6927 33.3335 32.3536 33.3336 32V25.3333C33.3336 24.9797 33.1931 24.6406 32.9431 24.3905C32.693 24.1405 32.3539 24 32.0002 24C31.6466 24 31.3075 24.1405 31.0574 24.3905C30.8074 24.6406 30.6669 24.9797 30.6669 25.3333Z" fill="#5495FF"/>
</g>
<defs>
<clipPath id="clip0_2514_27042">
<rect width="32" height="32" fill="white" transform="translate(16 16)"/>
</clipPath>
</defs>
</svg>
