<svg width="20" height="24" viewBox="0 0 20 24" fill="none" xmlns="http://www.w3.org/2000/svg">
<path d="M16.7045 12.763C16.7166 11.8431 16.9669 10.9411 17.4321 10.141C17.8972 9.34093 18.5621 8.6687 19.3648 8.18688C18.8548 7.47583 18.1821 6.89066 17.4 6.47785C16.6178 6.06504 15.7479 5.83597 14.8592 5.80883C12.9636 5.61457 11.1258 6.91628 10.1598 6.91628C9.17508 6.91628 7.68777 5.82811 6.08619 5.86029C5.05024 5.89296 4.04062 6.18707 3.15571 6.71395C2.2708 7.24084 1.54077 7.98253 1.03676 8.86676C-1.14651 12.5572 0.482015 17.9808 2.5734 20.9639C3.61977 22.4246 4.84267 24.0562 6.44281 23.9984C8.00865 23.9349 8.59346 23.0235 10.4836 23.0235C12.3561 23.0235 12.9048 23.9984 14.5374 23.9616C16.2176 23.9349 17.2762 22.4944 18.2859 21.0198C19.0377 19.979 19.6162 18.8287 20 17.6115C19.0238 17.2084 18.1908 16.5337 17.6048 15.6715C17.0188 14.8093 16.7056 13.7978 16.7045 12.763Z" fill="white"/>
<path d="M13.6208 3.84712C14.5369 2.77342 14.9883 1.39335 14.879 0C13.4793 0.14352 12.1865 0.796599 11.258 1.82911C10.804 2.33352 10.4563 2.92033 10.2348 3.55601C10.0132 4.19169 9.92218 4.86376 9.96684 5.53381C10.6669 5.54084 11.3595 5.3927 11.9924 5.10054C12.6253 4.80838 13.1821 4.37982 13.6208 3.84712Z" fill="white"/>
</svg>
