<svg width="20" height="16" viewBox="0 0 20 16" fill="none" xmlns="http://www.w3.org/2000/svg">
<path d="M2 6.98C1.43667 6.98 0.980001 7.43667 0.98 8C0.979999 8.56333 1.43667 9.02 2 9.02L2 6.98ZM19.0412 8.72129C19.4396 8.32295 19.4396 7.67712 19.0413 7.27879L12.55 0.787534C12.1517 0.389198 11.5059 0.389197 11.1075 0.787531C10.7092 1.18587 10.7092 1.83169 11.1075 2.23003L16.8775 8.00003L11.1075 13.77C10.7092 14.1683 10.7092 14.8142 11.1075 15.2125C11.5058 15.6108 12.1517 15.6108 12.55 15.2125L19.0412 8.72129ZM2 9.02L18.32 9.02004L18.32 6.98004L2 6.98L2 9.02Z" fill="#2D2D2D"/>
</svg>
