<svg width="20" height="16" viewBox="0 0 20 16" fill="none" xmlns="http://www.w3.org/2000/svg">
<path d="M1.27875 7.27875C0.880417 7.67708 0.880416 8.32291 1.27875 8.72125L7.76998 15.2125C8.16831 15.6108 8.81414 15.6108 9.21247 15.2125C9.61081 14.8142 9.61081 14.1683 9.21248 13.77L3.4425 8L9.2125 2.23002C9.61084 1.83169 9.61084 1.18586 9.2125 0.787527C8.81417 0.389191 8.16834 0.38919 7.77001 0.787524L1.27875 7.27875ZM18.32 9.02004C18.8833 9.02004 19.34 8.56337 19.34 8.00004C19.34 7.43671 18.8833 6.98004 18.32 6.98004L18.32 9.02004ZM2 9.02L18.32 9.02004L18.32 6.98004L2 6.98L2 9.02Z" fill="#2D2D2D"/>
</svg>
