<svg width="24" height="24" viewBox="0 0 24 24" fill="none" xmlns="http://www.w3.org/2000/svg">
<g clip-path="url(#clip0_2617_3429)">
<path d="M22 10V4.22901C22.002 3.64077 21.8302 3.06505 21.5062 2.57405C21.1823 2.08305 20.7206 1.69863 20.179 1.46901C16.506 -0.430993 7.484 -0.423993 3.821 1.46901C3.27935 1.69852 2.81756 2.08291 2.49359 2.57394C2.16962 3.06496 1.99791 3.64074 2 4.22901V10H0V13C0 13.5304 0.210714 14.0391 0.585786 14.4142C0.960859 14.7893 1.46957 15 2 15V22H4V24H9V22H15V24H20V22H22V15C22.5304 15 23.0391 14.7893 23.4142 14.4142C23.7893 14.0391 24 13.5304 24 13V10H22ZM4 13V7.00001H20V13H4ZM4.6 3.31201C6.9548 2.38667 9.47061 1.94062 12 2.00001C14.5293 1.94044 17.0451 2.38614 19.4 3.31101C19.5793 3.38787 19.732 3.51601 19.8387 3.67934C19.9455 3.84266 20.0016 4.03389 20 4.22901V5.00001H15V4.00001H9V5.00001H4V4.22901C3.99848 4.03404 4.05463 3.84296 4.16138 3.67981C4.26814 3.51665 4.42073 3.38869 4.6 3.31201ZM4 20V15H6V16C6 16.2652 6.10536 16.5196 6.29289 16.7071C6.48043 16.8947 6.73478 17 7 17C7.26522 17 7.51957 16.8947 7.70711 16.7071C7.89464 16.5196 8 16.2652 8 16V15H16V16C16 16.2652 16.1054 16.5196 16.2929 16.7071C16.4804 16.8947 16.7348 17 17 17C17.2652 17 17.5196 16.8947 17.7071 16.7071C17.8946 16.5196 18 16.2652 18 16V15H20V20H4Z" fill="#727272"/>
</g>
<defs>
<clipPath id="clip0_2617_3429">
<rect width="24" height="24" fill="white"/>
</clipPath>
</defs>
</svg>
