<svg width="20" height="20" viewBox="0 0 20 20" fill="none" xmlns="http://www.w3.org/2000/svg">
<path fill-rule="evenodd" clip-rule="evenodd" d="M16.6667 7.49998C16.6667 9.56605 15.7268 11.4126 14.2513 12.6354L14.9928 18.2237C15.0349 18.5409 14.8916 18.8542 14.6242 19.0298C14.3567 19.2055 14.0123 19.2125 13.7379 19.0479L10 16.8051L6.26209 19.0479C5.9877 19.2125 5.64326 19.2055 5.37581 19.0298C5.10836 18.8541 4.96513 18.5408 5.00726 18.2236L5.74941 12.636C4.2735 11.4132 3.33334 9.56639 3.33334 7.49998C3.33334 3.81808 6.31811 0.833313 10 0.833313C13.6819 0.833313 16.6667 3.81808 16.6667 7.49998ZM5.00001 7.49998C5.00001 4.73856 7.23859 2.49998 10 2.49998C12.7614 2.49998 15 4.73856 15 7.49998C15 9.18406 14.1674 10.6737 12.8914 11.5797C12.8893 11.5811 12.8873 11.5825 12.8852 11.5839C12.8807 11.5871 12.8763 11.5903 12.8719 11.5935C12.0592 12.1647 11.0688 12.5 10 12.5C8.93156 12.5 7.94138 12.1648 7.12886 11.594C7.12242 11.5893 7.1159 11.5847 7.10931 11.5802C5.83291 10.6742 5.00001 9.18437 5.00001 7.49998ZM10 14.1666C10.9602 14.1666 11.873 13.9636 12.6978 13.5982L13.1132 16.7294L10.9368 15.4236L10.7718 15.3245L10.7475 15.3098C10.6598 15.256 10.4778 15.1444 10.2681 15.0983C10.0915 15.0595 9.90854 15.0595 9.7319 15.0983C9.52226 15.1444 9.34026 15.256 9.25248 15.3098L9.22827 15.3245L6.88705 16.7293L7.30288 13.5985C8.12751 13.9638 9.04006 14.1666 10 14.1666Z" fill="#FF941F"/>
</svg>
