<svg width="32" height="32" viewBox="0 0 32 32" fill="none" xmlns="http://www.w3.org/2000/svg">
<rect width="32" height="32" rx="12" fill="#FF941F"/>
<path fill-rule="evenodd" clip-rule="evenodd" d="M16 11.5C14.3431 11.5 13 12.8431 13 14.5C13 16.1569 14.3431 17.5 16 17.5C17.6569 17.5 19 16.1569 19 14.5C19 12.8431 17.6569 11.5 16 11.5ZM14.5 14.5C14.5 13.6716 15.1716 13 16 13C16.8284 13 17.5 13.6716 17.5 14.5C17.5 15.3284 16.8284 16 16 16C15.1716 16 14.5 15.3284 14.5 14.5Z" fill="white"/>
<path fill-rule="evenodd" clip-rule="evenodd" d="M16 7.75C12.2721 7.75 9.25 10.7721 9.25 14.5C9.25 17.2589 10.7955 18.7646 12.2368 19.9735C12.389 20.1012 12.5383 20.2248 12.6841 20.3455C13.9744 21.4134 14.9852 22.2501 15.2646 23.6471C15.3347 23.9977 15.6425 24.25 16 24.25C16.3575 24.25 16.6653 23.9977 16.7354 23.6471C17.0148 22.2501 18.0254 21.4137 19.3156 20.3457C19.4614 20.225 19.611 20.1012 19.7632 19.9735C21.2045 18.7646 22.75 17.2589 22.75 14.5C22.75 10.7721 19.7279 7.75 16 7.75ZM10.75 14.5C10.75 11.6005 13.1005 9.25 16 9.25C18.8995 9.25 21.25 11.6005 21.25 14.5C21.25 16.5549 20.1705 17.6741 18.7993 18.8243C18.6557 18.9447 18.5066 19.0666 18.3541 19.1913C17.5422 19.8552 16.6379 20.5946 16 21.5739C15.3621 20.5946 14.4578 19.8552 13.6459 19.1913C13.4935 19.0667 13.3443 18.9447 13.2007 18.8243C11.8295 17.6741 10.75 16.5549 10.75 14.5Z" fill="white"/>
</svg>
