<svg width="32" height="32" viewBox="0 0 32 32" fill="none" xmlns="http://www.w3.org/2000/svg">
<rect width="32" height="32" rx="12" fill="#FF941F"/>
<path fill-rule="evenodd" clip-rule="evenodd" d="M21.4389 9.28315C21.033 9.24998 20.5347 9.24999 19.931 9.25H12.069C11.4653 9.24999 10.967 9.24998 10.5611 9.28315C10.1396 9.31759 9.75203 9.39151 9.38803 9.57698C8.82355 9.8646 8.3646 10.3235 8.07698 10.888C7.89801 11.2393 7.82291 11.6124 7.78692 12.017C7.74682 12.1395 7.73979 12.2688 7.76361 12.3922C7.74999 12.7298 7.75 13.1203 7.75 13.569V18.431C7.74999 19.0347 7.74999 19.533 7.78315 19.9389C7.81759 20.3604 7.89152 20.748 8.07698 21.112C8.3646 21.6765 8.82355 22.1354 9.38803 22.423C9.75203 22.6085 10.1396 22.6824 10.5611 22.7169C10.967 22.75 11.4653 22.75 12.069 22.75H19.931C20.5347 22.75 21.033 22.75 21.4389 22.7169C21.8604 22.6824 22.248 22.6085 22.612 22.423C23.1765 22.1354 23.6354 21.6765 23.923 21.112C24.1085 20.748 24.1824 20.3604 24.2169 19.9389C24.25 19.533 24.25 19.0347 24.25 18.431V13.569C24.25 13.1203 24.25 12.7298 24.2364 12.3922C24.2602 12.2688 24.2532 12.1395 24.2131 12.017C24.1771 11.6125 24.102 11.2393 23.923 10.888C23.6354 10.3235 23.1765 9.8646 22.612 9.57698C22.248 9.39151 21.8604 9.31759 21.4389 9.28315ZM9.27817 19.8167C9.25059 19.4792 9.25 19.0424 9.25 18.4V13.6905L14.2801 17.2117C14.6886 17.4985 15.0473 17.7504 15.4558 17.8522C15.8131 17.9413 16.1869 17.9413 16.5442 17.8522C16.9527 17.7504 17.3114 17.4985 17.7199 17.2117L22.75 13.6905V18.4C22.75 19.0424 22.7494 19.4792 22.7218 19.8167C22.695 20.1455 22.6463 20.3137 22.5865 20.431C22.4427 20.7132 22.2132 20.9427 21.931 21.0865C21.8137 21.1463 21.6455 21.195 21.3167 21.2218C20.9792 21.2494 20.5424 21.25 19.9 21.25H12.1C11.4576 21.25 11.0208 21.2494 10.6833 21.2218C10.3545 21.195 10.1863 21.1463 10.069 21.0865C9.78677 20.9427 9.5573 20.7132 9.41349 20.431C9.35373 20.3137 9.30503 20.1455 9.27817 19.8167ZM16.9462 15.9222L22.6879 11.903C22.6611 11.7476 22.6263 11.647 22.5865 11.569C22.4427 11.2868 22.2132 11.0573 21.931 10.9135C21.8137 10.8537 21.6455 10.805 21.3167 10.7782C20.9792 10.7506 20.5424 10.75 19.9 10.75H12.1C11.4576 10.75 11.0208 10.7506 10.6833 10.7782C10.3545 10.805 10.1863 10.8537 10.069 10.9135C9.78677 11.0573 9.5573 11.2868 9.41349 11.569C9.37373 11.647 9.33887 11.7476 9.31208 11.903L15.0538 15.9222C15.6005 16.3049 15.7163 16.3713 15.8186 16.3967C15.9377 16.4264 16.0623 16.4264 16.1814 16.3967C16.2837 16.3713 16.3995 16.3049 16.9462 15.9222Z" fill="white"/>
</svg>
