<svg width="32" height="32" viewBox="0 0 32 32" fill="none" xmlns="http://www.w3.org/2000/svg">
<rect width="32" height="32" rx="12" fill="#FF941F"/>
<path fill-rule="evenodd" clip-rule="evenodd" d="M12.8558 8.40811C12.2173 8.08515 11.4632 8.08516 10.8247 8.40811C10.5003 8.57221 10.2186 8.8546 9.89278 9.18126L9.65196 9.42217C9.30266 9.77111 9.03479 10.0387 8.83169 10.4003C8.6 10.8127 8.44587 11.4054 8.44728 11.8785C8.44851 12.2924 8.5343 12.5942 8.64493 12.9835L8.65693 13.0257C9.33668 15.4207 10.6194 17.6804 12.5032 19.5641C14.3869 21.4478 16.6466 22.7306 19.0415 23.4103L19.0838 23.4223C19.473 23.533 19.7749 23.6187 20.1888 23.62C20.6619 23.6214 21.2545 23.4673 21.667 23.2356C22.0285 23.0325 22.2961 22.7646 22.6451 22.4153L22.886 22.1745C23.2127 21.8486 23.495 21.567 23.6591 21.2425C23.9821 20.604 23.9821 19.85 23.6591 19.2115C23.495 18.887 23.2127 18.6054 22.886 18.2795L22.6679 18.0616L22.6206 18.0142C22.406 17.7992 22.2211 17.614 22.0213 17.4841C21.2755 16.9992 20.3141 16.9992 19.5684 17.4841C19.3685 17.614 19.1837 17.7992 18.969 18.0142L18.9217 18.0616C18.8785 18.1048 18.8564 18.1268 18.8401 18.1422L18.8361 18.143L18.8316 18.1436L18.8091 18.1332C18.7937 18.126 18.7761 18.1175 18.752 18.1059C17.74 17.6201 16.7908 16.9575 15.9503 16.1169C15.1098 15.2764 14.4472 14.3272 13.9613 13.3153C13.9497 13.2912 13.9413 13.2735 13.9341 13.2582L13.9236 13.2357L13.9243 13.2312L13.9251 13.2271C13.9404 13.2109 13.9625 13.1887 14.0057 13.1455L14.053 13.0982C14.268 12.8836 14.4532 12.6987 14.5831 12.4989C15.068 11.7531 15.068 10.7917 14.5831 10.046C14.4532 9.84614 14.268 9.66125 14.053 9.44662L13.7877 9.18126C13.4619 8.8546 13.1802 8.57221 12.8558 8.40811ZM11.5017 9.74663C11.7146 9.63898 11.9659 9.63898 12.1788 9.74663C12.2588 9.78712 12.3586 9.87356 12.7989 10.3138L12.945 10.46C13.2343 10.7493 13.2935 10.8143 13.3256 10.8636C13.4872 11.1122 13.4872 11.4327 13.3256 11.6812C13.2935 11.7305 13.2343 11.7956 12.945 12.0849L12.9274 12.1024C12.8599 12.1697 12.7743 12.2549 12.7011 12.3573C12.4395 12.7225 12.3549 13.2191 12.4806 13.6503C12.5156 13.7706 12.5634 13.8696 12.6005 13.9466L12.6091 13.9645C13.1672 15.127 13.9278 16.2157 14.8897 17.1776C15.8515 18.1395 16.9403 18.9 18.1027 19.4582L18.1206 19.4668C18.1976 19.5039 18.2966 19.5516 18.4169 19.5867C18.8482 19.7124 19.3447 19.6277 19.71 19.3662C19.8123 19.2929 19.8975 19.2074 19.9648 19.1399L19.9824 19.1222C20.2717 18.833 20.3367 18.7737 20.386 18.7417C20.6346 18.5801 20.9551 18.5801 21.2036 18.7417C21.2529 18.7737 21.318 18.833 21.6073 19.1222L21.7534 19.2684C22.1937 19.7087 22.2801 19.8084 22.3206 19.8885C22.4283 20.1013 22.4283 20.3527 22.3206 20.5655C22.2801 20.6456 22.1937 20.7453 21.7534 21.1856L21.6352 21.3038C21.215 21.724 21.0935 21.8372 20.9324 21.9278C20.7456 22.0327 20.4075 22.1206 20.1932 22.12C20.0026 22.1194 19.8878 22.0913 19.4511 21.9673C17.2959 21.3556 15.2621 20.2017 13.5638 18.5034C11.8656 16.8052 10.7116 14.7713 10.0999 12.6162C9.97598 12.1795 9.94784 12.0647 9.94727 11.874C9.94663 11.6598 10.0345 11.3217 10.1395 11.1349C10.23 10.9737 10.3433 10.8522 10.7634 10.4321L10.8817 10.3138C11.3219 9.87356 11.4217 9.78712 11.5017 9.74663Z" fill="white"/>
</svg>
