<svg width="32" height="32" viewBox="0 0 32 32" fill="none" xmlns="http://www.w3.org/2000/svg">
<g clip-path="url(#clip0_2546_15480)">
<path d="M28 27.9998V31.9998H25.3333V27.9998C25.3333 26.3612 24.3613 24.9318 22.9027 24.3172L16 31.2185L9.09733 24.3172C7.63733 24.9318 6.66667 26.3612 6.66667 27.9998V31.9998H4V27.9998C4 24.8718 6.12667 22.1998 9.17067 21.5025L9.88933 21.3372L16 27.4478L22.1107 21.3372L22.8293 21.5025C25.8733 22.1998 28 24.8718 28 27.9998ZM8 7.99984L5.33333 6.66651V2.66651L13.736 0.278512C15.2227 -0.0934883 16.7773 -0.0934883 18.264 0.278512L26.6667 2.66651V6.66651L24 7.99984V11.9998C24 16.4118 20.412 19.9998 16 19.9998C11.588 19.9998 8 16.4118 8 11.9998V7.99984ZM21.3333 10.1532C20.032 10.4278 18.2547 10.6665 16 10.6665C13.7453 10.6665 11.968 10.4278 10.6667 10.1532V11.9998C10.6667 14.9412 13.0587 17.3332 16 17.3332C18.9413 17.3332 21.3333 14.9412 21.3333 11.9998V10.1532ZM13.3333 5.41984C13.3333 7.19451 15.4027 8.36784 16.0013 8.66651C16.5973 8.42651 18.6667 7.43718 18.6667 5.41984V3.48651C18.6667 3.23184 18.504 3.00651 18.2613 2.92518L16 2.17584L13.7387 2.92518C13.496 3.00518 13.3333 3.23051 13.3333 3.48651V5.41984Z" fill="#5495FF"/>
</g>
<defs>
<clipPath id="clip0_2546_15480">
<rect width="32" height="32" fill="white"/>
</clipPath>
</defs>
</svg>
