<svg width="32" height="32" viewBox="0 0 32 32" fill="none" xmlns="http://www.w3.org/2000/svg">
<path d="M25.6095 17.6096C26.1302 17.0889 26.1302 16.2447 25.6095 15.724C25.0888 15.2033 24.2446 15.2033 23.7239 15.724L18.6667 20.7812L16.9428 19.0574C16.4221 18.5367 15.5779 18.5367 15.0572 19.0574C14.5365 19.5781 14.5365 20.4223 15.0572 20.943L17.7239 23.6096C18.2446 24.1303 19.0888 24.1303 19.6095 23.6096L25.6095 17.6096Z" fill="#5495FF"/>
<path fill-rule="evenodd" clip-rule="evenodd" d="M18.9267 1.37426C18.4273 1.33345 17.821 1.33347 17.1181 1.3335H6.88194C6.1791 1.33347 5.57271 1.33345 5.07329 1.37426C4.54617 1.41733 4.02188 1.51241 3.51737 1.76947C2.76472 2.15297 2.1528 2.76489 1.76931 3.51754C1.51225 4.02204 1.41716 4.54634 1.37409 5.07346C1.33329 5.57288 1.33331 6.17921 1.33333 6.88205V17.1182C1.33331 17.8211 1.33329 18.4275 1.37409 18.9269C1.41716 19.454 1.51225 19.9783 1.76931 20.4828C2.1528 21.2354 2.76472 21.8474 3.51737 22.2309C4.02188 22.4879 4.54617 22.583 5.07329 22.6261C5.57269 22.6669 6.179 22.6669 6.88181 22.6668H9.33333L9.33333 25.1182C9.33331 25.8211 9.33329 26.4274 9.37409 26.9269C9.41716 27.454 9.51225 27.9783 9.76931 28.4828C10.1528 29.2354 10.7647 29.8474 11.5174 30.2309C12.0219 30.4879 12.5462 30.583 13.0733 30.6261C13.5727 30.6669 14.1791 30.6669 14.8819 30.6668H25.1181C25.8209 30.6669 26.4273 30.6669 26.9267 30.6261C27.4538 30.583 27.9781 30.4879 28.4826 30.2309C29.2353 29.8474 29.8472 29.2354 30.2307 28.4828C30.4877 27.9783 30.5828 27.454 30.6259 26.9269C30.6667 26.4274 30.6667 25.8211 30.6667 25.1183V14.8821C30.6667 14.1792 30.6667 13.5729 30.6259 13.0735C30.5828 12.5463 30.4877 12.022 30.2307 11.5175C29.8472 10.7649 29.2353 10.153 28.4826 9.76947C27.9781 9.51241 27.4538 9.41733 26.9267 9.37426C26.4273 9.33345 25.8209 9.33347 25.1181 9.3335L22.6667 9.3335V6.88214C22.6667 6.17933 22.6667 5.57286 22.6259 5.07346C22.5828 4.54634 22.4877 4.02204 22.2307 3.51754C21.8472 2.76489 21.2353 2.15297 20.4826 1.76947C19.9781 1.51241 19.4538 1.41733 18.9267 1.37426ZM12.0319 26.7097C12.001 26.3319 12 25.8356 12 25.0668V14.9335C12 14.1648 12.001 13.6684 12.0319 13.2906C12.0615 12.9284 12.1117 12.7941 12.1453 12.7282C12.2732 12.4773 12.4771 12.2733 12.728 12.1455C12.7939 12.1119 12.9282 12.0617 13.2904 12.0321C13.6682 12.0012 14.1646 12.0002 14.9333 12.0002H25.0667C25.8354 12.0002 26.3318 12.0012 26.7095 12.0321C27.0718 12.0617 27.2061 12.1119 27.272 12.1455C27.5229 12.2733 27.7268 12.4773 27.8547 12.7282C27.8883 12.7941 27.9385 12.9284 27.9681 13.2906C27.999 13.6684 28 14.1648 28 14.9335V25.0668C28 25.8356 27.999 26.3319 27.9681 26.7097C27.9385 27.0719 27.8883 27.2062 27.8547 27.2722C27.7268 27.523 27.5229 27.727 27.272 27.8548C27.2061 27.8884 27.0718 27.9387 26.7095 27.9683C26.3318 27.9991 25.8354 28.0002 25.0667 28.0002H14.9333C14.1646 28.0002 13.6682 27.9991 13.2904 27.9683C12.9282 27.9387 12.7939 27.8884 12.728 27.8548C12.4771 27.727 12.2732 27.523 12.1453 27.2722C12.1117 27.2062 12.0615 27.0719 12.0319 26.7097ZM14.8819 9.3335L20 9.3335V6.9335C20 6.16476 19.999 5.6684 19.9681 5.29061C19.9385 4.9284 19.8883 4.7941 19.8547 4.72818C19.7268 4.4773 19.5229 4.27332 19.272 4.14549C19.2061 4.1119 19.0718 4.06166 18.7096 4.03207C18.3318 4.0012 17.8354 4.00017 17.0667 4.00017H6.93333C6.16459 4.00017 5.66823 4.0012 5.29045 4.03207C4.92823 4.06166 4.79394 4.1119 4.72801 4.14549C4.47713 4.27332 4.27315 4.4773 4.14532 4.72818C4.11173 4.7941 4.0615 4.9284 4.0319 5.29061C4.00104 5.6684 4 6.16476 4 6.9335V17.0668C4 17.8356 4.00104 18.3319 4.0319 18.7097C4.0615 19.0719 4.11173 19.2062 4.14532 19.2722C4.27315 19.523 4.47713 19.727 4.72801 19.8548C4.79394 19.8884 4.92823 19.9387 5.29045 19.9683C5.66823 19.9991 6.16459 20.0002 6.93333 20.0002H9.33333L9.33333 14.8821C9.33331 14.1792 9.33329 13.5729 9.37409 13.0735C9.41716 12.5463 9.51225 12.022 9.76931 11.5175C10.1528 10.7649 10.7647 10.153 11.5174 9.76947C12.0219 9.51242 12.5462 9.41733 13.0733 9.37426C13.5727 9.33345 14.1791 9.33347 14.8819 9.3335Z" fill="#5495FF"/>
</svg>
