<svg width="64" height="64" viewBox="0 0 64 64" fill="none" xmlns="http://www.w3.org/2000/svg">
<rect width="64" height="64" rx="20" fill="white"/>
<path d="M37.6095 28.9428C38.1302 28.4221 38.1302 27.5778 37.6095 27.0571C37.0888 26.5364 36.2446 26.5364 35.7239 27.0571L30.6667 32.1143L28.9428 30.3905C28.4221 29.8698 27.5779 29.8698 27.0572 30.3905C26.5365 30.9112 26.5365 31.7554 27.0572 32.2761L29.7239 34.9428C30.2446 35.4635 31.0888 35.4635 31.6095 34.9428L37.6095 28.9428Z" fill="#5495FF"/>
<path fill-rule="evenodd" clip-rule="evenodd" d="M32.3814 17.4514C32.1284 17.4148 31.8716 17.4148 31.6186 17.4514C31.3271 17.4935 31.0559 17.596 30.8405 17.6773L30.7828 17.6991L23.4595 20.4451C22.6358 20.7526 21.9124 21.0227 21.3553 21.5137C20.868 21.9432 20.4926 22.4849 20.2615 23.092C19.9974 23.786 19.9986 24.5582 19.9998 25.4375L20 31.9999C20 35.7688 22.0497 38.9109 24.2654 41.2192C26.4959 43.5429 29.048 45.1842 30.3975 45.9715L30.4521 46.0035C30.6984 46.1481 31.018 46.3358 31.4409 46.4265C31.7868 46.5007 32.2132 46.5007 32.5592 46.4265C32.982 46.3358 33.3016 46.1481 33.5479 46.0035L33.6025 45.9715C34.952 45.1842 37.5041 43.5429 39.7346 41.2192C41.9503 38.9109 44 35.7688 44 31.9999L44.0002 25.4374C44.0015 24.5582 44.0026 23.786 43.7385 23.092C43.5075 22.4849 43.132 21.9432 42.6447 21.5137C42.0876 21.0227 41.3642 20.7526 40.5405 20.4451L33.2172 17.6991L33.1595 17.6773C32.9441 17.596 32.6729 17.4935 32.3814 17.4514ZM31.7191 20.196C31.8676 20.1402 31.9415 20.1128 31.996 20.095L32 20.0937L32.004 20.095C32.0585 20.1128 32.1324 20.1402 32.2809 20.196L39.43 22.8769C40.5303 23.2895 40.742 23.3913 40.8816 23.5143C41.044 23.6575 41.1692 23.838 41.2462 24.0404C41.3123 24.2142 41.3333 24.4483 41.3333 25.6234V31.9999C41.3333 34.7757 39.8138 37.2859 37.8108 39.3725C35.8227 41.4437 33.5067 42.9401 32.2588 43.6681C32.1825 43.7126 32.1275 43.7447 32.0796 43.7716C32.0421 43.7927 32.0171 43.8061 32 43.8148C31.9829 43.8061 31.9579 43.7927 31.9204 43.7716C31.8725 43.7447 31.8175 43.7126 31.7412 43.6681C30.4933 42.9401 28.1773 41.4437 26.1892 39.3725C24.1863 37.2859 22.6667 34.7757 22.6667 31.9999V25.6234C22.6667 24.4483 22.6877 24.2142 22.7538 24.0404C22.8309 23.838 22.956 23.6575 23.1184 23.5143C23.258 23.3913 23.4697 23.2895 24.57 22.8769L31.7191 20.196Z" fill="#5495FF"/>
</svg>
