<svg width="64" height="64" viewBox="0 0 64 64" fill="none" xmlns="http://www.w3.org/2000/svg">
<rect width="64" height="64" rx="20" fill="white"/>
<g clip-path="url(#clip0_2544_10557)">
<path d="M32 26.6666C30.9452 26.6666 29.914 26.9794 29.037 27.5655C28.1599 28.1515 27.4763 28.9844 27.0727 29.959C26.669 30.9335 26.5634 32.0059 26.7692 33.0404C26.975 34.075 27.4829 35.0253 28.2288 35.7712C28.9747 36.5171 29.925 37.025 30.9595 37.2308C31.9941 37.4366 33.0665 37.331 34.041 36.9273C35.0155 36.5237 35.8485 35.8401 36.4345 34.963C37.0206 34.0859 37.3334 33.0548 37.3334 32C37.3334 30.5855 36.7715 29.2289 35.7713 28.2287C34.7711 27.2285 33.4145 26.6666 32 26.6666ZM32 34.6666C31.4726 34.6666 30.957 34.5102 30.5185 34.2172C30.08 33.9242 29.7382 33.5077 29.5363 33.0204C29.3345 32.5332 29.2817 31.997 29.3846 31.4797C29.4875 30.9624 29.7415 30.4873 30.1144 30.1143C30.4873 29.7414 30.9625 29.4874 31.4798 29.3845C31.9971 29.2816 32.5332 29.3344 33.0205 29.5363C33.5078 29.7381 33.9243 30.0799 34.2173 30.5184C34.5103 30.957 34.6667 31.4725 34.6667 32C34.6667 32.7072 34.3857 33.3855 33.8856 33.8856C33.3855 34.3857 32.7073 34.6666 32 34.6666Z" fill="#5495FF"/>
<path d="M44.392 34.5333L43.8 34.192C44.0665 32.7419 44.0665 31.2554 43.8 29.8053L44.392 29.464C44.8472 29.2014 45.2463 28.8516 45.5664 28.4347C45.8865 28.0179 46.1213 27.5421 46.2575 27.0344C46.3937 26.5268 46.4286 25.9973 46.3601 25.4762C46.2917 24.9551 46.1213 24.4526 45.8587 23.9973C45.596 23.5421 45.2463 23.143 44.8294 22.8229C44.4125 22.5029 43.9367 22.268 43.4291 22.1318C42.9215 21.9956 42.392 21.9607 41.8709 22.0292C41.3498 22.0976 40.8472 22.268 40.392 22.5307L39.7987 22.8733C38.678 21.9159 37.3902 21.1737 36 20.684V20C36 18.9391 35.5786 17.9217 34.8284 17.1716C34.0783 16.4214 33.0609 16 32 16C30.9391 16 29.9217 16.4214 29.1716 17.1716C28.4214 17.9217 28 18.9391 28 20V20.684C26.6098 21.1754 25.3225 21.9195 24.2027 22.8787L23.6067 22.5333C22.6872 22.0029 21.5948 21.8594 20.5696 22.1345C19.5444 22.4095 18.6704 23.0806 18.14 24C17.6096 24.9194 17.4661 26.0119 17.7411 27.0371C18.0162 28.0623 18.6872 28.9362 19.6067 29.4667L20.1987 29.808C19.9321 31.2581 19.9321 32.7446 20.1987 34.1947L19.6067 34.536C18.6872 35.0664 18.0162 35.9404 17.7411 36.9656C17.4661 37.9908 17.6096 39.0833 18.14 40.0027C18.6704 40.9221 19.5444 41.5931 20.5696 41.8682C21.5948 42.1432 22.6872 41.9998 23.6067 41.4693L24.2 41.1267C25.321 42.0842 26.6093 42.8265 28 43.316V44C28 45.0609 28.4214 46.0783 29.1716 46.8284C29.9217 47.5786 30.9391 48 32 48C33.0609 48 34.0783 47.5786 34.8284 46.8284C35.5786 46.0783 36 45.0609 36 44V43.316C37.3901 42.8246 38.6775 42.0805 39.7973 41.1213L40.3933 41.4653C41.3127 41.9958 42.4052 42.1392 43.4304 41.8642C44.4556 41.5891 45.3296 40.9181 45.86 39.9987C46.3904 39.0793 46.5339 37.9868 46.2588 36.9616C45.9838 35.9364 45.3127 35.0624 44.3933 34.532L44.392 34.5333ZM40.9947 29.4987C41.4462 31.1348 41.4462 32.8626 40.9947 34.4987C40.9158 34.7834 40.9338 35.0863 41.0458 35.3597C41.1578 35.6332 41.3574 35.8617 41.6133 36.0093L43.0587 36.844C43.3651 37.0208 43.5887 37.3121 43.6803 37.6538C43.772 37.9955 43.7241 38.3596 43.5473 38.666C43.3705 38.9724 43.0792 39.196 42.7375 39.2877C42.3958 39.3793 42.0317 39.3315 41.7253 39.1547L40.2773 38.3173C40.0212 38.169 39.723 38.1101 39.4297 38.1499C39.1363 38.1897 38.8646 38.326 38.6573 38.5373C37.4705 39.7489 35.9754 40.6133 34.3333 41.0373C34.0467 41.111 33.7927 41.278 33.6115 41.5119C33.4302 41.7458 33.3318 42.0334 33.332 42.3293V44C33.332 44.3536 33.1915 44.6928 32.9415 44.9428C32.6914 45.1929 32.3523 45.3333 31.9987 45.3333C31.645 45.3333 31.3059 45.1929 31.0559 44.9428C30.8058 44.6928 30.6653 44.3536 30.6653 44V42.3307C30.6655 42.0347 30.5672 41.7471 30.3859 41.5132C30.2046 41.2793 29.9506 41.1124 29.664 41.0387C28.0218 40.6129 26.5271 39.7466 25.3413 38.5333C25.134 38.322 24.8623 38.1857 24.569 38.1459C24.2757 38.1061 23.9775 38.165 23.7213 38.3133L22.276 39.1493C22.1243 39.2383 21.9565 39.2963 21.7823 39.3201C21.6081 39.344 21.4309 39.3331 21.2609 39.2881C21.0909 39.2432 20.9314 39.1651 20.7918 39.0582C20.6521 38.9514 20.5349 38.8181 20.447 38.6658C20.3591 38.5135 20.3021 38.3453 20.2795 38.1709C20.2568 37.9966 20.2688 37.8194 20.3149 37.6497C20.361 37.48 20.4402 37.3211 20.5479 37.1822C20.6556 37.0432 20.7898 36.9269 20.9427 36.84L22.388 36.0053C22.6439 35.8577 22.8436 35.6292 22.9555 35.3557C23.0675 35.0823 23.0855 34.7794 23.0067 34.4947C22.5551 32.8586 22.5551 31.1308 23.0067 29.4947C23.0841 29.2105 23.0652 28.9087 22.9531 28.6364C22.8409 28.3641 22.6418 28.1365 22.3867 27.9893L20.9413 27.1547C20.6349 26.9779 20.4113 26.6866 20.3196 26.3449C20.228 26.0032 20.2759 25.6391 20.4527 25.3327C20.6295 25.0263 20.9208 24.8026 21.2625 24.711C21.6041 24.6193 21.9682 24.6672 22.2747 24.844L23.7227 25.6813C23.9781 25.83 24.2757 25.8896 24.5687 25.8508C24.8617 25.8119 25.1335 25.6768 25.3413 25.4667C26.5281 24.2551 28.0232 23.3907 29.6653 22.9667C29.9528 22.8928 30.2075 22.725 30.3888 22.49C30.5702 22.255 30.668 21.9662 30.6667 21.6693V20C30.6667 19.6464 30.8071 19.3072 31.0572 19.0572C31.3072 18.8071 31.6464 18.6667 32 18.6667C32.3536 18.6667 32.6928 18.8071 32.9428 19.0572C33.1929 19.3072 33.3333 19.6464 33.3333 20V21.6693C33.3332 21.9653 33.4315 22.2529 33.6128 22.4868C33.7941 22.7207 34.048 22.8876 34.3347 22.9613C35.9773 23.3869 37.4725 24.2532 38.6587 25.4667C38.866 25.678 39.1377 25.8143 39.431 25.8541C39.7243 25.8939 40.0225 25.835 40.2787 25.6867L41.724 24.8507C41.8757 24.7617 42.0435 24.7037 42.2177 24.6799C42.3919 24.656 42.5691 24.6669 42.7391 24.7119C42.9091 24.7568 43.0686 24.8349 43.2082 24.9418C43.3479 25.0486 43.4651 25.1819 43.553 25.3342C43.6409 25.4865 43.6979 25.6547 43.7205 25.8291C43.7432 26.0034 43.7311 26.1806 43.6851 26.3503C43.639 26.52 43.5598 26.6789 43.4521 26.8178C43.3444 26.9568 43.2102 27.0731 43.0573 27.16L41.612 27.9947C41.3574 28.1423 41.1588 28.37 41.0471 28.6423C40.9354 28.9145 40.917 29.2161 40.9947 29.5V29.4987Z" fill="#5495FF"/>
</g>
<defs>
<clipPath id="clip0_2544_10557">
<rect width="32" height="32" fill="white" transform="translate(16 16)"/>
</clipPath>
</defs>
</svg>
