<svg width="64" height="64" viewBox="0 0 64 64" fill="none" xmlns="http://www.w3.org/2000/svg">
<rect width="64" height="64" rx="20" fill="white"/>
<g clip-path="url(#clip0_2544_10571)">
<path d="M44.4 30.7693L46.1493 29.4119C46.5 29.1399 46.6933 28.7106 46.6627 28.2679C46.632 27.8253 46.384 27.4253 45.9973 27.2039L27.7293 16.6799C26.476 15.9786 25.028 15.8106 23.6453 16.2106C22.2653 16.6093 21.1267 17.5239 20.4413 18.7866L19.316 20.8559C17.9373 23.3893 18.856 26.6119 21.3507 28.0319L28.8947 32.4306L27.2827 37.2653C26.7373 38.9013 25.212 39.9999 23.488 39.9999H18.6653V35.9999C18.6653 35.2639 18.068 34.6666 17.332 34.6666C16.596 34.6666 15.9987 35.2639 15.9987 35.9999V46.6666C15.9987 47.4026 16.596 47.9999 17.332 47.9999C18.068 47.9999 18.6653 47.4026 18.6653 46.6666V42.6666H23.488C26.3613 42.6666 28.904 40.8346 29.812 38.1093L31.248 33.8039L35.0853 36.0413C35.9013 36.5053 36.8027 36.7413 37.7147 36.7413C38.204 36.7413 38.6973 36.6733 39.1827 36.5359C39.6587 36.3999 40.1067 36.2039 40.5173 35.9533L42.64 37.1306C43.428 37.5679 44.4213 37.2786 44.8533 36.4879L45.9787 34.4253C46.4067 33.6413 46.1213 32.6599 45.34 32.2266L43.824 31.3866C43.9813 31.1519 44.1747 30.9466 44.3987 30.7719L44.4 30.7693ZM38.4533 33.9693C37.7587 34.1666 37.032 34.0786 36.4173 33.7293L22.6813 25.7213C21.428 25.0079 20.9693 23.3959 21.6573 22.1293L22.7827 20.0599C23.1253 19.4279 23.6947 18.9719 24.3853 18.7719C24.6333 18.7013 24.884 18.6653 25.1333 18.6653C25.58 18.6653 26.02 18.7773 26.412 18.9986L42.9453 28.5226L42.7653 28.6626C42.1813 29.1146 41.7067 29.6733 41.352 30.3226L40.064 32.6826C39.7187 33.3159 39.1467 33.7719 38.4533 33.9693Z" fill="#5495FF"/>
</g>
<defs>
<clipPath id="clip0_2544_10571">
<rect width="32" height="32" fill="white" transform="translate(16 16)"/>
</clipPath>
</defs>
</svg>
