<svg width="64" height="64" viewBox="0 0 64 64" fill="none" xmlns="http://www.w3.org/2000/svg">
<rect width="64" height="64" rx="20" fill="white"/>
<path d="M45.436 33.4934L42.6933 28.6934C42.1092 27.6738 41.2665 26.8264 40.2503 26.2364C39.2341 25.6465 38.0803 25.335 36.9053 25.3334H27.0946C25.9196 25.335 24.7658 25.6465 23.7496 26.2364C22.7334 26.8264 21.8908 27.6738 21.3066 28.6934L18.564 33.4934C17.758 34.9041 17.3338 36.5006 17.3333 38.1254V40C17.3336 40.936 17.5801 41.8554 18.0482 42.6659C18.5163 43.4764 19.1894 44.1494 20 44.6174V45.3334C20 46.0406 20.2809 46.7189 20.781 47.219C21.2811 47.7191 21.9594 48 22.6666 48C23.3739 48 24.0522 47.7191 24.5523 47.219C25.0524 46.7189 25.3333 46.0406 25.3333 45.3334H38.6666C38.6666 46.0406 38.9476 46.7189 39.4477 47.219C39.9478 47.7191 40.6261 48 41.3333 48C42.0406 48 42.7188 47.7191 43.2189 47.219C43.719 46.7189 44 46.0406 44 45.3334V44.6174C44.8105 44.1494 45.4837 43.4764 45.9517 42.6659C46.4198 41.8554 46.6664 40.936 46.6666 40V38.1254C46.6662 36.5006 46.242 34.9041 45.436 33.4934ZM23.6226 30.0161C23.973 29.4044 24.4784 28.8959 25.088 28.542C25.6976 28.188 26.3898 28.0011 27.0946 28.0001H36.9053C37.6093 28.002 38.3003 28.1894 38.9089 28.5433C39.5175 28.8972 40.0221 29.4052 40.372 30.0161L43.036 34.6667H20.964L23.6226 30.0161ZM44 40C44 40.7073 43.719 41.3856 43.2189 41.8857C42.7188 42.3858 42.0406 42.6667 41.3333 42.6667H22.6666C21.9594 42.6667 21.2811 42.3858 20.781 41.8857C20.2809 41.3856 20 40.7073 20 40V38.1254C20.0006 37.8607 20.0166 37.5962 20.048 37.3334H22.6666V38.6667C22.6666 39.0203 22.8071 39.3595 23.0572 39.6095C23.3072 39.8596 23.6464 40 24 40C24.3536 40 24.6927 39.8596 24.9428 39.6095C25.1928 39.3595 25.3333 39.0203 25.3333 38.6667V37.3334H38.6666V38.6667C38.6666 39.0203 38.8071 39.3595 39.0572 39.6095C39.3072 39.8596 39.6464 40 40 40C40.3536 40 40.6927 39.8596 40.9428 39.6095C41.1928 39.3595 41.3333 39.0203 41.3333 38.6667V37.3334H43.952C43.9833 37.5962 43.9994 37.8607 44 38.1254V40ZM30.1146 21.8854C29.6147 21.3853 29.3339 20.7072 29.3339 20.0001C29.3339 19.2929 29.6147 18.6148 30.1146 18.1147L31.1813 16.9147C31.2835 16.7996 31.409 16.7074 31.5494 16.6443C31.6898 16.5812 31.842 16.5485 31.996 16.5485C32.1499 16.5485 32.3021 16.5812 32.4426 16.6443C32.583 16.7074 32.7084 16.7996 32.8106 16.9147L33.8773 18.1147C34.2415 18.4903 34.488 18.964 34.5865 19.4778C34.685 19.9916 34.6312 20.5229 34.4317 21.0065C34.2323 21.4901 33.8959 21.9049 33.4638 22.1998C33.0318 22.4948 32.523 22.6571 32 22.6667C31.6497 22.6674 31.3028 22.5987 30.9792 22.4646C30.6556 22.3305 30.3618 22.1336 30.1146 21.8854ZM38.0946 21.8854C37.5947 21.3853 37.3139 20.7072 37.3139 20.0001C37.3139 19.2929 37.5947 18.6148 38.0946 18.1147L39.1613 16.9147C39.2636 16.7995 39.3892 16.7074 39.5297 16.6442C39.6703 16.5811 39.8226 16.5485 39.9766 16.5485C40.1307 16.5485 40.283 16.5811 40.4236 16.6442C40.5641 16.7074 40.6897 16.7995 40.792 16.9147L41.8586 18.1147C42.2229 18.4903 42.4694 18.9642 42.5678 19.4781C42.6663 19.992 42.6124 20.5234 42.4128 21.0071C42.2132 21.4907 41.8766 21.9055 41.4443 22.2004C41.0121 22.4952 40.5031 22.6573 39.98 22.6667C39.6297 22.6672 39.2828 22.5985 38.9593 22.4644C38.6357 22.3303 38.3419 22.1335 38.0946 21.8854ZM22.0946 21.8854C21.5947 21.3853 21.3139 20.7072 21.3139 20.0001C21.3139 19.2929 21.5947 18.6148 22.0946 18.1147L23.1613 16.9147C23.2637 16.7982 23.3897 16.7049 23.531 16.641C23.6723 16.577 23.8256 16.5439 23.9806 16.5439C24.1357 16.5439 24.289 16.577 24.4303 16.641C24.5716 16.7049 24.6976 16.7982 24.8 16.9147L25.8666 18.1147C26.2313 18.4908 26.4779 18.9655 26.5761 19.4801C26.6743 19.9947 26.6197 20.5267 26.4191 21.0107C26.2185 21.4946 25.8807 21.9093 25.4473 22.2036C25.0139 22.4979 24.5038 22.6588 23.98 22.6667C23.6297 22.6672 23.2828 22.5985 22.9593 22.4644C22.6357 22.3303 22.3419 22.1335 22.0946 21.8854Z" fill="#5495FF"/>
</svg>
