<svg width="29" height="28" viewBox="0 0 29 28" fill="none" xmlns="http://www.w3.org/2000/svg">
<g clip-path="url(#clip0_2601_17065)">
<path fill-rule="evenodd" clip-rule="evenodd" d="M8.02302 0C2.27066 0 0.166687 2.10361 0.166687 7.8548V20.1452C0.166687 25.8964 2.27066 28 8.02302 28H20.3066C26.0588 28 28.1667 25.8964 28.1667 20.1452V7.8548C28.1667 2.10361 26.0627 0 20.3104 0H8.02302Z" fill="white"/>
<path fill-rule="evenodd" clip-rule="evenodd" d="M12.3802 16.2394H13.5043L12.9403 14.9279L12.3802 16.2394ZM12.1034 16.9004L11.7699 17.6635H11.0106L12.6252 14.0002H13.2815L14.8896 17.6635H14.1101L13.7809 16.9004H12.1034ZM24.3217 17.6608H25.0556V14H24.3217V17.6608ZM21.4009 16.0882H22.7536V15.4207H21.4009V14.6704H23.3646V14.0027H20.6672V17.6633H23.4353V16.9956H21.4009V16.0882ZM18.485 16.5207L17.653 14H17.0458L16.2138 16.5207L15.4041 14.002H14.6124L15.8902 17.6655H16.5057L17.339 15.2591L18.1724 17.6655H18.7933L20.0677 14.002H19.2965L18.485 16.5207ZM9.89028 16.0983C9.89028 16.6942 9.59435 17.0127 9.05694 17.0127C8.51661 17.0127 8.2191 16.685 8.2191 16.0729V14.0025H7.47533V16.0983C7.47533 17.1292 8.04829 17.7204 9.04682 17.7204C10.0552 17.7204 10.6334 17.118 10.6334 16.0677V14.0002H9.89028V16.0983ZM5.70086 14.0002H6.44418V17.6657H5.70086V16.1771H4.02157V17.6657H3.2778V14.0002H4.02157V15.4788H5.70086V14.0002Z" fill="#FF941F"/>
<path fill-rule="evenodd" clip-rule="evenodd" d="M14.1667 9.33317C11.5932 9.33317 9.50002 7.23974 9.50002 4.6665H10.1592C10.1592 6.87606 11.9571 8.67377 14.1667 8.67377C16.3762 8.67377 18.1742 6.87606 18.1742 4.6665H18.8333C18.8333 7.23974 16.7399 9.33317 14.1667 9.33317Z" fill="#FF941F"/>
</g>
<defs>
<clipPath id="clip0_2601_17065">
<rect width="28" height="28" fill="white" transform="translate(0.166687)"/>
</clipPath>
</defs>
</svg>
