<svg width="32" height="32" viewBox="0 0 32 32" fill="none" xmlns="http://www.w3.org/2000/svg">
<rect width="32" height="32" rx="16" fill="#5495FF"/>
<g clip-path="url(#clip0_2541_6545)">
<path fill-rule="evenodd" clip-rule="evenodd" d="M15.6895 8.66669C15.2095 8.66669 14.7745 8.94937 14.5795 9.38801L12.2334 14.6667H10.6667C9.56212 14.6667 8.66669 15.5621 8.66669 16.6667V21.3334C8.66669 22.4379 9.56212 23.3334 10.6667 23.3334H19.6175C20.9337 23.3334 22.053 22.3731 22.2532 21.0722L22.9711 16.4055C23.2196 14.7902 21.9698 13.3334 20.3355 13.3334H18V10.9772C18 9.70116 16.9655 8.66669 15.6895 8.66669ZM20.9353 20.8694C20.8353 21.5199 20.2756 22 19.6175 22H13.3334V15.4204C13.3787 15.3542 13.4185 15.2833 13.4519 15.2082L15.7653 10.0029C16.2696 10.0416 16.6667 10.4631 16.6667 10.9772V13.3334C16.6667 14.0697 17.2636 14.6667 18 14.6667H20.3355C21.1526 14.6667 21.7776 15.3951 21.6533 16.2028L20.9353 20.8694ZM10 21.3334C10 21.7015 10.2985 22 10.6667 22H12V16H10.6667C10.2985 16 10 16.2985 10 16.6667V21.3334Z" fill="white"/>
</g>
<defs>
<clipPath id="clip0_2541_6545">
<rect width="16" height="16" fill="white" transform="translate(8 8)"/>
</clipPath>
</defs>
</svg>
