<svg width="60" height="72" viewBox="0 0 60 72" fill="none" xmlns="http://www.w3.org/2000/svg">
<ellipse cx="30" cy="66" rx="9" ry="2" fill="#B8B8B8"/>
<g filter="url(#filter0_d_2617_3422)">
<path fill-rule="evenodd" clip-rule="evenodd" d="M30 2.66663C16.7452 2.66663 6 13.4118 6 26.6666C6 36.4759 11.4952 41.8297 16.6196 46.128C17.1609 46.5821 17.6919 47.0216 18.2102 47.4505C22.7977 51.2478 26.3917 54.2227 27.3851 59.1896C27.6344 60.4361 28.7289 61.3333 30 61.3333C31.2711 61.3333 32.3656 60.4361 32.6149 59.1896C33.6083 54.2227 37.2014 51.2485 41.7889 47.4513C42.3072 47.0223 42.8391 46.5821 43.3804 46.128C48.5048 41.8297 54 36.4759 54 26.6666C54 13.4118 43.2548 2.66663 30 2.66663Z" fill="#FF941F"/>
<path d="M8 26.6666C8 14.5164 17.8497 4.66663 30 4.66663C42.1503 4.66663 52 14.5164 52 26.6666C52 35.5367 47.127 40.375 42.0951 44.5957C41.5596 45.0449 41.0326 45.481 40.5137 45.9106C40.4248 45.9842 40.336 46.0576 40.2473 46.131C35.8825 49.7419 31.7872 53.1299 30.6537 58.7974C30.5914 59.109 30.3178 59.3333 30 59.3333C29.6822 59.3333 29.4086 59.109 29.3463 58.7974C28.2128 53.1299 24.1166 49.7412 19.7518 46.1303C19.6631 46.0569 19.5743 45.9835 19.4854 45.9099C18.9665 45.4803 18.4404 45.0449 17.9049 44.5957C12.873 40.375 8 35.5367 8 26.6666Z" stroke="white" stroke-width="4" stroke-linecap="round" stroke-linejoin="round"/>
</g>
<path fill-rule="evenodd" clip-rule="evenodd" d="M22.3068 25.9768C22.4494 26.2432 22.7095 26.358 23.0004 26.4759C23.5868 26.7193 23.434 26.8173 23.6397 27.0209C23.9042 26.9229 24.0365 26.6106 24.2025 26.5187L24.3363 26.3825C24.8301 26.0518 25.5854 26.5494 25.9499 26.8601C27.4238 28.1231 28.4922 30.1837 28.5216 32.2795C29.3622 32.8168 30.4967 32.7954 31.3402 32.2963C31.3843 30.6598 31.9751 29.1595 32.8935 27.9807C33.3535 27.3898 34.5879 25.9477 35.4432 26.3304C35.7856 26.4835 35.8958 26.9198 36.2383 27.0224C36.2779 26.9811 36.2574 27.0056 36.297 26.9489C36.3176 26.9168 36.3338 26.8862 36.3558 26.8525C36.4073 26.7713 36.4322 26.7438 36.4954 26.6902C36.8672 26.3794 36.8599 26.655 37.58 26.0181C37.5991 25.6324 37.3948 24.6235 37.2552 24.2025C37.2155 24.0831 37.2052 24.0601 37.145 23.9867C35.9884 23.9101 33.9575 24.1306 32.8539 24.4398C30.4012 25.1241 30.5349 26.4024 29.9206 26.384C29.274 26.3657 29.4224 24.8608 26.0542 24.2285C25.6868 24.1596 25.3179 24.152 24.9608 24.0938C24.448 24.0081 23.2517 23.9346 22.683 23.9912C22.5993 24.3464 22.2039 25.5818 22.3068 25.9768Z" fill="white"/>
<path fill-rule="evenodd" clip-rule="evenodd" d="M29.9573 35.4147C31.3211 35.4101 32.7554 35.0381 33.7503 34.3263C33.9634 34.1732 34.2426 34.0583 34.0368 33.7017C33.7488 33.2041 33.6121 32.9423 33.4093 32.3193C33.0596 32.2289 32.5996 32.9025 31.8854 32.7954C31.4328 32.7265 31.7238 32.2687 31.1594 32.6545C31.0404 32.7372 30.9684 32.7739 30.8156 32.8336C30.5143 32.953 30.3159 33.0066 29.9603 33.0082C28.9757 33.0128 28.5789 32.4785 28.4349 32.4923C28.354 32.4999 28.0249 33.1582 26.9727 32.5045C26.8081 32.4019 26.7037 32.2902 26.5097 32.2994C26.4157 32.4616 26.3069 32.7969 26.2158 32.9974C25.8367 33.841 25.5222 33.9588 26.0968 34.3186C27.2622 35.0565 28.4628 35.4162 29.9573 35.4147Z" fill="white"/>
<path fill-rule="evenodd" clip-rule="evenodd" d="M23.4366 23.8168C23.8084 23.0253 26.5712 23.9255 27.1811 24.1367C27.9276 24.397 28.8211 24.994 29.3266 25.5957C30.2657 26.7148 29.7455 26.2034 31.1445 25.0185C32.276 24.0617 34.1409 23.5902 35.584 23.5229C36.0896 23.4984 36.1777 23.4815 36.4555 23.8229H36.7259L36.7509 22.9044C34.4877 22.713 31.9248 23.3499 30.5008 25.2237C30.3597 25.4074 30.1437 25.8452 29.9203 25.8911C29.7793 25.8758 29.2914 25.0369 28.7829 24.5669C27.2913 23.1922 25.2133 22.7911 23.1354 22.8998C23.1119 23.0927 23.128 23.2917 23.1266 23.4892C23.1266 23.8642 23.103 23.8275 23.4366 23.8168Z" fill="white"/>
<path fill-rule="evenodd" clip-rule="evenodd" d="M33.5737 32.1753C33.5884 32.4401 34.066 33.5026 34.2041 33.6786C34.6259 33.6587 35.8368 32.1355 36.0984 31.7864C36.4628 31.3012 37.2226 29.8208 37.3137 29.1472C37.2255 29.1564 36.2071 29.6187 36.3555 28.6068C35.9911 28.4415 36.0925 28.3664 35.9823 28.1261C35.8941 28.2853 35.8779 28.5502 35.8177 28.7568C35.7427 29.0064 35.6928 29.1411 35.612 29.3615C35.4621 29.7764 35.2886 30.0963 35.0697 30.4699C34.7111 31.0853 34.0763 31.8125 33.5737 32.1753Z" fill="white"/>
<path fill-rule="evenodd" clip-rule="evenodd" d="M23.5261 28.6222C23.6055 29.4106 23.0955 29.2575 22.5988 29.1856C22.6752 29.9449 23.4409 31.2997 23.8068 31.8386C24.1007 32.2718 25.3337 33.6757 25.6731 33.6971C25.8025 33.4782 26.2874 32.4219 26.3021 32.1739C25.2558 31.4375 24.4754 30.1102 24.0772 28.8151C24.0243 28.6421 23.9567 28.2808 23.8935 28.1553C23.8377 28.2624 23.8656 28.3267 23.7686 28.4446C23.6863 28.5518 23.6172 28.5518 23.5261 28.6222Z" fill="white"/>
<path fill-rule="evenodd" clip-rule="evenodd" d="M23.9202 22.7543C24.4698 22.7925 24.1068 22.5675 24.9209 22.6777C26.7212 22.9196 28.5728 23.757 29.6294 25.3843C29.9174 25.8298 29.9571 25.8267 30.2158 25.4256C30.4391 25.0797 30.7272 24.7337 31.002 24.4704C31.4443 24.0433 31.7867 23.8228 32.3349 23.5059C32.7478 23.2702 33.4606 22.9793 33.9573 22.8721C36.1219 22.4006 35.2299 22.8293 35.9529 22.7481V22.2521C34.8419 22.1419 33.3063 22.6394 32.3437 23.1997C31.7235 23.5626 30.6067 24.4872 30.1967 25.1256C30.1011 25.2756 30.0776 25.3981 29.9219 25.467C29.8366 25.4027 29.6221 25.0399 29.4296 24.8102C29.2532 24.5974 29.0151 24.3647 28.8579 24.2086C27.6323 23.0099 25.666 22.1465 23.9231 22.2445L23.9202 22.7543Z" fill="white"/>
<path fill-rule="evenodd" clip-rule="evenodd" d="M36.5334 27.4373C36.4232 27.621 36.2175 27.6654 36.169 27.9608C36.0881 28.437 36.4394 28.2992 36.529 28.466C36.6084 28.6207 36.2924 29.0126 36.7421 29.0554C37.0066 29.0799 37.2844 28.9483 37.4416 28.7875C37.7399 28.4814 37.5019 28.2441 37.5695 28.0175C37.6077 27.8904 37.6738 27.8491 37.7105 27.6623C37.7546 27.4388 37.7208 27.3868 37.687 27.1877C37.6341 26.8816 37.8972 26.779 37.7884 26.3442C37.6826 25.9125 37.4284 26.3136 37.2329 26.4254C36.9934 26.5616 36.4996 26.6749 36.4173 27.05C36.3615 27.3102 36.4673 27.2781 36.5334 27.4373Z" fill="white"/>
<path fill-rule="evenodd" clip-rule="evenodd" d="M23.6902 28.2516C23.752 27.6132 23.4963 27.7495 23.3346 27.4372C23.3934 27.2841 23.436 27.3561 23.458 27.1953C23.5256 26.7115 22.7865 26.537 22.5675 26.3916C22.3838 26.2676 22.3691 26.1222 22.1678 26.1375C22.1296 26.2768 22.0605 26.3487 22.0649 26.5707C22.0708 26.8294 22.1766 26.8907 22.1957 27.0468C22.2163 27.2121 22.1178 27.3285 22.1516 27.5933C22.1751 27.7893 22.2677 27.8796 22.2971 28.0373C22.3691 28.4415 22.109 28.5945 22.5822 28.9053C22.882 29.1013 23.1245 29.1411 23.3831 28.8992C23.3963 28.7078 23.2979 28.5501 23.3684 28.4415C23.4669 28.3282 23.4154 28.4124 23.5506 28.3557C23.7035 28.293 23.6109 28.3205 23.6902 28.2516Z" fill="white"/>
<path fill-rule="evenodd" clip-rule="evenodd" d="M41.9719 23.1263C41.9131 22.9257 41.6663 21.1882 41.7368 20.8208C41.7632 20.683 41.8558 20.5314 41.8676 20.4411C41.944 19.7874 39.8734 20.4993 39.1269 22.2139C38.6419 23.3268 38.8947 24.6235 38.7698 26.0105C38.3994 30.1469 36.9166 33.1811 33.6718 35.0657L32.3698 35.7301C32.4036 35.9888 33.1663 36.7848 33.3177 36.9303C33.5572 37.1584 34.2949 37.7646 34.5874 37.8488C34.7667 37.8978 35.7454 37.2012 35.9335 37.0527C36.6786 36.4664 37.6779 35.6489 38.4479 35.2111C39.3164 34.7166 40.1526 33.9098 40.52 32.8872C40.6052 32.6499 40.7448 32.2427 40.639 31.9273C40.4935 31.5079 40.1967 31.7773 39.9513 31.6227C39.9087 31.3425 40.0924 31.1144 40.2364 30.9552C40.7963 30.326 40.9961 30.1347 41.315 29.1228C41.4767 28.6114 41.5796 28.0925 41.6413 27.5092C41.8015 26.0074 41.1828 26.2967 41.0858 26.136C41.0138 25.7885 41.2518 25.6507 41.4091 25.4792C41.8397 25.0215 41.8338 24.7306 41.9455 24.2882C41.9793 24.1351 42.0336 23.3375 41.9719 23.1263ZM33.0723 35.8908C33.0811 35.8847 33.0899 35.8724 33.0928 35.8694C33.0987 35.8648 33.109 35.8541 33.1149 35.8495L34.4243 35.0993C34.8299 34.8437 35.281 34.5283 35.6337 34.2007C36.3068 33.5776 37.0224 32.7295 37.5618 31.837C38.5346 30.2296 39.0769 28.9115 39.265 26.978C39.3076 26.5555 39.3414 25.2573 39.4678 24.997C39.7661 24.9725 39.7882 25.5696 39.8014 25.8145C39.869 27.1908 39.6544 28.5502 39.1621 29.7856C38.492 31.465 37.1973 33.2194 35.8953 34.3232C35.3163 34.8177 33.7718 35.8663 33.0723 35.8908ZM38.3994 34.1318C37.672 34.9524 36.2524 35.8541 35.3075 36.295C35.1017 36.3914 33.9863 36.8629 33.8276 36.7956C33.8614 36.6685 33.8115 36.7649 33.9672 36.6991L34.5301 36.4771C35.8042 35.9015 36.6551 35.3749 37.6823 34.3783C38.0247 34.043 38.517 33.3878 38.7771 33.4031C38.8168 33.7323 38.5537 33.9558 38.3994 34.1318ZM39.9381 33.2776C39.772 33.5761 39.384 34.1854 39.0578 34.2329C39.0842 33.8884 39.7206 33.1934 39.4237 32.777C39.3311 32.6469 38.8756 32.5872 39.2488 32.2534C39.3987 32.1187 39.6441 31.9947 39.8896 32.0437C40.4774 32.1646 40.11 32.9699 39.9381 33.2776ZM39.0725 32.0223C38.1525 33.3939 37.0709 34.562 35.7248 35.4101C35.259 35.7025 34.0348 36.3577 33.4426 36.3945C33.7012 36.1756 34.2097 36.0194 34.5595 35.8388C37.1738 34.4931 38.3024 32.627 39.6001 30.0275C39.7015 29.8239 39.7573 29.5805 39.9733 29.5759C40.1629 30.1852 39.3385 31.6258 39.0725 32.0223ZM41.1269 28.1767C41.0432 28.5808 40.7684 29.3983 40.4068 29.4565C40.3819 29.0401 40.8315 28.0297 40.4656 27.696C40.2922 27.5352 39.869 27.7281 40.1335 27.1464C40.3745 26.6106 41.5325 26.2248 41.1269 28.1767ZM41.3826 23.6881C41.34 24.1321 41.074 25.0935 40.6052 25.0552C40.5641 24.8271 40.7228 24.3908 40.7287 24.0448C40.7566 22.6961 40.1085 22.8354 39.8572 23.2839C39.7544 23.4692 39.6427 23.9116 39.409 23.9101C39.046 23.0451 40.3716 20.7274 41.0255 21.8357C41.2768 22.2598 41.4458 23.0359 41.3826 23.6881Z" fill="white"/>
<path fill-rule="evenodd" clip-rule="evenodd" d="M26.0875 34.9983C22.3519 32.7463 21.0572 28.988 21.0499 24.1994C21.0499 23.6912 21.0602 23.4141 20.9823 22.9441C20.7765 21.6826 19.5671 20.412 18.4047 20.2145C17.7066 20.0951 18.1181 20.6095 18.1431 20.9585C18.1783 21.453 18.3341 22.2659 18.2695 22.8201C18.2283 23.1752 18.1813 23.0421 18.1813 23.5059C18.1813 23.5059 18.1107 24.7199 18.3826 25.1577C18.4928 25.3353 18.509 25.4394 18.6457 25.5741C18.7823 25.7119 18.8911 25.8298 18.8367 26.1329C18.7118 26.3411 18.2342 25.9523 18.2342 27.1601C18.2342 28.293 18.6868 29.8989 19.3951 30.6842C19.5465 30.8542 20.0417 31.2889 19.9315 31.6211C19.8066 31.7865 18.8441 31.3088 19.3511 32.8612C19.6655 33.818 20.5517 34.7212 21.4084 35.1973C22.4077 35.7515 23.0426 36.4021 23.9346 37.0313C24.1683 37.1997 25.0882 37.8855 25.266 37.8534C25.5335 37.8044 26.3388 37.1339 26.5446 36.9471C26.7341 36.7741 27.4674 35.9781 27.5086 35.7285C27.4954 35.7209 26.3344 35.1483 26.0875 34.9983ZM18.4987 23.7156C18.4047 23.1033 18.6633 21.1575 19.5201 21.6107C20.1461 21.9429 20.7501 23.4156 20.4444 23.8994C20.0932 23.8427 20.1255 23.0727 19.6744 22.9839C19.185 22.8859 19.1247 23.6238 19.1409 24.0831C19.1512 24.3816 19.2085 24.5576 19.2732 24.801C19.4172 25.3445 18.7089 25.0889 18.4987 23.7156ZM19.401 27.6822C19.0557 28.2838 19.4995 28.8793 19.4672 29.4534C18.8558 29.3769 18.1122 26.5248 19.2438 26.7315C19.5891 26.7958 19.8257 27.0913 19.8066 27.5383C19.5597 27.7159 19.7184 27.5964 19.401 27.6822ZM20.0447 32.0666C20.3915 32.0467 20.7471 32.1799 20.7471 32.5856C20.5928 32.6882 20.199 32.7555 20.462 33.4199C20.5458 33.6327 20.8162 34.0752 20.8368 34.2221C20.3548 34.2543 19.0086 32.1217 20.0447 32.0666ZM21.0822 33.4169C21.3159 33.351 21.5142 33.6679 21.6715 33.8425C22.7281 35.0121 23.8891 35.8464 25.3072 36.4511C25.4909 36.5307 25.8495 36.6532 25.9994 36.7573C24.8634 36.791 20.9896 34.3308 21.0822 33.4169ZM24.1286 35.3963C22.8501 34.5727 21.6098 33.3128 20.8015 32.0253C20.5105 31.5599 19.7669 30.3031 19.883 29.5881C20.1108 29.5499 20.1931 29.856 20.2739 30.0367C20.4988 30.5357 20.8765 31.1956 21.1425 31.69C22.0389 33.3495 23.6598 35.0917 25.338 35.854C25.6276 35.9857 26.2286 36.2245 26.4314 36.3945C25.8465 36.3715 24.6327 35.7209 24.1286 35.3963ZM23.9655 34.3109C22.5474 33.1383 20.8809 30.7776 20.3959 28.8778C20.1549 27.921 19.98 26.7728 20.0711 25.7578C20.0961 25.4899 20.1093 24.9878 20.4047 24.9924C20.6693 25.7211 20.2563 28.7308 22.3137 31.8431C24.5842 35.2769 26.1845 35.3091 26.8017 35.8923C26.0816 35.8694 24.568 34.8115 23.9655 34.3109Z" fill="white"/>
<path fill-rule="evenodd" clip-rule="evenodd" d="M35.7278 26.6626C35.2458 26.8938 35.3281 27.8674 35.9101 27.8674C36.1217 27.8674 36.4847 27.4954 35.9703 26.9366C35.9292 26.8922 35.9057 26.8662 35.866 26.8142C35.7661 26.6886 35.8498 26.7514 35.7278 26.6626Z" fill="white"/>
<path fill-rule="evenodd" clip-rule="evenodd" d="M24.2936 27.751C24.3201 27.6776 24.3642 27.6561 24.4068 27.5612C24.4509 27.4617 24.4626 27.3775 24.4612 27.2382C24.4568 26.8968 24.3245 26.8983 24.2936 26.7299C24.2466 26.7055 24.2011 26.6917 24.1482 26.6656C24.035 26.7514 24.1144 26.6871 24.0277 26.7958C23.9865 26.8448 23.9645 26.8739 23.9248 26.9182C23.844 27.0116 23.7822 27.0591 23.7323 27.1463C23.6647 27.2642 23.4619 28.0878 24.2936 27.751Z" fill="white"/>
<path fill-rule="evenodd" clip-rule="evenodd" d="M33.4388 37.6238C32.9641 37.2916 32.5483 36.791 32.2103 36.318C32.0354 36.0715 31.887 35.6551 31.7356 35.4729C31.4564 35.4637 31.2257 35.5816 30.9009 35.6092C30.0059 35.6796 29.9515 35.675 29.0845 35.6184C27.928 35.5433 28.3262 35.1269 27.8927 35.9322C27.7883 36.1236 27.6752 36.3011 27.5371 36.4879C27.2387 36.8936 27.0521 37.0758 26.6847 37.4172C26.2424 37.832 26.0278 37.8642 25.7721 38.0448C25.6222 38.1504 25.7074 38.028 25.6722 38.178C26.1248 38.3648 26.6994 38.4872 27.2211 38.6189C27.4724 38.6817 27.7883 38.7613 28.0338 38.7873C29.0331 38.8899 28.5878 38.9404 28.8685 39.0001C29.0977 38.7016 29.3152 37.8749 29.4122 37.7371L30.4291 37.734C30.5232 37.757 30.4923 37.7723 30.5835 38.0418C30.7642 38.5745 30.751 38.4428 30.9332 38.8409L31.0096 39.0001C31.3315 38.922 30.7422 38.9297 31.7811 38.7781C32.3616 38.6924 33.4447 38.4321 34.009 38.2392C34.1853 38.1795 34.0972 38.25 34.1853 38.1321C34.153 38.0892 33.5681 37.7157 33.4388 37.6238ZM30.1382 36.8997L29.7752 36.9012L29.565 36.8951L29.7105 35.8909L29.9207 35.8847L29.9574 35.8801L30.1543 35.8985L30.3028 36.8966L30.1382 36.8997Z" fill="white"/>
<path d="M32.6841 20.3463C33.3313 18.7421 32.6077 16.8952 31.0679 16.2209C29.528 15.5467 27.755 16.3005 27.1078 17.9046C26.4605 19.5087 27.1842 21.3557 28.724 22.0299C30.2639 22.7042 32.0369 21.9504 32.6841 20.3463Z" fill="white"/>
<defs>
<filter id="filter0_d_2617_3422" x="0" y="0.666626" width="60" height="70.6666" filterUnits="userSpaceOnUse" color-interpolation-filters="sRGB">
<feFlood flood-opacity="0" result="BackgroundImageFix"/>
<feColorMatrix in="SourceAlpha" type="matrix" values="0 0 0 0 0 0 0 0 0 0 0 0 0 0 0 0 0 0 127 0" result="hardAlpha"/>
<feOffset dy="4"/>
<feGaussianBlur stdDeviation="3"/>
<feComposite in2="hardAlpha" operator="out"/>
<feColorMatrix type="matrix" values="0 0 0 0 0 0 0 0 0 0 0 0 0 0 0 0 0 0 0.15 0"/>
<feBlend mode="normal" in2="BackgroundImageFix" result="effect1_dropShadow_2617_3422"/>
<feBlend mode="normal" in="SourceGraphic" in2="effect1_dropShadow_2617_3422" result="shape"/>
</filter>
</defs>
</svg>
