<svg width="142" height="32" viewBox="0 0 142 32" fill="none" xmlns="http://www.w3.org/2000/svg">
<g clip-path="url(#clip0_2617_3341)">
<path d="M54.9423 14.7749H52.9854C52.8054 14.7749 52.6468 14.66 52.5932 14.4898L52.0488 12.7923H48.5724L48.0151 14.4919C47.9594 14.66 47.8029 14.7749 47.6229 14.7749H45.6554C45.3703 14.7749 45.171 14.4919 45.2696 14.226L48.9625 4.19186C49.0225 4.03019 49.1768 3.92383 49.3483 3.92383H51.3437C51.5173 3.92383 51.6737 4.03232 51.7316 4.19611L55.3302 14.2303C55.4267 14.4941 55.2273 14.7749 54.9423 14.7749ZM49.269 10.414H51.3844L50.3492 7.19764L49.269 10.414Z" fill="#2C2C2C"/>
<path d="M62.7439 8.81434C63.4041 8.98027 63.9142 9.31212 64.2743 9.80563C64.6343 10.2992 64.8144 10.8905 64.8144 11.5755C64.8144 12.4966 64.4886 13.2603 63.837 13.8665C63.1769 14.4728 62.3281 14.777 61.2929 14.777H56.3441C56.1126 14.777 55.924 14.5898 55.924 14.36V4.34077C55.924 4.11102 56.1126 3.92383 56.3441 3.92383H61.0422C62.0581 3.92383 62.8425 4.19399 63.3934 4.73218C63.9549 5.25973 64.2357 5.88727 64.2357 6.61053C64.2357 7.09128 64.0985 7.538 63.822 7.95494C63.5477 8.36975 63.1876 8.65693 62.7439 8.81434ZM60.5235 6.24464H58.6288V8.08045H60.4035C60.7678 8.08045 61.0464 7.99536 61.2393 7.82305C61.4322 7.65287 61.5287 7.42951 61.5287 7.1551C61.5287 6.89983 61.4365 6.68498 61.2543 6.50842C61.0743 6.33186 60.83 6.24464 60.5235 6.24464ZM58.6309 12.4243H60.7014C61.115 12.4243 61.4301 12.3222 61.6487 12.1158C61.8652 11.9095 61.9745 11.6563 61.9745 11.3521C61.9745 11.0394 61.8652 10.7799 61.6487 10.5736C61.4322 10.3672 61.1365 10.2651 60.7614 10.2651H58.6309V12.4243Z" fill="#2C2C2C"/>
<path d="M67.718 14.3664V6.56585H65.0946C64.8674 6.56585 64.6852 6.38291 64.6852 6.15955V4.33013C64.6852 4.10464 64.8696 3.92383 65.0946 3.92383H73.1213C73.3485 3.92383 73.5306 4.10677 73.5306 4.33013V6.15955C73.5306 6.38504 73.3463 6.56585 73.1213 6.56585H70.515V14.3664C70.515 14.5919 70.3307 14.7727 70.1056 14.7727H68.1295C67.9023 14.7749 67.718 14.5919 67.718 14.3664Z" fill="#2C2C2C"/>
<path d="M79.0693 14.9922C77.4425 14.9922 76.0751 14.454 74.9713 13.3776C73.8868 12.3012 73.3445 10.9738 73.3445 9.39755C73.3445 7.82127 73.8911 6.48962 74.9863 5.40473C76.0815 4.31771 77.4361 3.77527 79.0543 3.77527C80.681 3.77527 82.042 4.31771 83.1373 5.40473C84.2325 6.49175 84.779 7.8234 84.779 9.39755C84.779 10.9632 84.2325 12.2906 83.1373 13.3776C82.0528 14.454 80.6982 14.9922 79.0693 14.9922ZM79.0564 12.2757C79.8644 12.2757 80.546 12.0013 81.099 11.4525C81.652 10.9036 81.9284 10.2144 81.9284 9.38266C81.9091 8.54028 81.6219 7.85105 81.0711 7.31286C80.5181 6.76403 79.8473 6.48962 79.0586 6.48962C78.2591 6.48962 77.584 6.76829 77.031 7.32562C76.478 7.87445 76.2015 8.55942 76.2015 9.38053C76.2015 10.2123 76.478 10.9036 77.031 11.4503C77.5818 12.0013 78.257 12.2757 79.0564 12.2757Z" fill="#2C2C2C"/>
<path d="M99.2655 14.7749H85.872C85.6491 14.7749 85.4669 14.594 85.4669 14.3728V4.32588C85.4669 4.10464 85.6491 3.92383 85.872 3.92383H87.8439C88.0668 3.92383 88.2489 4.10464 88.2489 4.32588V12.1477H91.1788V4.32588C91.1788 4.10464 91.361 3.92383 91.5839 3.92383H93.5558C93.7787 3.92383 93.9608 4.10464 93.9608 4.32588V12.1477H96.8757V4.32588C96.8757 4.10464 97.0579 3.92383 97.2808 3.92383H99.2676C99.4905 3.92383 99.6727 4.10464 99.6727 4.32588V14.3728C99.6706 14.594 99.4906 14.7749 99.2655 14.7749Z" fill="#2C2C2C"/>
<path d="M110.274 14.7741H107.58C107.482 14.7741 107.392 14.723 107.34 14.64L104.997 10.8684L103.814 12.2937V14.4954C103.814 14.6507 103.688 14.7762 103.531 14.7762H101.33C101.174 14.7762 101.047 14.6507 101.047 14.4954V4.20382C101.047 4.04853 101.174 3.92303 101.33 3.92303H103.531C103.688 3.92303 103.814 4.04853 103.814 4.20382V8.38596L107.177 4.03151C107.231 3.96132 107.314 3.9209 107.402 3.9209H110.026C110.261 3.9209 110.394 4.19106 110.249 4.374L106.819 8.72207L110.514 14.338C110.634 14.5273 110.499 14.7741 110.274 14.7741Z" fill="#2C2C2C"/>
<path d="M115.382 14.9514C113.755 14.9514 112.387 14.4132 111.284 13.3368C110.199 12.2605 109.657 10.9331 109.657 9.35678C109.657 7.7805 110.203 6.44885 111.299 5.36396C112.394 4.27694 113.748 3.7345 115.367 3.7345C116.993 3.7345 118.354 4.27694 119.449 5.36396C120.545 6.45098 121.091 7.78263 121.091 9.35678C121.091 10.9224 120.545 12.2498 119.449 13.3368C118.365 14.4132 117.01 14.9514 115.382 14.9514ZM115.367 12.2349C116.175 12.2349 116.856 11.9605 117.409 11.4117C117.962 10.8629 118.239 10.1736 118.239 9.34189C118.219 8.4995 117.932 7.81028 117.381 7.27209C116.828 6.72326 116.157 6.44885 115.369 6.44885C114.569 6.44885 113.894 6.72752 113.341 7.28485C112.788 7.83368 112.512 8.51865 112.512 9.33976C112.512 10.1715 112.788 10.8629 113.341 11.4096C113.892 11.9605 114.569 12.2349 115.367 12.2349Z" fill="#2C2C2C"/>
<path d="M123.138 14.7742H121.042C120.757 14.7742 120.556 14.4955 120.65 14.2275L124.15 4.20183C124.208 4.03591 124.366 3.92529 124.542 3.92529H127.024C127.202 3.92529 127.361 4.03804 127.419 4.20609L130.809 14.2317C130.899 14.4998 130.7 14.7763 130.415 14.7763H128.314C128.13 14.7763 127.967 14.6551 127.916 14.4806L125.77 7.27356L123.537 14.4849C123.481 14.6551 123.321 14.7742 123.138 14.7742Z" fill="#2C2C2C"/>
<path d="M141.216 14.7749H139.242C139.067 14.7749 138.91 14.6621 138.859 14.4962L138.312 12.7923H134.836L134.276 14.4983C134.223 14.6621 134.066 14.7749 133.893 14.7749H131.908C131.627 14.7749 131.432 14.4983 131.529 14.2367L135.228 4.18761C135.286 4.03019 135.438 3.92383 135.607 3.92383H137.616C137.787 3.92383 137.939 4.03019 137.995 4.18973L141.598 14.2388C141.69 14.5004 141.495 14.7749 141.216 14.7749ZM135.53 10.414H137.646L136.611 7.19764L135.53 10.414Z" fill="#2C2C2C"/>
<path d="M45.1914 19.5442C45.1914 19.3038 45.3864 19.1102 45.6286 19.1102H49.5401C50.9311 19.1102 51.9621 19.4719 52.6329 20.1972C53.3145 20.912 53.6531 21.8076 53.6531 22.8839C53.6531 23.9518 53.3038 24.8325 52.6029 25.526C51.9128 26.2109 50.8283 26.5534 49.3472 26.5534H47.9562V29.5273C47.9562 29.7677 47.7612 29.9613 47.519 29.9613H45.6265C45.3843 29.9613 45.1892 29.7677 45.1892 29.5273V19.5442H45.1914ZM47.9584 24.088H49.4823C49.9066 24.088 50.2346 23.9731 50.466 23.7433C50.6975 23.5136 50.8133 23.2179 50.8133 22.8542C50.8133 22.501 50.6975 22.2075 50.466 21.9735C50.2346 21.7395 49.9259 21.6204 49.5423 21.6204H47.9584V24.088Z" fill="#2C2C2C"/>
<path d="M62.2172 29.9609H55.1443C54.9192 29.9609 54.7371 29.7801 54.7371 29.5567V19.514C54.7371 19.2907 54.9192 19.1099 55.1443 19.1099H62.23C62.4551 19.1099 62.6373 19.2907 62.6373 19.514V21.2477C62.6373 21.4711 62.4551 21.6519 62.23 21.6519H57.5169V23.2516H61.8442C62.0693 23.2516 62.2515 23.4324 62.2515 23.6558V25.3746C62.2515 25.5979 62.0693 25.7787 61.8442 25.7787H57.5169V27.4231H62.215C62.4401 27.4231 62.6223 27.6039 62.6223 27.8273V29.561C62.6244 29.7801 62.4422 29.9609 62.2172 29.9609Z" fill="#2C2C2C"/>
<path d="M73.5041 29.9616H71.2922C71.1636 29.9616 71.0521 29.8786 71.0135 29.7595L70.4434 27.979H66.967L66.3819 29.7595C66.3433 29.8786 66.2297 29.9594 66.1032 29.9594H63.8806C63.677 29.9594 63.5356 29.7595 63.6063 29.568L67.3871 19.2998C67.4299 19.185 67.5392 19.1084 67.6614 19.1084H69.824C69.9483 19.1084 70.0576 19.185 70.1005 19.302L73.7827 29.5701C73.8491 29.7637 73.7077 29.9616 73.5041 29.9616ZM67.6614 25.6007H69.7769L68.7416 22.3843L67.6614 25.6007Z" fill="#2C2C2C"/>
<path d="M77.2892 29.9609H75.1395C74.8694 29.9609 74.6808 29.6971 74.7687 29.444L78.2837 19.3715C78.3373 19.2141 78.4873 19.1099 78.6545 19.1099H81.1707C81.34 19.1099 81.4879 19.2162 81.5415 19.3758L84.9472 29.4482C85.0329 29.6992 84.8443 29.9609 84.5764 29.9609H82.4246C82.2509 29.9609 82.0988 29.8481 82.0495 29.6822L79.8976 22.4581L77.66 29.6865C77.6128 29.8503 77.4607 29.9609 77.2892 29.9609Z" fill="#2C2C2C"/>
<path fill-rule="evenodd" clip-rule="evenodd" d="M6.28038 13.8978C6.48828 14.2679 6.86764 14.4275 7.29202 14.5913C8.14719 14.9295 7.92429 15.0657 8.22435 15.3486C8.61014 15.2124 8.80304 14.7785 9.04523 14.6508L9.24027 14.4615C9.96042 14.002 11.0621 14.6934 11.5936 15.1252C13.7433 16.8802 15.3015 19.7435 15.3444 22.6556C16.5704 23.4023 18.225 23.3725 19.4552 22.679C19.5195 20.405 20.3811 18.3203 21.7207 16.6824C22.3916 15.8612 24.1919 13.8574 25.4393 14.3892C25.9387 14.6019 26.0995 15.2082 26.5989 15.3507C26.6567 15.2933 26.6267 15.3273 26.6846 15.2486C26.7146 15.2039 26.7382 15.1614 26.7703 15.1146C26.8453 15.0018 26.8818 14.9636 26.9739 14.8891C27.5162 14.4573 27.5055 14.8402 28.5557 13.9552C28.5835 13.4192 28.2856 12.0173 28.082 11.4323C28.0241 11.2664 28.0091 11.2345 27.9213 11.1324C26.2345 11.026 23.2725 11.3324 21.6628 11.7621C18.0857 12.7129 18.2807 14.4892 17.3848 14.4637C16.4418 14.4381 16.6582 12.3471 11.7458 11.4685C11.21 11.3728 10.672 11.3621 10.1512 11.2813C9.40317 11.1622 7.65852 11.0601 6.82906 11.1388C6.70689 11.6323 6.13035 13.349 6.28038 13.8978Z" fill="#4F8FFD"/>
<path fill-rule="evenodd" clip-rule="evenodd" d="M17.4383 27.012C19.4273 27.0057 21.5191 26.4887 22.9701 25.4996C23.2809 25.2868 23.6881 25.1273 23.3881 24.6317C22.968 23.9403 22.7687 23.5766 22.4729 22.7108C21.9628 22.5853 21.2919 23.5212 20.2503 23.3723C19.5901 23.2766 20.0145 22.6406 19.1915 23.1766C19.0179 23.2915 18.9129 23.3426 18.69 23.4255C18.2506 23.5914 17.9612 23.6659 17.4426 23.668C16.0066 23.6744 15.4279 22.932 15.2178 22.9511C15.0999 22.9618 14.6198 23.8765 13.0852 22.9682C12.8452 22.8256 12.693 22.6703 12.4101 22.6831C12.2729 22.9086 12.1143 23.3745 11.9814 23.6531C11.4285 24.8252 10.9698 24.989 11.8078 25.4889C13.5075 26.5143 15.2585 27.0142 17.4383 27.012Z" fill="#FF941F"/>
<path fill-rule="evenodd" clip-rule="evenodd" d="M7.92883 10.8963C8.47109 9.79654 12.5005 11.0474 13.39 11.3409C14.4788 11.7025 15.7819 12.5322 16.5192 13.3682C17.8887 14.9232 17.13 14.2127 19.1704 12.5662C20.8208 11.2367 23.5406 10.5815 25.6453 10.4879C26.3826 10.4539 26.5112 10.4305 26.9163 10.9048H27.3107L27.3471 9.62849C24.0464 9.36259 20.3085 10.2475 18.2317 12.8513C18.0259 13.1065 17.7108 13.7149 17.3851 13.7787C17.1793 13.7575 16.4677 12.5917 15.7262 11.9387C13.5507 10.0284 10.5201 9.47108 7.48946 9.62211C7.45516 9.89014 7.47874 10.1667 7.4766 10.4411C7.4766 10.9623 7.4423 10.9112 7.92883 10.8963Z" fill="#FF941F"/>
<path fill-rule="evenodd" clip-rule="evenodd" d="M22.7136 22.5109C22.735 22.8789 23.4316 24.3552 23.6331 24.5999C24.2482 24.5722 26.0143 22.4556 26.3958 21.9706C26.9273 21.2963 28.0354 19.2392 28.1683 18.3033C28.0397 18.316 26.5544 18.9585 26.7708 17.5524C26.2393 17.3226 26.3872 17.2184 26.2264 16.8844C26.0978 17.1056 26.0743 17.4736 25.9864 17.7608C25.8771 18.1076 25.8042 18.2948 25.6863 18.6011C25.4677 19.1776 25.2148 19.6222 24.8955 20.1412C24.3725 20.9963 23.4466 22.0068 22.7136 22.5109Z" fill="#4F8FFD"/>
<path fill-rule="evenodd" clip-rule="evenodd" d="M8.06003 17.574C8.17577 18.6695 7.43205 18.4568 6.70761 18.3568C6.81906 19.4119 7.93572 21.2945 8.4694 22.0433C8.89806 22.6453 10.6963 24.596 11.1914 24.6258C11.38 24.3216 12.0873 22.8538 12.1087 22.5092C10.5827 21.486 9.4446 19.6417 8.86377 17.842C8.78661 17.6016 8.68802 17.0996 8.59586 16.9252C8.51441 17.0741 8.55513 17.1634 8.41368 17.3272C8.29365 17.4761 8.19292 17.4761 8.06003 17.574Z" fill="#4F8FFD"/>
<path fill-rule="evenodd" clip-rule="evenodd" d="M8.63434 9.41985C9.43593 9.47303 8.90654 9.16033 10.0939 9.31349C12.7195 9.64959 15.42 10.8132 16.9611 13.0744C17.3811 13.6935 17.439 13.6892 17.8162 13.1319C18.142 12.6511 18.5621 12.1704 18.9629 11.8045C19.608 11.211 20.1074 10.9047 20.9069 10.4643C21.5091 10.1367 22.5486 9.73256 23.2731 9.58365C26.4302 8.92846 25.1292 9.52409 26.1837 9.41134V8.72212C24.5633 8.56896 22.3236 9.26031 20.9197 10.0389C20.0153 10.543 18.3863 11.8279 17.7884 12.7149C17.6491 12.9234 17.6148 13.0936 17.3876 13.1893C17.2633 13.1 16.9503 12.5958 16.6696 12.2767C16.4124 11.981 16.0652 11.6577 15.8358 11.4407C14.0483 9.7751 11.1806 8.57534 8.63863 8.71148L8.63434 9.41985Z" fill="#FF941F"/>
<path fill-rule="evenodd" clip-rule="evenodd" d="M27.0295 15.9268C26.8687 16.1821 26.5687 16.2438 26.4979 16.6544C26.38 17.3159 26.8923 17.1245 27.023 17.3564C27.1388 17.5712 26.678 18.1158 27.3338 18.1753C27.7196 18.2094 28.1247 18.0264 28.354 17.8031C28.7891 17.3776 28.4419 17.0479 28.5405 16.7331C28.5962 16.5565 28.6927 16.4991 28.7463 16.2396C28.8106 15.929 28.7613 15.8566 28.712 15.5801C28.6348 15.1547 29.0185 15.0121 28.8598 14.408C28.7055 13.8081 28.3347 14.3655 28.0497 14.5207C27.7003 14.7101 26.9802 14.8675 26.8601 15.3887C26.7787 15.7503 26.933 15.7056 27.0295 15.9268Z" fill="#FF941F"/>
<path fill-rule="evenodd" clip-rule="evenodd" d="M8.29919 17.0578C8.38921 16.1707 8.01627 16.3601 7.78051 15.9261C7.86624 15.7134 7.9284 15.8134 7.96055 15.59C8.05914 14.9178 6.98106 14.6753 6.66171 14.4732C6.3938 14.3009 6.37236 14.0988 6.07873 14.1201C6.023 14.3137 5.92227 14.4136 5.9287 14.7221C5.93727 15.0816 6.09159 15.1667 6.11945 15.3837C6.14946 15.6134 6.00586 15.7751 6.05515 16.1431C6.08945 16.4154 6.22447 16.5409 6.26734 16.76C6.37236 17.3216 5.993 17.5343 6.68314 17.9661C7.12037 18.2384 7.47402 18.2937 7.85124 17.9576C7.87053 17.6917 7.72693 17.4726 7.82981 17.3216C7.97341 17.1642 7.89839 17.2812 8.09557 17.2024C8.31848 17.1152 8.18345 17.1535 8.29919 17.0578Z" fill="#FF941F"/>
<path fill-rule="evenodd" clip-rule="evenodd" d="M34.9621 9.93686C34.8764 9.6582 34.5163 7.24378 34.6192 6.73325C34.6578 6.5418 34.7928 6.3312 34.8099 6.20569C34.9214 5.29736 31.9015 6.28653 30.8127 8.66903C30.1054 10.2155 30.474 12.0173 30.2919 13.9446C29.7518 19.6924 27.5892 23.9085 22.8568 26.5272L20.9578 27.4504C21.0071 27.8099 22.1195 28.9161 22.3402 29.1181C22.6896 29.4351 23.7655 30.2775 24.192 30.3945C24.4535 30.4626 25.881 29.4947 26.1553 29.2883C27.2419 28.4736 28.6994 27.3377 29.8225 26.7293C31.0892 26.0422 32.3087 24.9211 32.8445 23.5001C32.9688 23.1704 33.1725 22.6045 33.0181 22.1663C32.806 21.5835 32.373 21.9579 32.0151 21.743C31.9529 21.3537 32.2208 21.0368 32.4309 20.8155C33.2475 19.9413 33.539 19.6753 34.0041 18.2692C34.2398 17.5587 34.3898 16.8376 34.4799 16.0271C34.7135 13.9403 33.8112 14.3424 33.6697 14.119C33.5647 13.6361 33.9119 13.4447 34.1412 13.2064C34.7692 12.5704 34.7606 12.1662 34.9235 11.5514C34.9728 11.3387 35.0521 10.2304 34.9621 9.93686ZM21.9823 27.6738C21.9952 27.6652 22.008 27.6482 22.0123 27.644C22.0209 27.6376 22.0359 27.6227 22.0444 27.6163L23.9541 26.574C24.5457 26.2187 25.2037 25.7805 25.7181 25.3253C26.6997 24.4595 27.7435 23.281 28.5301 22.0408C29.9489 19.8072 30.7398 17.9757 31.0142 15.289C31.0763 14.7019 31.1256 12.898 31.3099 12.5363C31.745 12.5023 31.7772 13.3319 31.7965 13.6723C31.8951 15.5847 31.5821 17.4737 30.8641 19.1903C29.8868 21.5239 27.9985 23.9617 26.0996 25.4955C25.2551 26.1826 23.0025 27.6397 21.9823 27.6738ZM29.7517 25.2296C28.6908 26.3698 26.6204 27.6227 25.2422 28.2353C24.9422 28.3694 23.3154 29.0245 23.0839 28.9309C23.1332 28.7544 23.0604 28.8884 23.2876 28.7969L24.1084 28.4885C25.9667 27.6886 27.2077 26.9569 28.7058 25.572C29.2052 25.1062 29.9232 24.1957 30.3026 24.217C30.3604 24.6744 29.9768 24.9849 29.7517 25.2296ZM31.9958 24.0426C31.7536 24.4574 31.1878 25.304 30.7119 25.37C30.7505 24.8913 31.6786 23.9256 31.2456 23.347C31.1106 23.1661 30.4462 23.0832 30.9906 22.6194C31.2092 22.4322 31.5671 22.2599 31.9251 22.328C32.7824 22.4961 32.2466 23.615 31.9958 24.0426ZM30.7334 22.2982C29.3917 24.2042 27.8142 25.8273 25.8509 27.0058C25.1715 27.4121 23.3862 28.3226 22.5224 28.3736C22.8996 28.0694 23.6412 27.8524 24.1513 27.6014C27.9642 25.7316 29.6103 23.1385 31.5028 19.5264C31.6507 19.2435 31.7322 18.9053 32.0472 18.8989C32.3237 19.7455 31.1213 21.7473 30.7334 22.2982ZM33.7297 16.9546C33.6075 17.5162 33.2067 18.6521 32.6795 18.733C32.6431 18.1544 33.2989 16.7504 32.7652 16.2867C32.5123 16.0633 31.8951 16.3313 32.2808 15.523C32.6323 14.7785 34.3213 14.2424 33.7297 16.9546ZM34.1026 10.7176C34.0405 11.3345 33.6526 12.6704 32.9688 12.6172C32.9088 12.3002 33.1403 11.694 33.1489 11.2132C33.1896 9.33911 32.2444 9.53269 31.8779 10.156C31.7279 10.4134 31.565 11.0281 31.2242 11.026C30.6948 9.82412 32.6281 6.60349 33.5818 8.1436C33.9483 8.73285 34.1948 9.81136 34.1026 10.7176Z" fill="#FF941F"/>
<path fill-rule="evenodd" clip-rule="evenodd" d="M11.7953 26.4336C6.34708 23.3045 4.45883 18.0821 4.44812 11.4281C4.44812 10.7219 4.46312 10.3368 4.34952 9.68378C4.04946 7.93094 2.28553 6.16534 0.590178 5.89092C-0.427889 5.725 0.172235 6.43975 0.208671 6.92476C0.26011 7.61186 0.4873 8.74142 0.392994 9.51148C0.332982 10.005 0.264397 9.81993 0.264397 10.4645C0.264397 10.4645 0.161518 12.1514 0.558029 12.7598C0.718776 13.0065 0.742352 13.1512 0.941679 13.3384C1.14101 13.5298 1.29961 13.6936 1.22031 14.1148C1.03813 14.4041 0.341555 13.8638 0.341555 15.5422C0.341555 17.1163 1.00169 19.3478 2.03476 20.4391C2.25552 20.6752 2.97781 21.2793 2.81707 21.741C2.63489 21.9707 1.23102 21.307 1.97046 23.464C2.42913 24.7935 3.72154 26.0486 4.97108 26.7102C6.42852 27.4802 7.35443 28.3843 8.65541 29.2586C8.9962 29.4926 10.3379 30.4456 10.5972 30.4009C10.9873 30.3329 12.1618 29.4011 12.4619 29.1416C12.7384 28.9012 13.8079 27.7951 13.8679 27.4483C13.8486 27.4377 12.1554 26.6421 11.7953 26.4336ZM0.727349 10.7559C0.590178 9.90502 0.967399 7.2013 2.21694 7.83096C3.12999 8.29257 4.01088 10.339 3.56508 11.0112C3.05283 10.9325 3.09998 9.86247 2.44199 9.73909C1.72827 9.60295 1.64039 10.6283 1.66397 11.2664C1.67897 11.6813 1.76256 11.9259 1.85687 12.2641C2.06691 13.0193 1.03384 12.664 0.727349 10.7559ZM2.04333 16.2676C1.53966 17.1036 2.18694 17.9311 2.13978 18.7288C1.24817 18.6224 0.163662 14.6594 1.814 14.9466C2.31768 15.0359 2.66275 15.4465 2.63489 16.0676C2.27481 16.3144 2.50629 16.1485 2.04333 16.2676ZM2.9821 22.36C3.48792 22.3323 4.0066 22.5174 4.0066 23.0811C3.78155 23.2236 3.20715 23.3172 3.5908 24.2405C3.71296 24.5361 4.10733 25.1509 4.13734 25.3551C3.43434 25.3998 1.47107 22.4366 2.9821 22.36ZM4.49527 24.2362C4.83605 24.1447 5.1254 24.5851 5.35473 24.8276C6.89576 26.4528 8.58897 27.6121 10.6573 28.4524C10.9252 28.563 11.4481 28.7332 11.6667 28.8778C10.01 28.9246 4.36024 25.5062 4.49527 24.2362ZM8.93833 26.9867C7.07366 25.8423 5.26471 24.0915 4.0859 22.3025C3.66153 21.6559 2.57702 19.9094 2.74634 18.916C3.07855 18.8628 3.19857 19.2882 3.31645 19.5393C3.64438 20.2327 4.19521 21.1496 4.58314 21.8367C5.89056 24.1426 8.25462 26.5634 10.7023 27.6228C11.1245 27.8057 12.0011 28.1375 12.2969 28.3737C11.4438 28.3418 9.67348 27.4377 8.93833 26.9867ZM8.70042 25.4785C6.63214 23.849 4.20164 20.5688 3.49435 17.9289C3.14285 16.5994 2.88779 15.004 3.02068 13.5936C3.05712 13.2214 3.07641 12.5236 3.50721 12.53C3.893 13.5426 3.29073 17.7247 6.29135 22.0494C9.60275 26.8208 11.9368 26.8655 12.837 27.6759C11.7868 27.644 9.57917 26.1741 8.70042 25.4785Z" fill="#FF941F"/>
<path fill-rule="evenodd" clip-rule="evenodd" d="M25.8555 14.8512C25.1525 15.1724 25.2725 16.5253 26.1213 16.5253C26.4299 16.5253 26.9593 16.0084 26.2091 15.232C26.1491 15.1703 26.1148 15.1341 26.057 15.0618C25.9112 14.8874 26.0334 14.9746 25.8555 14.8512Z" fill="#FF941F"/>
<path fill-rule="evenodd" clip-rule="evenodd" d="M9.1787 16.3623C9.21728 16.2602 9.28158 16.2304 9.34373 16.0986C9.40803 15.9603 9.42518 15.8433 9.42304 15.6497C9.41661 15.1753 9.22371 15.1775 9.1787 14.9435C9.11011 14.9094 9.04367 14.8903 8.96651 14.8541C8.80148 14.9733 8.91722 14.8839 8.79076 15.0349C8.73075 15.103 8.6986 15.1434 8.64073 15.2051C8.52285 15.3349 8.43283 15.4008 8.35996 15.5221C8.26137 15.6859 7.96559 16.8303 9.1787 16.3623Z" fill="#FF941F"/>
<path fill-rule="evenodd" clip-rule="evenodd" d="M22.5165 30.0819C21.8242 29.6203 21.2176 28.9247 20.7247 28.2674C20.4696 27.9249 20.2531 27.3463 20.0324 27.0932C19.6252 27.0804 19.2887 27.2442 18.815 27.2825C17.5097 27.3803 17.4304 27.374 16.1659 27.2953C14.4791 27.191 15.0599 26.6124 14.4277 27.7313C14.2755 27.9972 14.1104 28.244 13.909 28.5035C13.4739 29.0672 13.2017 29.3204 12.6659 29.7948C12.0207 30.3712 11.7078 30.4159 11.3349 30.6669C11.1163 30.8137 11.2406 30.6435 11.1891 30.852C11.8493 31.1115 12.6873 31.2817 13.4482 31.4646C13.8147 31.5519 14.2755 31.6625 14.6334 31.6986C16.0909 31.8412 15.4414 31.9114 15.8508 31.9943C16.1852 31.5795 16.5024 30.4308 16.6438 30.2393L18.127 30.2351C18.2642 30.267 18.2192 30.2883 18.352 30.6627C18.6157 31.4029 18.5964 31.22 18.8621 31.7731L18.9736 31.9943C19.443 31.8858 18.5835 31.8965 20.0988 31.6859C20.9454 31.5667 22.525 31.2051 23.3481 30.9371C23.6053 30.8541 23.4767 30.952 23.6053 30.7882C23.5581 30.7286 22.7051 30.2096 22.5165 30.0819ZM17.7026 29.0757L17.1732 29.0779L16.8667 29.0694L17.0789 27.6739L17.3854 27.6654L17.439 27.659L17.7262 27.6845L17.9427 29.0715L17.7026 29.0757Z" fill="#4F8FFD"/>
<path d="M21.4149 6.07259C22.3589 3.8436 21.3036 1.27714 19.0577 0.340236C16.8119 -0.596669 14.2261 0.45077 13.2821 2.67976C12.3381 4.90875 13.3935 7.47521 15.6393 8.41211C17.8851 9.34902 20.4709 8.30158 21.4149 6.07259Z" fill="#FF941F"/>
<path d="M90.0475 21.37C90.0389 21.4295 90.0346 21.4976 90.0346 21.5763C90.0346 21.655 90.0389 21.7231 90.0475 21.7826C90.0603 21.9039 90.0861 22.0081 90.1311 22.0953C90.1739 22.1826 90.2297 22.2506 90.294 22.3038C90.3583 22.357 90.4311 22.3953 90.5104 22.4208C90.5897 22.4463 90.6712 22.4591 90.7548 22.4591C90.8534 22.4591 90.937 22.4506 91.0034 22.4357C91.0698 22.4208 91.1277 22.3974 91.1749 22.3676C91.222 22.3378 91.2627 22.3038 91.297 22.2676C91.3313 22.2315 91.3635 22.1889 91.3956 22.1421C91.4192 22.106 91.4471 22.0719 91.4792 22.0358C91.5114 21.9996 91.5478 21.9826 91.5928 21.9826H92.045C92.0879 21.9826 92.1265 21.9975 92.1608 22.0294C92.1951 22.0613 92.2101 22.0975 92.2058 22.1421C92.2015 22.2251 92.1715 22.3251 92.1158 22.4421C92.06 22.5591 91.9743 22.6718 91.8564 22.7803C91.7407 22.8888 91.5907 22.9803 91.4085 23.0547C91.2263 23.1292 91.0077 23.1675 90.7548 23.1675C90.5362 23.1675 90.3411 23.1313 90.1675 23.059C89.9939 22.9867 89.8417 22.8888 89.7131 22.7654C89.5845 22.642 89.4838 22.4974 89.4109 22.3357C89.3381 22.1719 89.293 22.0017 89.278 21.8209C89.2695 21.7507 89.2652 21.672 89.2652 21.5848C89.2652 21.4976 89.2695 21.4189 89.278 21.3444C89.2909 21.1636 89.3338 20.9913 89.4088 20.8254C89.4838 20.6595 89.5845 20.5169 89.711 20.3914C89.8374 20.268 89.9896 20.1702 90.1654 20.0979C90.3411 20.0255 90.5383 19.9894 90.7569 19.9894C91.0098 19.9894 91.2284 20.0277 91.4106 20.1021C91.5928 20.1766 91.7428 20.268 91.8586 20.3765C91.9743 20.485 92.0622 20.5978 92.1179 20.7148C92.1736 20.8318 92.2036 20.9317 92.2079 21.0147C92.2122 21.0573 92.1972 21.0955 92.1629 21.1275C92.1286 21.1594 92.09 21.1742 92.0472 21.1742H91.5949C91.5521 21.1742 91.5135 21.1572 91.4814 21.1211C91.4492 21.0849 91.4213 21.0509 91.3978 21.0147C91.3656 20.9679 91.3335 20.9254 91.2992 20.8871C91.2649 20.8488 91.2242 20.8169 91.177 20.7871C91.1298 20.7573 91.072 20.736 91.0055 20.719C90.9391 20.7041 90.8555 20.6956 90.7569 20.6956C90.6733 20.6956 90.5919 20.7084 90.5126 20.7339C90.4333 20.7594 90.3604 20.7977 90.2961 20.8509C90.2318 20.9041 90.1761 20.9743 90.1332 21.0594C90.0861 21.1445 90.0582 21.2487 90.0475 21.37Z" fill="#2C2C2C"/>
<path d="M92.5456 21.5755C92.5456 21.3564 92.5799 21.1479 92.6464 20.9543C92.7128 20.7608 92.8114 20.5906 92.9378 20.4481C93.0643 20.3055 93.2186 20.1928 93.3986 20.1098C93.5787 20.0269 93.7802 19.9865 94.0009 19.9865C94.2217 19.9865 94.4231 20.0269 94.6032 20.1077C94.7832 20.1885 94.9375 20.297 95.064 20.431C95.1904 20.5672 95.289 20.7246 95.3576 20.9075C95.4262 21.0905 95.4605 21.2819 95.4605 21.4819V21.7478C95.4605 21.7903 95.4455 21.8286 95.4134 21.8605C95.3812 21.8925 95.3448 21.9073 95.2998 21.9073H93.3172C93.3172 21.9967 93.3365 22.0775 93.3729 22.1456C93.4115 22.2137 93.4608 22.2732 93.5251 22.32C93.5873 22.3668 93.6623 22.403 93.7459 22.4264C93.8295 22.4498 93.913 22.4626 94.0009 22.4626C94.1274 22.4626 94.2302 22.4498 94.3095 22.4243C94.3888 22.3987 94.4531 22.3668 94.5046 22.3264C94.5475 22.2945 94.5839 22.2732 94.6118 22.2626C94.6396 22.2498 94.6761 22.2456 94.7253 22.2456H95.2012C95.244 22.2456 95.2826 22.2605 95.3169 22.2924C95.3512 22.3243 95.3662 22.3604 95.3619 22.4051C95.3576 22.4604 95.3276 22.5306 95.2697 22.6178C95.2119 22.7051 95.1261 22.788 95.0125 22.871C94.8968 22.9539 94.7554 23.0241 94.5882 23.0837C94.4189 23.1433 94.226 23.173 94.0031 23.173C93.7802 23.173 93.5808 23.1348 93.4008 23.0582C93.2208 22.9816 93.0664 22.8731 92.94 22.7306C92.8135 22.5902 92.7171 22.4221 92.6485 22.2264C92.5778 22.0265 92.5456 21.8116 92.5456 21.5755ZM93.9988 20.6927C93.883 20.6927 93.7866 20.7097 93.7051 20.7437C93.6237 20.7778 93.5551 20.8203 93.4994 20.8735C93.4437 20.9267 93.4008 20.9863 93.3708 21.0501C93.3408 21.1139 93.3215 21.1777 93.3151 21.2351H94.6568C94.6482 21.1756 94.6332 21.1139 94.6118 21.0501C94.5903 20.9863 94.5539 20.9267 94.5046 20.8735C94.4553 20.8203 94.3888 20.7778 94.3095 20.7437C94.2302 20.7097 94.1252 20.6927 93.9988 20.6927Z" fill="#2C2C2C"/>
<path d="M98.4866 20.0439C98.5295 20.0439 98.568 20.0588 98.6002 20.0907C98.6323 20.1226 98.6473 20.1587 98.6473 20.2034V20.5927C98.6473 20.6352 98.6323 20.6735 98.6002 20.7054C98.568 20.7374 98.5316 20.7522 98.4866 20.7522H97.5135V22.9497C97.5135 22.9922 97.4985 23.0305 97.4664 23.0624C97.4342 23.0943 97.3978 23.1092 97.3528 23.1092H96.9027C96.8598 23.1092 96.8212 23.0943 96.7891 23.0624C96.7569 23.0305 96.7419 22.9944 96.7419 22.9497V20.7501H95.7689C95.726 20.7501 95.6874 20.7352 95.6553 20.7033C95.6231 20.6714 95.6081 20.6352 95.6081 20.5906V20.2013C95.6081 20.1587 95.6231 20.1205 95.6553 20.0885C95.6874 20.0566 95.7239 20.0417 95.7689 20.0417H98.4866V20.0439Z" fill="#2C2C2C"/>
<path d="M101.704 21.9188C101.704 22.0953 101.672 22.257 101.606 22.4059C101.541 22.5527 101.449 22.6782 101.336 22.7824C101.22 22.8867 101.083 22.9675 100.92 23.0249C100.757 23.0824 100.579 23.11 100.386 23.11H99.1645C99.1216 23.11 99.0831 23.0951 99.0509 23.0632C99.0188 23.0313 99.0038 22.9952 99.0038 22.9505V20.2042C99.0038 20.1617 99.0188 20.1234 99.0509 20.0915C99.0831 20.0596 99.1195 20.0447 99.1645 20.0447H99.6146C99.6575 20.0447 99.696 20.0596 99.7282 20.0915C99.7603 20.1234 99.7753 20.1595 99.7753 20.2042V20.7296H100.386C100.579 20.7296 100.759 20.7573 100.92 20.8147C101.083 20.8722 101.22 20.953 101.336 21.0572C101.451 21.1615 101.541 21.287 101.606 21.4338C101.67 21.5805 101.704 21.7422 101.704 21.9188ZM99.7753 22.4017H100.285C100.384 22.4017 100.474 22.3953 100.556 22.3804C100.637 22.3676 100.708 22.3421 100.766 22.3059C100.826 22.2698 100.871 22.2208 100.903 22.1591C100.935 22.0975 100.95 22.0166 100.95 21.9166C100.95 21.8188 100.935 21.738 100.903 21.6741C100.871 21.6124 100.826 21.5614 100.766 21.5274C100.706 21.4912 100.637 21.4678 100.556 21.4529C100.474 21.438 100.384 21.4316 100.285 21.4316H99.7753V22.4017Z" fill="#2C2C2C"/>
<path d="M103.972 21.37C103.963 21.4295 103.959 21.4976 103.959 21.5763C103.959 21.655 103.963 21.7231 103.972 21.7826C103.985 21.9039 104.01 22.0081 104.055 22.0953C104.098 22.1826 104.154 22.2506 104.218 22.3038C104.283 22.357 104.356 22.3953 104.435 22.4208C104.514 22.4463 104.596 22.4591 104.679 22.4591C104.778 22.4591 104.861 22.4506 104.928 22.4357C104.994 22.4208 105.052 22.3974 105.099 22.3676C105.146 22.3378 105.187 22.3038 105.221 22.2676C105.256 22.2315 105.288 22.1889 105.32 22.1421C105.344 22.106 105.371 22.0719 105.404 22.0358C105.436 21.9996 105.472 21.9826 105.517 21.9826H105.969C106.012 21.9826 106.051 21.9975 106.085 22.0294C106.119 22.0613 106.134 22.0975 106.13 22.1421C106.126 22.2251 106.096 22.3251 106.04 22.4421C105.984 22.5591 105.899 22.6718 105.781 22.7803C105.665 22.8888 105.515 22.9803 105.333 23.0547C105.151 23.1292 104.932 23.1675 104.679 23.1675C104.461 23.1675 104.266 23.1313 104.092 23.059C103.918 22.9867 103.766 22.8888 103.638 22.7654C103.509 22.642 103.408 22.4974 103.335 22.3357C103.262 22.1719 103.217 22.0017 103.202 21.8209C103.194 21.7507 103.19 21.672 103.19 21.5848C103.19 21.4976 103.194 21.4189 103.202 21.3444C103.215 21.1636 103.258 20.9913 103.333 20.8254C103.408 20.6595 103.509 20.5169 103.635 20.3914C103.762 20.268 103.914 20.1702 104.09 20.0979C104.266 20.0255 104.463 19.9894 104.681 19.9894C104.934 19.9894 105.153 20.0277 105.335 20.1021C105.517 20.1766 105.667 20.268 105.783 20.3765C105.899 20.485 105.987 20.5978 106.042 20.7148C106.098 20.8318 106.128 20.9317 106.132 21.0147C106.137 21.0573 106.122 21.0955 106.087 21.1275C106.053 21.1594 106.014 21.1742 105.972 21.1742H105.519C105.477 21.1742 105.438 21.1572 105.406 21.1211C105.374 21.0849 105.346 21.0509 105.322 21.0147C105.29 20.9679 105.258 20.9254 105.224 20.8871C105.189 20.8488 105.149 20.8169 105.101 20.7871C105.054 20.7573 104.996 20.736 104.93 20.719C104.864 20.7041 104.78 20.6956 104.681 20.6956C104.598 20.6956 104.516 20.7084 104.437 20.7339C104.358 20.7594 104.285 20.7977 104.221 20.8509C104.156 20.9041 104.101 20.9743 104.058 21.0594C104.013 21.1445 103.985 21.2487 103.972 21.37Z" fill="#2C2C2C"/>
<path d="M107.986 19.985C108.203 19.985 108.4 20.019 108.578 20.085C108.754 20.1509 108.906 20.2445 109.034 20.3615C109.163 20.4785 109.266 20.6168 109.343 20.7742C109.42 20.9316 109.465 21.0997 109.476 21.2805C109.48 21.3166 109.482 21.3613 109.482 21.4166C109.482 21.4719 109.482 21.5272 109.482 21.5825C109.482 21.6378 109.482 21.691 109.482 21.7442C109.482 21.7974 109.48 21.8421 109.476 21.8761C109.461 22.0569 109.414 22.225 109.339 22.3824C109.264 22.5398 109.161 22.6759 109.032 22.7908C108.904 22.9057 108.752 22.9972 108.576 23.0652C108.4 23.1312 108.203 23.1652 107.984 23.1652C107.766 23.1652 107.571 23.1312 107.393 23.0652C107.217 22.9993 107.065 22.9078 106.936 22.7908C106.808 22.6759 106.705 22.5377 106.63 22.3824C106.555 22.225 106.51 22.0569 106.492 21.8761C106.488 21.8399 106.486 21.7974 106.484 21.7442C106.482 21.691 106.482 21.6378 106.482 21.5825C106.482 21.5272 106.482 21.4719 106.484 21.4166C106.486 21.3613 106.488 21.3166 106.492 21.2805C106.505 21.0997 106.548 20.9316 106.625 20.7742C106.703 20.6168 106.805 20.4806 106.934 20.3615C107.063 20.2445 107.215 20.1509 107.391 20.085C107.571 20.019 107.768 19.985 107.986 19.985ZM108.704 21.3124C108.692 21.1911 108.664 21.089 108.619 21.0082C108.574 20.9274 108.516 20.8635 108.449 20.8167C108.383 20.7699 108.308 20.738 108.231 20.7189C108.151 20.7019 108.07 20.6934 107.986 20.6934C107.903 20.6934 107.821 20.7019 107.742 20.7189C107.663 20.7359 107.59 20.7699 107.523 20.8167C107.457 20.8635 107.399 20.9274 107.354 21.0082C107.309 21.089 107.279 21.189 107.268 21.3124C107.264 21.3443 107.262 21.3826 107.26 21.4294C107.258 21.4762 107.258 21.5251 107.258 21.5762C107.258 21.6272 107.258 21.6783 107.26 21.7272C107.262 21.7761 107.264 21.8144 107.268 21.8421C107.281 21.9633 107.309 22.0654 107.354 22.1463C107.399 22.2271 107.457 22.2909 107.523 22.3377C107.59 22.3845 107.665 22.4164 107.742 22.4356C107.821 22.4526 107.903 22.4611 107.986 22.4611C108.07 22.4611 108.151 22.4526 108.231 22.4356C108.31 22.4185 108.383 22.3845 108.449 22.3377C108.516 22.2909 108.574 22.2271 108.619 22.1463C108.664 22.0654 108.694 21.9654 108.704 21.8421C108.709 21.8144 108.711 21.7761 108.711 21.7272C108.711 21.6783 108.711 21.6272 108.711 21.5762C108.711 21.5251 108.711 21.4762 108.711 21.4294C108.709 21.3826 108.707 21.3422 108.704 21.3124Z" fill="#2C2C2C"/>
<path d="M110.127 23.1071C110.095 23.1071 110.067 23.0943 110.044 23.0709C110.02 23.0475 110.007 23.0199 110.007 22.988V20.1609C110.007 20.129 110.02 20.1013 110.044 20.0779C110.067 20.0545 110.095 20.0417 110.127 20.0417H111.795C111.945 20.0417 112.084 20.063 112.211 20.1034C112.337 20.1439 112.444 20.2013 112.534 20.2736C112.624 20.3459 112.693 20.4353 112.742 20.5395C112.791 20.6438 112.817 20.7586 112.817 20.8841C112.817 21.0522 112.789 21.1841 112.734 21.2798C112.678 21.3734 112.607 21.45 112.519 21.5095C112.654 21.5925 112.746 21.6925 112.798 21.8095C112.849 21.9265 112.875 22.0626 112.875 22.2158C112.875 22.3604 112.849 22.4902 112.8 22.6008C112.751 22.7136 112.682 22.805 112.594 22.8816C112.506 22.9561 112.403 23.0114 112.286 23.0497C112.168 23.0858 112.037 23.105 111.893 23.105H110.127V23.1071ZM112.046 20.9692C112.046 20.8799 112.018 20.8161 111.962 20.7842C111.906 20.7501 111.814 20.7331 111.683 20.7331H110.781V21.2053H111.683C111.814 21.2053 111.906 21.1883 111.962 21.1543C112.018 21.1224 112.046 21.0586 112.046 20.9692ZM110.781 22.4179H111.72C111.851 22.4179 111.947 22.3987 112.011 22.3626C112.073 22.3264 112.106 22.2583 112.106 22.1583C112.106 22.0584 112.073 21.9903 112.011 21.952C111.947 21.9137 111.851 21.8924 111.72 21.8924H110.781V22.4179Z" fill="#2C2C2C"/>
<path d="M115.098 23.1673C114.975 23.1673 114.866 23.1546 114.767 23.1312C114.671 23.1078 114.585 23.078 114.512 23.044C114.44 23.0099 114.377 22.9695 114.326 22.9291C114.275 22.8887 114.234 22.8504 114.202 22.8142V24.0693C114.202 24.1118 114.187 24.1501 114.154 24.182C114.122 24.2139 114.086 24.2288 114.041 24.2288H113.591C113.548 24.2288 113.509 24.2139 113.477 24.182C113.445 24.1501 113.43 24.114 113.43 24.0693V20.2041C113.43 20.1615 113.445 20.1233 113.477 20.0913C113.509 20.0594 113.546 20.0445 113.591 20.0445H114.041C114.084 20.0445 114.122 20.0594 114.154 20.0913C114.187 20.1233 114.202 20.1594 114.202 20.2041V20.3402C114.234 20.3041 114.275 20.2658 114.326 20.2254C114.377 20.1849 114.44 20.1467 114.512 20.1105C114.585 20.0743 114.671 20.0467 114.767 20.0211C114.864 19.9977 114.973 19.985 115.098 19.985C115.295 19.985 115.475 20.0233 115.636 20.0999C115.796 20.1764 115.931 20.2785 116.045 20.4062C116.158 20.5338 116.246 20.6806 116.313 20.8486C116.377 21.0146 116.414 21.189 116.422 21.3698C116.426 21.4294 116.429 21.4975 116.429 21.5762C116.429 21.6549 116.426 21.7229 116.422 21.7825C116.414 21.9633 116.377 22.1377 116.313 22.3037C116.248 22.4696 116.158 22.6185 116.045 22.7461C115.931 22.8738 115.796 22.9759 115.636 23.0525C115.473 23.129 115.295 23.1673 115.098 23.1673ZM115.648 21.7421C115.661 21.6315 115.661 21.523 115.648 21.4124C115.625 21.1571 115.545 20.9742 115.41 20.8614C115.275 20.7487 115.113 20.6934 114.917 20.6934C114.722 20.6934 114.56 20.7508 114.427 20.8635C114.294 20.9784 114.219 21.1401 114.197 21.3528C114.189 21.4124 114.184 21.4868 114.184 21.5762C114.184 21.6655 114.189 21.7421 114.197 21.7995C114.217 22.0037 114.294 22.1654 114.427 22.2824C114.56 22.3994 114.722 22.459 114.917 22.459C115.11 22.459 115.275 22.4037 115.41 22.2909C115.545 22.1803 115.625 21.9974 115.648 21.7421Z" fill="#2C2C2C"/>
<path d="M116.801 21.5755C116.801 21.3564 116.836 21.1479 116.902 20.9543C116.969 20.7608 117.067 20.5906 117.194 20.4481C117.32 20.3055 117.474 20.1928 117.654 20.1098C117.835 20.0269 118.036 19.9865 118.257 19.9865C118.478 19.9865 118.679 20.0269 118.859 20.1077C119.039 20.1885 119.193 20.297 119.32 20.431C119.446 20.5672 119.545 20.7246 119.613 20.9075C119.682 21.0905 119.716 21.2819 119.716 21.4819V21.7478C119.716 21.7903 119.701 21.8286 119.669 21.8605C119.637 21.8925 119.601 21.9073 119.556 21.9073H117.573C117.573 21.9967 117.592 22.0775 117.629 22.1456C117.667 22.2137 117.717 22.2732 117.781 22.32C117.843 22.3668 117.918 22.403 118.002 22.4264C118.085 22.4498 118.169 22.4626 118.257 22.4626C118.383 22.4626 118.486 22.4498 118.565 22.4243C118.645 22.3987 118.709 22.3668 118.76 22.3264C118.803 22.2945 118.84 22.2732 118.868 22.2626C118.895 22.2498 118.932 22.2456 118.981 22.2456H119.457C119.5 22.2456 119.538 22.2605 119.573 22.2924C119.607 22.3243 119.622 22.3604 119.618 22.4051C119.613 22.4604 119.583 22.5306 119.526 22.6178C119.468 22.7051 119.382 22.788 119.268 22.871C119.153 22.9539 119.011 23.0241 118.844 23.0837C118.675 23.1433 118.482 23.173 118.259 23.173C118.038 23.173 117.837 23.1348 117.657 23.0582C117.477 22.9816 117.322 22.8731 117.196 22.7306C117.069 22.5902 116.973 22.4221 116.904 22.2264C116.834 22.0265 116.801 21.8116 116.801 21.5755ZM118.255 20.6927C118.139 20.6927 118.042 20.7097 117.961 20.7437C117.88 20.7778 117.811 20.8203 117.755 20.8735C117.699 20.9267 117.657 20.9863 117.627 21.0501C117.597 21.1139 117.577 21.1777 117.571 21.2351H118.913C118.904 21.1756 118.889 21.1139 118.868 21.0501C118.846 20.9863 118.81 20.9267 118.76 20.8735C118.711 20.8203 118.645 20.7778 118.565 20.7437C118.486 20.7097 118.381 20.6927 118.255 20.6927Z" fill="#2C2C2C"/>
<path d="M121.871 21.6763L122.713 20.1617C122.726 20.1383 122.747 20.1127 122.777 20.0851C122.81 20.0574 122.865 20.0447 122.945 20.0447H123.367C123.41 20.0447 123.448 20.0596 123.48 20.0915C123.513 20.1234 123.528 20.1595 123.528 20.2042V22.9505C123.528 22.993 123.513 23.0313 123.48 23.0632C123.448 23.0951 123.412 23.11 123.367 23.11H122.917C122.874 23.11 122.835 23.0951 122.803 23.0632C122.771 23.0313 122.756 22.9952 122.756 22.9505V21.4721L122.192 22.4612C122.173 22.4931 122.147 22.525 122.115 22.5591C122.083 22.5931 122.04 22.6101 121.984 22.6101H121.759C121.704 22.6101 121.661 22.5931 121.629 22.5591C121.596 22.525 121.571 22.4931 121.551 22.4612L120.988 21.4721V22.9505C120.988 22.993 120.973 23.0313 120.941 23.0632C120.908 23.0951 120.872 23.11 120.827 23.11H120.377C120.334 23.11 120.295 23.0951 120.263 23.0632C120.231 23.0313 120.216 22.9952 120.216 22.9505V20.2042C120.216 20.1617 120.231 20.1234 120.263 20.0915C120.295 20.0596 120.332 20.0447 120.377 20.0447H120.799C120.878 20.0447 120.934 20.0596 120.966 20.0851C120.998 20.1127 121.02 20.1383 121.031 20.1617L121.871 21.6763Z" fill="#2C2C2C"/>
<path d="M124.041 21.5755C124.041 21.3564 124.075 21.1479 124.142 20.9543C124.208 20.7608 124.307 20.5906 124.433 20.4481C124.56 20.3055 124.714 20.1928 124.894 20.1098C125.074 20.0269 125.276 19.9865 125.496 19.9865C125.717 19.9865 125.919 20.0269 126.099 20.1077C126.279 20.1885 126.433 20.297 126.559 20.431C126.686 20.5672 126.784 20.7246 126.853 20.9075C126.922 21.0905 126.956 21.2819 126.956 21.4819V21.7478C126.956 21.7903 126.941 21.8286 126.909 21.8605C126.877 21.8925 126.84 21.9073 126.795 21.9073H124.813C124.813 21.9967 124.832 22.0775 124.868 22.1456C124.907 22.2137 124.956 22.2732 125.02 22.32C125.083 22.3668 125.158 22.403 125.241 22.4264C125.325 22.4498 125.408 22.4626 125.496 22.4626C125.623 22.4626 125.726 22.4498 125.805 22.4243C125.884 22.3987 125.949 22.3668 126 22.3264C126.043 22.2945 126.079 22.2732 126.107 22.2626C126.135 22.2498 126.171 22.2456 126.221 22.2456H126.697C126.739 22.2456 126.778 22.2605 126.812 22.2924C126.847 22.3243 126.862 22.3604 126.857 22.4051C126.853 22.4604 126.823 22.5306 126.765 22.6178C126.707 22.7051 126.622 22.788 126.508 22.871C126.392 22.9539 126.251 23.0241 126.084 23.0837C125.914 23.1433 125.721 23.173 125.498 23.173C125.278 23.173 125.076 23.1348 124.896 23.0582C124.716 22.9816 124.562 22.8731 124.435 22.7306C124.309 22.5902 124.212 22.4221 124.144 22.2264C124.075 22.0265 124.041 21.8116 124.041 21.5755ZM125.496 20.6927C125.381 20.6927 125.284 20.7097 125.203 20.7437C125.121 20.7778 125.053 20.8203 124.997 20.8735C124.941 20.9267 124.898 20.9863 124.868 21.0501C124.838 21.1139 124.819 21.1777 124.813 21.2351H126.154C126.146 21.1756 126.131 21.1139 126.109 21.0501C126.088 20.9863 126.051 20.9267 126.002 20.8735C125.953 20.8203 125.886 20.7778 125.807 20.7437C125.726 20.7097 125.623 20.6927 125.496 20.6927Z" fill="#2C2C2C"/>
<path d="M130.227 20.0447C130.27 20.0447 130.308 20.0596 130.341 20.0915C130.373 20.1234 130.388 20.1595 130.388 20.2042V22.9505C130.388 22.993 130.373 23.0313 130.341 23.0632C130.308 23.0951 130.272 23.11 130.227 23.11H129.775C129.732 23.11 129.693 23.0951 129.661 23.0632C129.629 23.0313 129.614 22.9952 129.614 22.9505V21.9188H128.225V22.9505C128.225 22.993 128.21 23.0313 128.178 23.0632C128.146 23.0951 128.109 23.11 128.064 23.11H127.614C127.571 23.11 127.533 23.0951 127.501 23.0654C127.469 23.0356 127.454 22.9973 127.454 22.9505V20.2042C127.454 20.1617 127.469 20.1234 127.501 20.0915C127.533 20.0596 127.569 20.0447 127.614 20.0447H128.064C128.107 20.0447 128.146 20.0596 128.178 20.0915C128.21 20.1234 128.225 20.1595 128.225 20.2042V21.2125H129.614V20.2042C129.614 20.1617 129.629 20.1234 129.661 20.0915C129.693 20.0596 129.73 20.0447 129.775 20.0447H130.227Z" fill="#2C2C2C"/>
<path d="M133.832 20.0447C133.875 20.0447 133.914 20.0596 133.946 20.0915C133.978 20.1234 133.993 20.1595 133.993 20.2042V22.9505C133.993 22.993 133.978 23.0313 133.946 23.0632C133.914 23.0951 133.877 23.11 133.832 23.11H133.38C133.337 23.11 133.299 23.0951 133.267 23.0632C133.234 23.0313 133.219 22.9952 133.219 22.9505V21.9188H131.831V22.9505C131.831 22.993 131.816 23.0313 131.783 23.0632C131.751 23.0951 131.715 23.11 131.67 23.11H131.22C131.177 23.11 131.138 23.0951 131.106 23.0654C131.074 23.0356 131.059 22.9973 131.059 22.9505V20.2042C131.059 20.1617 131.074 20.1234 131.106 20.0915C131.138 20.0596 131.175 20.0447 131.22 20.0447H131.67C131.713 20.0447 131.751 20.0596 131.783 20.0915C131.816 20.1234 131.831 20.1595 131.831 20.2042V21.2125H133.219V20.2042C133.219 20.1617 133.234 20.1234 133.267 20.0915C133.299 20.0596 133.335 20.0447 133.38 20.0447H133.832Z" fill="#2C2C2C"/>
<path d="M137.362 21.9188C137.362 22.0953 137.33 22.257 137.263 22.4059C137.199 22.5527 137.107 22.6782 136.993 22.7824C136.878 22.8867 136.74 22.9675 136.578 23.0249C136.415 23.0824 136.237 23.11 136.044 23.11H134.82C134.777 23.11 134.739 23.0951 134.706 23.0632C134.674 23.0313 134.659 22.9952 134.659 22.9505V20.2042C134.659 20.1617 134.674 20.1234 134.706 20.0915C134.739 20.0596 134.775 20.0447 134.82 20.0447H135.27C135.313 20.0447 135.352 20.0596 135.384 20.0915C135.416 20.1234 135.431 20.1595 135.431 20.2042V20.7296H136.042C136.235 20.7296 136.415 20.7573 136.575 20.8147C136.738 20.8722 136.875 20.953 136.991 21.0572C137.107 21.1615 137.197 21.287 137.261 21.4338C137.326 21.5805 137.362 21.7422 137.362 21.9188ZM135.433 22.4017H135.943C136.042 22.4017 136.132 22.3953 136.213 22.3804C136.295 22.3676 136.365 22.3421 136.423 22.3059C136.483 22.2698 136.528 22.2208 136.56 22.1591C136.593 22.0975 136.608 22.0166 136.608 21.9166C136.608 21.8188 136.593 21.738 136.56 21.6741C136.528 21.6124 136.483 21.5614 136.423 21.5274C136.363 21.4912 136.295 21.4678 136.213 21.4529C136.132 21.438 136.042 21.4316 135.943 21.4316H135.433V22.4017ZM137.66 20.2042C137.66 20.1617 137.675 20.1234 137.707 20.0915C137.739 20.0596 137.776 20.0447 137.821 20.0447H138.273C138.316 20.0447 138.354 20.0596 138.386 20.0915C138.419 20.1234 138.434 20.1595 138.434 20.2042V22.9505C138.434 22.993 138.419 23.0313 138.386 23.0632C138.354 23.0951 138.318 23.11 138.273 23.11H137.821C137.778 23.11 137.739 23.0951 137.707 23.0632C137.675 23.0313 137.66 22.9952 137.66 22.9505V20.2042Z" fill="#2C2C2C"/>
<path d="M140.421 22.1357L139.72 22.9952C139.679 23.042 139.64 23.0739 139.598 23.0866C139.557 23.0994 139.51 23.1079 139.458 23.1079H139.002C138.959 23.1079 138.922 23.093 138.892 23.0611C138.862 23.0292 138.847 22.9909 138.847 22.9441C138.847 22.9122 138.856 22.8845 138.871 22.8611L139.94 21.5465L138.92 20.2914C138.905 20.268 138.897 20.2404 138.897 20.2085C138.897 20.1617 138.912 20.1213 138.942 20.0915C138.972 20.0596 139.008 20.0447 139.051 20.0447H139.507C139.559 20.0447 139.606 20.0511 139.647 20.0659C139.688 20.0787 139.728 20.1106 139.769 20.1574L140.44 20.9828L141.104 20.1574C141.143 20.1106 141.184 20.0808 141.226 20.0659C141.267 20.0532 141.314 20.0447 141.366 20.0447H141.822C141.865 20.0447 141.902 20.0596 141.932 20.0915C141.962 20.1234 141.977 20.1617 141.977 20.2085C141.977 20.2404 141.968 20.268 141.953 20.2914L140.92 21.5699L141.977 22.8611C141.992 22.8845 142 22.9122 142 22.9441C142 22.9909 141.985 23.0313 141.955 23.0611C141.925 23.093 141.889 23.1079 141.846 23.1079H141.389C141.338 23.1079 141.291 23.1015 141.25 23.0866C141.209 23.0739 141.169 23.042 141.128 22.9952L140.421 22.1357Z" fill="#2C2C2C"/>
<path d="M89.4166 27.1774C89.4316 27.0944 89.468 27.0072 89.5259 26.9115C89.5838 26.8179 89.6652 26.7286 89.7702 26.6456C89.8753 26.5626 90.0039 26.4946 90.156 26.4414C90.3082 26.3882 90.4861 26.3627 90.6876 26.3627C90.889 26.3627 91.0712 26.3882 91.2341 26.4414C91.397 26.4946 91.5363 26.5711 91.652 26.6732C91.7678 26.7754 91.8578 26.903 91.9221 27.0583C91.9864 27.2136 92.0164 27.3923 92.0164 27.5922V29.3238C92.0164 29.3663 92.0014 29.4046 91.9693 29.4365C91.9371 29.4684 91.9007 29.4833 91.8557 29.4833H91.4056C91.3627 29.4833 91.3241 29.4684 91.292 29.4365C91.2598 29.4046 91.2448 29.3685 91.2448 29.3238V29.1302C91.1612 29.2451 91.0412 29.3408 90.8847 29.4216C90.7283 29.5025 90.529 29.5429 90.2889 29.5429C90.1196 29.5429 89.9653 29.5195 89.8324 29.4748C89.6974 29.4301 89.5859 29.3663 89.4937 29.2834C89.4037 29.2004 89.333 29.1047 89.2837 28.9919C89.2344 28.8792 89.2087 28.7579 89.2087 28.6239C89.2087 28.3538 89.3051 28.141 89.5002 27.9879C89.6931 27.8347 89.9524 27.7305 90.2782 27.6752L91.2448 27.5093C91.2448 27.3476 91.1912 27.2348 91.0841 27.1668C90.9769 27.1008 90.844 27.0668 90.6854 27.0668C90.5868 27.0668 90.5097 27.0795 90.4539 27.1072C90.3982 27.1349 90.3446 27.171 90.2932 27.2199C90.2568 27.2519 90.2246 27.2731 90.1946 27.2838C90.1646 27.2965 90.1324 27.3008 90.096 27.3008H89.543C89.5023 27.3008 89.4702 27.288 89.4423 27.2646C89.4144 27.2412 89.408 27.2178 89.4166 27.1774ZM90.4068 28.8388C90.5418 28.8388 90.6618 28.8196 90.7669 28.7835C90.8719 28.7452 90.9598 28.6962 91.0305 28.6324C91.1012 28.5686 91.1548 28.4984 91.1912 28.4197C91.2277 28.341 91.2448 28.2602 91.2448 28.1772V28.1176L90.4368 28.2602C90.2739 28.2878 90.1582 28.3282 90.0874 28.3814C90.0167 28.4346 89.9803 28.5069 89.9803 28.5963C89.9803 28.6792 90.0231 28.7388 90.1089 28.7792C90.1925 28.8196 90.2932 28.8388 90.4068 28.8388Z" fill="#2C2C2C"/>
<path d="M92.7772 29.4877C92.745 29.4877 92.7172 29.4749 92.6936 29.4515C92.67 29.4281 92.6571 29.4005 92.6571 29.3686V26.5415C92.6571 26.5096 92.67 26.4819 92.6936 26.4585C92.7172 26.4351 92.745 26.4224 92.7772 26.4224H94.4447C94.5947 26.4224 94.734 26.4436 94.8605 26.4841C94.9869 26.5245 95.0941 26.5819 95.1841 26.6542C95.272 26.7266 95.3427 26.8159 95.392 26.9201C95.4413 27.0244 95.467 27.1392 95.467 27.2647C95.467 27.4328 95.4391 27.5647 95.3834 27.6604C95.3277 27.754 95.257 27.8306 95.1691 27.8902C95.3041 27.9731 95.3963 28.0731 95.4477 28.1901C95.4992 28.3071 95.5249 28.4432 95.5249 28.5964C95.5249 28.741 95.4992 28.8708 95.4499 28.9814C95.4006 29.0942 95.332 29.1856 95.2441 29.2622C95.1562 29.3367 95.0534 29.392 94.9355 29.4303C94.8176 29.4664 94.6868 29.4856 94.5432 29.4856H92.7772V29.4877ZM94.6933 27.3498C94.6933 27.2605 94.6654 27.1967 94.6097 27.1648C94.554 27.1307 94.4618 27.1137 94.3311 27.1137H93.4287V27.586H94.3311C94.4618 27.586 94.554 27.5689 94.6097 27.5349C94.6654 27.5009 94.6933 27.4392 94.6933 27.3498ZM93.4287 28.7985H94.3675C94.4982 28.7985 94.5947 28.7793 94.659 28.7432C94.7211 28.707 94.7533 28.6389 94.7533 28.539C94.7533 28.439 94.7211 28.3709 94.659 28.3326C94.5947 28.2943 94.4982 28.2731 94.3675 28.2731H93.4287V28.7985Z" fill="#2C2C2C"/>
<path d="M98.6179 26.4238C98.6608 26.4238 98.6994 26.4387 98.7315 26.4706C98.7637 26.5025 98.7787 26.5387 98.7787 26.5834V26.9727C98.7787 27.0152 98.7637 27.0535 98.7315 27.0854C98.6994 27.1173 98.6629 27.1322 98.6179 27.1322H97.6449V29.3296C97.6449 29.3722 97.6299 29.4105 97.5977 29.4424C97.5656 29.4743 97.5291 29.4892 97.4841 29.4892H97.034C96.9912 29.4892 96.9526 29.4743 96.9204 29.4424C96.8883 29.4105 96.8733 29.3743 96.8733 29.3296V27.1322H95.9002C95.8574 27.1322 95.8188 27.1173 95.7866 27.0854C95.7545 27.0535 95.7395 27.0173 95.7395 26.9727V26.5834C95.7395 26.5408 95.7545 26.5025 95.7866 26.4706C95.8188 26.4387 95.8552 26.4238 95.9002 26.4238H98.6179Z" fill="#2C2C2C"/>
<path d="M100.446 26.3641C100.662 26.3641 100.86 26.3982 101.038 26.4641C101.213 26.5301 101.365 26.6237 101.494 26.7407C101.623 26.8577 101.726 26.9959 101.803 27.1533C101.88 27.3108 101.925 27.4788 101.936 27.6596C101.94 27.6958 101.942 27.7405 101.942 27.7958C101.942 27.8511 101.942 27.9064 101.942 27.9617C101.942 28.017 101.942 28.0702 101.942 28.1234C101.942 28.1765 101.94 28.2212 101.936 28.2552C101.921 28.4361 101.873 28.6041 101.798 28.7615C101.723 28.9189 101.621 29.0551 101.492 29.17C101.363 29.2848 101.211 29.3763 101.035 29.4444C100.86 29.5103 100.662 29.5444 100.444 29.5444C100.225 29.5444 100.03 29.5103 99.8523 29.4444C99.6766 29.3784 99.5244 29.287 99.3958 29.17C99.2672 29.0551 99.1643 28.9168 99.0893 28.7615C99.0143 28.6041 98.9693 28.4361 98.9521 28.2552C98.9478 28.2191 98.9457 28.1765 98.9435 28.1234C98.9414 28.0702 98.9414 28.017 98.9414 27.9617C98.9414 27.9064 98.9414 27.8511 98.9435 27.7958C98.9457 27.7405 98.9478 27.6958 98.9521 27.6596C98.965 27.4788 99.0078 27.3108 99.085 27.1533C99.1622 26.9959 99.265 26.8598 99.3936 26.7407C99.5222 26.6237 99.6744 26.5301 99.8502 26.4641C100.032 26.3982 100.23 26.3641 100.446 26.3641ZM101.164 27.6894C101.151 27.5681 101.123 27.466 101.078 27.3852C101.033 27.3044 100.975 27.2406 100.909 27.1938C100.843 27.147 100.767 27.115 100.69 27.0959C100.611 27.0789 100.53 27.0704 100.446 27.0704C100.362 27.0704 100.281 27.0789 100.202 27.0959C100.122 27.1129 100.049 27.147 99.983 27.1938C99.9166 27.2406 99.8587 27.3044 99.8137 27.3852C99.7687 27.466 99.7387 27.566 99.728 27.6894C99.7237 27.7213 99.7216 27.7596 99.7194 27.8064C99.7173 27.8532 99.7173 27.9021 99.7173 27.9532C99.7173 28.0042 99.7173 28.0553 99.7194 28.1042C99.7216 28.1531 99.7237 28.1914 99.728 28.2191C99.7408 28.3403 99.7687 28.4424 99.8137 28.5233C99.8587 28.6041 99.9166 28.6679 99.983 28.7147C100.049 28.7615 100.125 28.7934 100.202 28.8126C100.281 28.8296 100.362 28.8381 100.446 28.8381C100.53 28.8381 100.611 28.8296 100.69 28.8126C100.77 28.7956 100.843 28.7615 100.909 28.7147C100.975 28.6679 101.033 28.6041 101.078 28.5233C101.123 28.4424 101.153 28.3425 101.164 28.2191C101.168 28.1914 101.17 28.1531 101.17 28.1042C101.17 28.0553 101.17 28.0042 101.17 27.9532C101.17 27.9021 101.17 27.8532 101.17 27.8064C101.17 27.7617 101.168 27.7213 101.164 27.6894Z" fill="#2C2C2C"/>
<path d="M103.082 26.4238C103.125 26.4238 103.164 26.4387 103.196 26.4706C103.228 26.5025 103.243 26.5387 103.243 26.5834V28.7808H104.045V26.5834C104.045 26.5408 104.06 26.5025 104.092 26.4706C104.124 26.4387 104.16 26.4238 104.205 26.4238H104.655C104.698 26.4238 104.737 26.4387 104.769 26.4706C104.801 26.5025 104.816 26.5387 104.816 26.5834V28.7808H105.618V26.5834C105.618 26.5408 105.633 26.5025 105.665 26.4706C105.697 26.4387 105.733 26.4238 105.778 26.4238H106.231C106.274 26.4238 106.312 26.4387 106.344 26.4706C106.376 26.5025 106.391 26.5387 106.391 26.5834V29.3296C106.391 29.3722 106.376 29.4105 106.344 29.4424C106.312 29.4743 106.276 29.4892 106.231 29.4892H102.634C102.591 29.4892 102.553 29.4743 102.521 29.4424C102.488 29.4105 102.473 29.3743 102.473 29.3296V26.5834C102.473 26.5408 102.488 26.5025 102.521 26.4706C102.553 26.4387 102.589 26.4238 102.634 26.4238H103.082Z" fill="#2C2C2C"/>
<path d="M107.829 28.4028V29.3282C107.829 29.3707 107.814 29.409 107.782 29.4409C107.75 29.4728 107.714 29.4877 107.669 29.4877H107.218C107.176 29.4877 107.137 29.4728 107.105 29.4409C107.073 29.409 107.058 29.3728 107.058 29.3282V26.5819C107.058 26.5394 107.073 26.5011 107.105 26.4692C107.137 26.4373 107.173 26.4224 107.218 26.4224H107.669C107.711 26.4224 107.75 26.4373 107.782 26.4692C107.814 26.5011 107.829 26.5372 107.829 26.5819V27.5136L108.922 26.5245C108.946 26.5053 108.976 26.4841 109.015 26.4607C109.053 26.4373 109.098 26.4245 109.154 26.4245H109.718C109.756 26.4245 109.79 26.4373 109.818 26.4649C109.846 26.4926 109.859 26.5266 109.859 26.5649C109.859 26.584 109.857 26.6032 109.85 26.6202C109.844 26.6372 109.825 26.6585 109.795 26.6819L108.412 27.9242L109.925 29.2324C109.949 29.2558 109.964 29.275 109.973 29.292C109.981 29.3069 109.983 29.326 109.983 29.3452C109.983 29.3856 109.97 29.4175 109.943 29.4452C109.915 29.4728 109.88 29.4856 109.842 29.4856H109.212C109.152 29.4856 109.102 29.4728 109.06 29.4494C109.019 29.426 108.987 29.4047 108.967 29.3856L107.829 28.4028Z" fill="#2C2C2C"/>
<path d="M111.465 26.3641C111.681 26.3641 111.879 26.3982 112.056 26.4641C112.232 26.5301 112.384 26.6237 112.513 26.7407C112.642 26.8577 112.744 26.9959 112.822 27.1533C112.899 27.3108 112.944 27.4788 112.955 27.6596C112.959 27.6958 112.961 27.7405 112.961 27.7958C112.961 27.8511 112.961 27.9064 112.961 27.9617C112.961 28.017 112.961 28.0702 112.961 28.1234C112.961 28.1765 112.959 28.2212 112.955 28.2552C112.94 28.4361 112.892 28.6041 112.817 28.7615C112.742 28.9189 112.639 29.0551 112.511 29.17C112.382 29.2848 112.23 29.3763 112.054 29.4444C111.879 29.5103 111.681 29.5444 111.463 29.5444C111.244 29.5444 111.049 29.5103 110.871 29.4444C110.695 29.3784 110.543 29.287 110.415 29.17C110.286 29.0551 110.183 28.9168 110.108 28.7615C110.033 28.6041 109.988 28.4361 109.971 28.2552C109.967 28.2191 109.965 28.1765 109.962 28.1234C109.96 28.0702 109.96 28.017 109.96 27.9617C109.96 27.9064 109.96 27.8511 109.962 27.7958C109.965 27.7405 109.967 27.6958 109.971 27.6596C109.984 27.4788 110.027 27.3108 110.104 27.1533C110.181 26.9959 110.284 26.8598 110.413 26.7407C110.541 26.6237 110.693 26.5301 110.869 26.4641C111.049 26.3982 111.246 26.3641 111.465 26.3641ZM112.183 27.6894C112.17 27.5681 112.142 27.466 112.097 27.3852C112.052 27.3044 111.994 27.2406 111.928 27.1938C111.861 27.147 111.786 27.115 111.709 27.0959C111.63 27.0789 111.549 27.0704 111.465 27.0704C111.381 27.0704 111.3 27.0789 111.221 27.0959C111.141 27.1129 111.068 27.147 111.002 27.1938C110.936 27.2406 110.878 27.3044 110.833 27.3852C110.788 27.466 110.758 27.566 110.747 27.6894C110.743 27.7213 110.74 27.7596 110.738 27.8064C110.736 27.8532 110.736 27.9021 110.736 27.9532C110.736 28.0042 110.736 28.0553 110.738 28.1042C110.74 28.1531 110.743 28.1914 110.747 28.2191C110.76 28.3403 110.788 28.4424 110.833 28.5233C110.878 28.6041 110.936 28.6679 111.002 28.7147C111.068 28.7615 111.143 28.7934 111.221 28.8126C111.3 28.8296 111.381 28.8381 111.465 28.8381C111.549 28.8381 111.63 28.8296 111.709 28.8126C111.789 28.7956 111.861 28.7615 111.928 28.7147C111.994 28.6679 112.052 28.6041 112.097 28.5233C112.142 28.4424 112.172 28.3425 112.183 28.2191C112.187 28.1914 112.189 28.1531 112.189 28.1042C112.189 28.0553 112.189 28.0042 112.189 27.9532C112.189 27.9021 112.189 27.8532 112.189 27.8064C112.187 27.7617 112.187 27.7213 112.183 27.6894Z" fill="#2C2C2C"/>
<path d="M114.551 27.1307V28.4028C114.551 28.7602 114.461 29.041 114.281 29.2431C114.101 29.4452 113.818 29.5473 113.434 29.5473H113.297C113.254 29.5473 113.216 29.5324 113.184 29.5005C113.152 29.4686 113.137 29.4324 113.137 29.3877V28.9984C113.137 28.9559 113.152 28.9176 113.184 28.8857C113.216 28.8538 113.252 28.8389 113.297 28.8389H113.404C113.563 28.8389 113.664 28.7985 113.711 28.7177C113.756 28.6368 113.78 28.5219 113.78 28.373V26.5819C113.78 26.5394 113.795 26.5011 113.827 26.4692C113.859 26.4373 113.895 26.4224 113.94 26.4224H116.118C116.161 26.4224 116.199 26.4373 116.231 26.4692C116.264 26.5011 116.279 26.5372 116.279 26.5819V29.3282C116.279 29.3707 116.264 29.409 116.231 29.4409C116.199 29.4728 116.163 29.4877 116.118 29.4877H115.668C115.625 29.4877 115.586 29.4728 115.554 29.4409C115.522 29.409 115.507 29.3728 115.507 29.3282V27.1307H114.551Z" fill="#2C2C2C"/>
</g>
<defs>
<clipPath id="clip0_2617_3341">
<rect width="142" height="32" fill="white"/>
</clipPath>
</defs>
</svg>
