<svg width="40" height="40" viewBox="0 0 40 40" fill="none" xmlns="http://www.w3.org/2000/svg">
<rect width="40" height="40" rx="10" fill="#EAF2FF"/>
<g clip-path="url(#clip0_2617_3415)">
<path d="M29.894 24.5999C29.8698 24.5477 29.8472 24.5044 29.8262 24.4697C29.4792 23.8447 28.8161 23.0776 27.8373 22.1682L27.8166 22.1474L27.8063 22.1372L27.7958 22.1267H27.7853C27.341 21.7032 27.0597 21.4185 26.9419 21.2727C26.7264 20.995 26.6781 20.7139 26.7959 20.4291C26.8791 20.2139 27.1918 19.7594 27.7331 19.0651C28.0178 18.6971 28.2433 18.4022 28.4099 18.18C29.611 16.5833 30.1317 15.5629 29.9719 15.1186L29.9099 15.0147C29.8682 14.9522 29.7606 14.895 29.5872 14.8429C29.4135 14.7908 29.1914 14.7822 28.9206 14.8169L25.9217 14.8376C25.8731 14.8204 25.8037 14.822 25.7134 14.8429C25.6231 14.8637 25.5779 14.8742 25.5779 14.8742L25.5257 14.9003L25.4843 14.9316C25.4496 14.9523 25.4114 14.9888 25.3697 15.0408C25.3282 15.0927 25.2936 15.1537 25.2658 15.2231C24.9393 16.0631 24.5681 16.844 24.1515 17.566C23.8946 17.9965 23.6587 18.3695 23.4433 18.6854C23.2281 19.0012 23.0476 19.2339 22.9019 19.383C22.756 19.5323 22.6244 19.6519 22.5061 19.7422C22.3881 19.8326 22.298 19.8708 22.2355 19.8568C22.173 19.8429 22.1141 19.829 22.0583 19.8151C21.9612 19.7526 21.8831 19.6676 21.8242 19.56C21.765 19.4524 21.7252 19.317 21.7044 19.1538C21.6836 18.9906 21.6714 18.8502 21.6679 18.7321C21.6646 18.6142 21.6661 18.4474 21.6732 18.2322C21.6804 18.0169 21.6836 17.8713 21.6836 17.7949C21.6836 17.531 21.6888 17.2447 21.6991 16.9358C21.7096 16.6269 21.7181 16.3821 21.7252 16.2018C21.7323 16.0213 21.7356 15.8303 21.7356 15.629C21.7356 15.4276 21.7233 15.2697 21.6991 15.1551C21.6752 15.0407 21.6385 14.9296 21.5901 14.8219C21.5414 14.7143 21.4701 14.6311 21.3766 14.572C21.2829 14.513 21.1664 14.4661 21.0278 14.4314C20.6598 14.3481 20.1912 14.303 19.6219 14.296C18.3307 14.2822 17.501 14.3656 17.1331 14.5461C16.9873 14.6223 16.8554 14.7265 16.7375 14.8583C16.6125 15.0111 16.595 15.0945 16.6853 15.1082C17.1019 15.1706 17.3968 15.3199 17.5703 15.5559L17.6329 15.681C17.6816 15.7712 17.7301 15.931 17.7788 16.16C17.8273 16.389 17.8586 16.6424 17.8724 16.92C17.9071 17.4268 17.9071 17.8607 17.8724 18.2216C17.8377 18.5827 17.8048 18.8638 17.7735 19.0651C17.7422 19.2665 17.6953 19.4296 17.6329 19.5545C17.5703 19.6795 17.5287 19.7559 17.5079 19.7836C17.487 19.8113 17.4697 19.8288 17.4559 19.8356C17.3657 19.8702 17.2718 19.8878 17.1747 19.8878C17.0774 19.8878 16.9595 19.8392 16.8207 19.7419C16.6819 19.6447 16.5378 19.5111 16.3886 19.341C16.2393 19.1709 16.0709 18.9331 15.8834 18.6277C15.6961 18.3223 15.5017 17.9613 15.3003 17.5448L15.1338 17.2427C15.0296 17.0484 14.8874 16.7654 14.7069 16.3941C14.5263 16.0226 14.3666 15.6633 14.2279 15.3162C14.1724 15.1704 14.089 15.0594 13.978 14.9831L13.9259 14.9517C13.8912 14.924 13.8356 14.8946 13.7593 14.8632C13.6829 14.8319 13.6032 14.8094 13.5198 14.7956L10.6666 14.8163C10.375 14.8163 10.1772 14.8824 10.073 15.0143L10.0313 15.0767C10.0105 15.1115 10 15.167 10 15.2434C10 15.3197 10.0208 15.4135 10.0625 15.5245C10.479 16.5034 10.932 17.4475 11.4214 18.3569C11.9108 19.2663 12.336 19.9988 12.6969 20.5539C13.0579 21.1093 13.4258 21.6335 13.8007 22.1263C14.1756 22.6192 14.4238 22.9351 14.5452 23.0739C14.6668 23.2129 14.7623 23.3169 14.8317 23.3863L15.092 23.6361C15.2586 23.8028 15.5033 24.0024 15.8261 24.2349C16.149 24.4675 16.5065 24.6966 16.8987 24.9224C17.291 25.1478 17.7474 25.3318 18.2681 25.4741C18.7887 25.6165 19.2955 25.6736 19.7884 25.6461H20.986C21.2288 25.6251 21.4128 25.5487 21.5379 25.4169L21.5793 25.3647C21.6072 25.3233 21.6333 25.2589 21.6573 25.1723C21.6817 25.0855 21.6938 24.9899 21.6938 24.8859C21.6867 24.5875 21.7094 24.3185 21.7614 24.079C21.8133 23.8396 21.8724 23.6591 21.9386 23.5376C22.0047 23.4161 22.0793 23.3136 22.1624 23.2305C22.2456 23.1473 22.3049 23.0968 22.3397 23.0795C22.3743 23.062 22.4019 23.0501 22.4227 23.043C22.5893 22.9875 22.7854 23.0413 23.0112 23.2046C23.2369 23.3677 23.4486 23.5691 23.6465 23.8085C23.8444 24.0482 24.0821 24.317 24.3597 24.6155C24.6376 24.914 24.8805 25.136 25.0886 25.282L25.2968 25.4069C25.4359 25.4903 25.6164 25.5667 25.8386 25.6361C26.0604 25.7054 26.2547 25.7228 26.4215 25.6881L29.0872 25.6465C29.3509 25.6465 29.556 25.6029 29.7015 25.5163C29.8474 25.4295 29.934 25.3339 29.9619 25.2299C29.9898 25.1258 29.9913 25.0077 29.9672 24.8757C29.9425 24.744 29.9182 24.6519 29.894 24.5999Z" fill="#5495FF"/>
</g>
<defs>
<clipPath id="clip0_2617_3415">
<rect width="20" height="20" fill="white" transform="translate(10 10)"/>
</clipPath>
</defs>
</svg>
