<svg width="40" height="40" viewBox="0 0 40 40" fill="none" xmlns="http://www.w3.org/2000/svg">
<rect width="40" height="40" rx="10" fill="#EAF2FF"/>
<path fill-rule="evenodd" clip-rule="evenodd" d="M12.9062 19.1312C16.9327 17.3671 19.6177 16.2042 20.9611 15.6423C24.7969 14.038 25.5939 13.7593 26.1134 13.7501C26.2277 13.7481 26.4832 13.7765 26.6487 13.9116C26.7884 14.0256 26.8268 14.1796 26.8452 14.2877C26.8636 14.3958 26.8865 14.6421 26.8683 14.8345C26.6605 17.0306 25.7611 22.3601 25.3035 24.8199C25.1099 25.8607 24.7286 26.2097 24.3595 26.2438C23.5574 26.318 22.9484 25.7108 22.1715 25.1987C20.9559 24.3974 20.2691 23.8986 19.0891 23.1167C17.7254 22.213 18.6094 21.7164 19.3866 20.9047C19.59 20.6923 23.124 17.4599 23.1924 17.1667C23.201 17.13 23.2089 16.9933 23.1282 16.9211C23.0474 16.8489 22.9282 16.8736 22.8422 16.8933C22.7203 16.9211 20.7783 18.2118 17.0161 20.7655C16.4649 21.1461 15.9656 21.3315 15.5183 21.3218C15.0251 21.3111 14.0765 21.0414 13.3712 20.8109C12.5062 20.5282 11.8188 20.3787 11.8786 19.8985C11.9098 19.6484 12.2523 19.3926 12.9062 19.1312Z" fill="#5495FF"/>
</svg>
