<svg width="40" height="40" viewBox="0 0 40 40" fill="none" xmlns="http://www.w3.org/2000/svg">
<rect width="40" height="40" rx="10" fill="#EAF2FF"/>
<path d="M11.6667 28.3333L12.8634 23.891C11.8983 22.1605 11.5916 20.1411 11.9998 18.2035C12.4079 16.2658 13.5035 14.5399 15.0854 13.3423C16.6673 12.1447 18.6295 11.5559 20.6119 11.6838C22.5943 11.8118 24.4639 12.6479 25.8777 14.0388C27.2914 15.4297 28.1545 17.2821 28.3085 19.256C28.4625 21.2299 27.8971 23.193 26.7161 24.785C25.5351 26.377 23.8176 27.4911 21.8789 27.9229C19.9402 28.3548 17.9103 28.0753 16.1616 27.1358L11.6667 28.3333ZM16.3783 25.4735L16.6563 25.6379C17.9229 26.3861 19.4023 26.6957 20.8639 26.5185C22.3254 26.3413 23.6872 25.6872 24.7368 24.6581C25.7864 23.629 26.4651 22.2828 26.6669 20.8292C26.8687 19.3756 26.5824 17.8963 25.8526 16.6219C25.1227 15.3474 23.9904 14.3493 22.632 13.7832C21.2736 13.2171 19.7655 13.1147 18.3426 13.492C16.9198 13.8693 15.6621 14.7051 14.7656 15.8692C13.8692 17.0333 13.3842 18.4602 13.3864 19.9277C13.3852 21.1444 13.7229 22.3376 14.3617 23.3744L14.5361 23.6609L13.867 26.1403L16.3783 25.4735Z" fill="#5495FF"/>
<path fill-rule="evenodd" clip-rule="evenodd" d="M23.1253 21.0683C22.9623 20.9373 22.7715 20.8451 22.5674 20.7987C22.3633 20.7524 22.1512 20.753 21.9474 20.8007C21.6411 20.9275 21.4432 21.4064 21.2453 21.6459C21.2036 21.7033 21.1423 21.7436 21.0729 21.7592C21.0035 21.7747 20.9308 21.7645 20.8684 21.7305C19.7472 21.2928 18.8074 20.4902 18.2016 19.453C18.1499 19.3882 18.1255 19.306 18.1334 19.2237C18.1413 19.1414 18.181 19.0653 18.244 19.0115C18.4647 18.7938 18.6268 18.5241 18.7152 18.2273C18.7348 17.9 18.6596 17.574 18.4984 17.2882C18.3739 16.8874 18.1368 16.5305 17.8153 16.2598C17.6494 16.1854 17.4655 16.1605 17.2858 16.188C17.106 16.2155 16.9381 16.2942 16.8022 16.4147C16.5664 16.6175 16.3792 16.8704 16.2545 17.1549C16.1297 17.4393 16.0706 17.748 16.0814 18.0583C16.0821 18.2325 16.1042 18.406 16.1473 18.5748C16.2567 18.9805 16.425 19.3681 16.6468 19.7253C16.8068 19.999 16.9813 20.2639 17.1698 20.5189C17.7821 21.3567 18.5517 22.0679 19.4361 22.6133C19.8798 22.8904 20.3541 23.1157 20.8496 23.2848C21.3642 23.5173 21.9325 23.6066 22.4939 23.5431C22.8138 23.4948 23.1169 23.3689 23.3766 23.1765C23.6362 22.9841 23.8444 22.731 23.9828 22.4395C24.0642 22.2635 24.0888 22.0666 24.0535 21.876C23.9687 21.4863 23.4457 21.2562 23.1253 21.0683Z" fill="#5495FF"/>
</svg>
