<svg width="20" height="20" viewBox="0 0 20 20" fill="none" xmlns="http://www.w3.org/2000/svg">
<g clip-path="url(#clip0_2617_3432)">
<path d="M9.16669 2.08333C9.16669 0.9325 10.0992 0 11.25 0C12.4009 0 13.3334 0.9325 13.3334 2.08333C13.3334 3.23417 12.4009 4.16667 11.25 4.16667C10.0992 4.16667 9.16669 3.23417 9.16669 2.08333ZM16.8092 10.1317L14.6217 9.03833C14.6217 9.03833 12.7317 6.045 12.6892 5.99583C12.135 5.3625 11.335 5 10.4942 5C9.43252 5 8.37002 5.25083 7.42085 5.72583L5.31585 6.77833C4.78169 7.04583 4.38752 7.53 4.23419 8.10833L3.70669 10.0975C3.53002 10.765 3.92752 11.4492 4.59419 11.6258C5.26252 11.8033 5.94585 11.4058 6.12252 10.7383L6.60169 8.93167L8.12752 8.16833L7.57585 10.5267C7.28335 11.7767 7.85836 13.0925 8.97502 13.7267L12.2884 15.6083C12.4184 15.6825 12.4992 15.8217 12.4992 15.9717V18.7517C12.4992 19.4425 13.0592 20.0017 13.7492 20.0017C14.4392 20.0017 14.9992 19.4425 14.9992 18.7517V15.9717C14.9992 14.925 14.4334 13.9533 13.5234 13.4358L11.2534 12.1467L11.9609 9.50917L12.69 10.6675C12.8117 10.8608 12.985 11.0175 13.1892 11.12L15.6892 12.37C15.8692 12.4592 16.0592 12.5025 16.2475 12.5025C16.7059 12.5025 17.1475 12.2492 17.3667 11.8108C17.675 11.1933 17.425 10.4425 16.8075 10.1333L16.8092 10.1317ZM8.21586 14.6858C7.53919 14.5517 6.88252 15.0008 6.75419 15.6792L6.72169 15.8458L5.54919 18.1908C5.24085 18.8083 5.49085 19.5592 6.10835 19.8683C6.28752 19.9575 6.47835 20.0008 6.66669 20.0008C7.12502 20.0008 7.56669 19.7475 7.78586 19.3092L9.03586 16.8092C9.08752 16.7067 9.12419 16.5975 9.14502 16.4842L9.20919 16.1475C9.33919 15.47 8.89419 14.815 8.21586 14.6858Z" fill="#76AAFF"/>
</g>
<defs>
<clipPath id="clip0_2617_3432">
<rect width="20" height="20" fill="white"/>
</clipPath>
</defs>
</svg>
