<svg width="12" height="12" viewBox="0 0 12 12" fill="none" xmlns="http://www.w3.org/2000/svg">
<path d="M1.75736 0.343146C1.36684 -0.0473785 0.733673 -0.0473781 0.343149 0.343146C-0.0473756 0.73367 -0.0473756 1.36684 0.343149 1.75736L4.58579 6L0.343149 10.2426C-0.0473756 10.6332 -0.0473756 11.2663 0.343149 11.6569C0.733673 12.0474 1.36684 12.0474 1.75736 11.6569L6 7.41421L10.2426 11.6569C10.6332 12.0474 11.2663 12.0474 11.6569 11.6569C12.0474 11.2663 12.0474 10.6332 11.6569 10.2426L7.41422 6L11.6569 1.75736C12.0474 1.36683 12.0474 0.73367 11.6569 0.343146C11.2663 -0.0473784 10.6332 -0.0473788 10.2426 0.343146L6 4.58579L1.75736 0.343146Z" fill="#5495FF"/>
</svg>
