<svg width="56" height="56" viewBox="0 0 56 56" fill="none" xmlns="http://www.w3.org/2000/svg">
<rect width="56" height="56" rx="16" fill="#76AAFF"/>
<path fill-rule="evenodd" clip-rule="evenodd" d="M28.0002 17C26.1437 17 24.3633 17.7375 23.0505 19.0503C21.7377 20.363 21.0002 22.1435 21.0002 24C21.0002 26.9127 20.2682 28.8439 19.5009 30.0771L19.489 30.0961C19.1318 30.6703 18.8493 31.1243 18.6588 31.4547C18.5634 31.6202 18.4765 31.7797 18.4121 31.9215C18.38 31.9922 18.3441 32.079 18.316 32.1733C18.2927 32.2515 18.2483 32.4187 18.2649 32.6223C18.2761 32.7591 18.304 32.9928 18.4381 33.2343C18.5723 33.4758 18.756 33.623 18.8663 33.7047C19.1165 33.8904 19.404 33.9329 19.4999 33.947L19.5043 33.9477C19.6517 33.9695 19.819 33.9804 19.9878 33.9869C20.323 34 20.787 34 21.3641 34H34.6361C35.2132 34 35.6775 34 36.0127 33.9869C36.1815 33.9804 36.3488 33.9695 36.4962 33.9477L36.5006 33.947C36.5965 33.9329 36.884 33.8904 37.1342 33.7047C37.2445 33.623 37.4282 33.4758 37.5624 33.2343C37.6965 32.9928 37.7244 32.7591 37.7356 32.6223C37.7522 32.4187 37.7078 32.2515 37.6845 32.1733C37.6564 32.079 37.6205 31.9922 37.5884 31.9215C37.524 31.7797 37.4371 31.6202 37.3417 31.4547C37.1512 31.1243 36.8687 30.6703 36.5114 30.096L36.4996 30.0771C35.7323 28.8439 35.0002 26.9127 35.0002 24C35.0002 22.1435 34.2628 20.363 32.95 19.0503C31.6372 17.7375 29.8568 17 28.0002 17ZM24.4647 20.4645C25.4024 19.5268 26.6742 19 28.0002 19C29.3263 19 30.5981 19.5268 31.5358 20.4645C32.4735 21.4021 33.0002 22.6739 33.0002 24C33.0002 27.2677 33.8273 29.5681 34.8015 31.1337C35.0144 31.4758 35.192 31.7614 35.3372 31.9988C35.1306 32 34.8903 32 34.6114 32H21.3891C21.1102 32 20.8699 32 20.6633 31.9988C20.8085 31.7614 20.9861 31.4758 21.199 31.1337C22.1732 29.5681 23.0002 27.2677 23.0002 24C23.0002 22.6739 23.527 21.4021 24.4647 20.4645Z" fill="white"/>
<path d="M20.8178 19.1709C21.2988 18.8995 21.4687 18.2896 21.1973 17.8086C20.9259 17.3276 20.3159 17.1577 19.8349 17.4291C18.2535 18.3214 17.2762 20.0141 17.2942 21.8298C17.2996 22.382 17.7518 22.8253 18.304 22.8198C18.8563 22.8144 19.2996 22.3623 19.2941 21.81C19.2833 20.723 19.871 19.7051 20.8178 19.1709Z" fill="white"/>
<path d="M36.1616 17.4291C35.6806 17.1577 35.0706 17.3276 34.7992 17.8086C34.5278 18.2896 34.6978 18.8995 35.1788 19.1709C36.1255 19.7051 36.7132 20.723 36.7024 21.81C36.697 22.3623 37.1402 22.8144 37.6925 22.8198C38.2448 22.8253 38.6969 22.382 38.7023 21.8298C38.7203 20.0141 37.743 18.3214 36.1616 17.4291Z" fill="white"/>
<path d="M26.0162 36.2503C25.6021 35.8848 24.9702 35.9242 24.6047 36.3383C24.2392 36.7523 24.2786 37.3843 24.6927 37.7497C25.5735 38.5272 26.7329 39 28.0002 39C29.2676 39 30.427 38.5272 31.3078 37.7497C31.7219 37.3843 31.7613 36.7523 31.3958 36.3383C31.0303 35.9242 30.3984 35.8848 29.9843 36.2503C29.4549 36.7176 28.7618 37 28.0002 37C27.2387 37 26.5456 36.7176 26.0162 36.2503Z" fill="white"/>
</svg>
