<svg width="56" height="56" viewBox="0 0 56 56" fill="none" xmlns="http://www.w3.org/2000/svg">
<rect width="56" height="56" rx="16" fill="#76AAFF"/>
<g clip-path="url(#clip0_2520_27302)">
<path d="M40 36.0001V22.0001C40 21.2045 39.6839 20.4414 39.1213 19.8788C38.5587 19.3162 37.7956 19.0001 37 19.0001H36C35.9999 18.5358 35.8921 18.0779 35.6849 17.6624C35.4778 17.2469 35.1771 16.8851 34.8064 16.6056C34.4357 16.326 34.0052 16.1363 33.5488 16.0514C33.0923 15.9664 32.6224 15.9886 32.176 16.1161L29.176 16.9741C28.7394 17.099 28.3372 17.322 28 17.6261C27.6628 17.322 27.2606 17.099 26.824 16.9741L23.824 16.1161C23.3776 15.9886 22.9077 15.9664 22.4512 16.0514C21.9948 16.1363 21.5643 16.326 21.1936 16.6056C20.8229 16.8851 20.5222 17.2469 20.3151 17.6624C20.1079 18.0779 20.0001 18.5358 20 19.0001H19C18.2044 19.0001 17.4413 19.3162 16.8787 19.8788C16.3161 20.4414 16 21.2045 16 22.0001V36.0001H27V38.0001H23V40.0001H33V38.0001H29V36.0001H40ZM29 19.8581C29.0001 19.6409 29.0709 19.4297 29.2017 19.2563C29.3325 19.0829 29.5162 18.9568 29.725 18.8971L32.725 18.0401C32.8144 18.0142 32.9069 18.0008 33 18.0001C33.2652 18.0001 33.5196 18.1055 33.7071 18.293C33.8946 18.4805 34 18.7349 34 19.0001V25.2461L29 26.6741V19.8581ZM22 19.0001C22.0002 18.8454 22.0363 18.6929 22.1055 18.5545C22.1746 18.4162 22.2749 18.2957 22.3985 18.2027C22.5221 18.1096 22.6655 18.0465 22.8176 18.0183C22.9697 17.9901 23.1263 17.9976 23.275 18.0401L26.275 18.8971C26.4838 18.9568 26.6675 19.0829 26.7983 19.2563C26.9291 19.4297 26.9999 19.6409 27 19.8581V26.6741L22 25.2461V19.0001ZM18 22.0001C18 21.7349 18.1054 21.4805 18.2929 21.293C18.4804 21.1055 18.7348 21.0001 19 21.0001H20V26.7541L28 29.0401L36 26.7541V21.0001H37C37.2652 21.0001 37.5196 21.1055 37.7071 21.293C37.8946 21.4805 38 21.7349 38 22.0001V34.0001H18V22.0001Z" fill="white"/>
</g>
<defs>
<clipPath id="clip0_2520_27302">
<rect width="24" height="24" fill="white" transform="translate(16 16)"/>
</clipPath>
</defs>
</svg>
