<svg width="56" height="56" viewBox="0 0 56 56" fill="none" xmlns="http://www.w3.org/2000/svg">
<rect width="56" height="56" rx="16" fill="#76AAFF"/>
<path fill-rule="evenodd" clip-rule="evenodd" d="M25.5 18C22.7386 18 20.5 20.2386 20.5 23C20.5 25.7614 22.7386 28 25.5 28C28.2614 28 30.5 25.7614 30.5 23C30.5 20.2386 28.2614 18 25.5 18ZM22.5 23C22.5 21.3431 23.8431 20 25.5 20C27.1569 20 28.5 21.3431 28.5 23C28.5 24.6569 27.1569 26 25.5 26C23.8431 26 22.5 24.6569 22.5 23Z" fill="white"/>
<path d="M31.8752 18.3638C31.3633 18.1566 30.7803 18.4036 30.5731 18.9155C30.3658 19.4275 30.6129 20.0105 31.1248 20.2177C32.2261 20.6635 33 21.7426 33 23C33 24.2574 32.2261 25.3365 31.1248 25.7823C30.6129 25.9895 30.3658 26.5725 30.5731 27.0845C30.7803 27.5964 31.3633 27.8434 31.8752 27.6362C33.7058 26.8952 35 25.0999 35 23C35 20.9001 33.7058 19.1048 31.8752 18.3638Z" fill="white"/>
<path d="M29 31C29 30.4477 28.5523 30 28 30H23.9645C23.0627 30 22.3353 30 21.7433 30.0404C21.1346 30.0819 20.5963 30.1695 20.0866 30.3806C18.8614 30.8881 17.8881 31.8614 17.3806 33.0866C17.1695 33.5963 17.0819 34.1346 17.0404 34.7433C17 35.3353 17 36.0627 17 36.9645V37C17 37.5523 17.4477 38 18 38C18.5523 38 19 37.5523 19 37C19 36.0544 19.0005 35.3953 19.0357 34.8794C19.0703 34.3725 19.135 34.0773 19.2284 33.8519C19.5328 33.1169 20.1169 32.5328 20.852 32.2284C21.0773 32.135 21.3725 32.0703 21.8794 32.0357C22.3953 32.0005 23.0544 32 24 32H28C28.5523 32 29 31.5523 29 31Z" fill="white"/>
<path d="M38.7071 33.2929L35.7071 30.2929C35.3166 29.9024 34.6834 29.9024 34.2929 30.2929C33.9024 30.6834 33.9024 31.3166 34.2929 31.7071L35.5858 33H32C31.4477 33 31 33.4477 31 34C31 34.5523 31.4477 35 32 35H35.5858L34.2929 36.2929C33.9024 36.6834 33.9024 37.3166 34.2929 37.7071C34.6834 38.0976 35.3166 38.0976 35.7071 37.7071L38.7071 34.7071C39.0976 34.3166 39.0976 33.6834 38.7071 33.2929Z" fill="white"/>
</svg>
