<svg width="56" height="56" viewBox="0 0 56 56" fill="none" xmlns="http://www.w3.org/2000/svg">
<rect width="56" height="56" rx="16" fill="#76AAFF"/>
<g clip-path="url(#clip0_2520_27297)">
<path d="M33 26.039C29.141 26.039 26 29.179 26 33.039C26 36.877 29.141 40 33 40C36.859 40 40 36.86 40 33C40 29.162 36.859 26.039 33 26.039ZM33 38C30.243 38 28 35.774 28 33.039C28 30.282 30.243 28.039 33 28.039C35.757 28.039 38 30.265 38 33C38 35.757 35.757 38 33 38ZM34.707 33.293C35.098 33.684 35.098 34.316 34.707 34.707C34.512 34.902 34.256 35 34 35C33.744 35 33.488 34.902 33.293 34.707L32.293 33.707C32.105 33.519 32 33.265 32 33V31C32 30.448 32.447 30 33 30C33.553 30 34 30.448 34 31V32.586L34.707 33.293ZM40 23V25C40 25.552 39.553 26 39 26C38.447 26 38 25.552 38 25V23C38 21.346 36.654 20 35 20H21C19.346 20 18 21.346 18 23V24H27C27.552 24 28 24.448 28 25C28 25.552 27.552 26 27 26H18V35C18 36.654 19.346 38 21 38H25C25.552 38 26 38.448 26 39C26 39.552 25.552 40 25 40H21C18.243 40 16 37.757 16 35V23C16 20.243 18.243 18 21 18H22V17C22 16.448 22.448 16 23 16C23.552 16 24 16.448 24 17V18H32V17C32 16.448 32.447 16 33 16C33.553 16 34 16.448 34 17V18H35C37.757 18 40 20.243 40 23Z" fill="white"/>
</g>
<defs>
<clipPath id="clip0_2520_27297">
<rect width="24" height="24" fill="white" transform="translate(16 16)"/>
</clipPath>
</defs>
</svg>
