<svg width="20" height="20" viewBox="0 0 20 20" fill="none" xmlns="http://www.w3.org/2000/svg">
<path d="M9.17409 1.28586C9.56043 0.684369 10.4396 0.68437 10.8259 1.28586L13.2025 4.9859C13.3354 5.19286 13.5412 5.34237 13.7791 5.40484L18.0324 6.52169C18.7239 6.70325 18.9955 7.53937 18.5429 8.09267L15.7583 11.4963C15.6026 11.6867 15.524 11.9286 15.5381 12.1741L15.7902 16.5644C15.8312 17.2781 15.12 17.7949 14.4539 17.5353L10.3564 15.9388C10.1272 15.8496 9.87282 15.8496 9.64363 15.9388L5.54613 17.5353C4.88003 17.7949 4.16879 17.2781 4.20978 16.5644L4.46194 12.1741C4.47605 11.9286 4.39744 11.6867 4.2417 11.4963L1.45714 8.09267C1.00447 7.53937 1.27615 6.70325 1.96758 6.52169L6.22093 5.40484C6.45883 5.34237 6.66461 5.19286 6.79754 4.9859L9.17409 1.28586Z" fill="#FF941F"/>
</svg>
