<svg width="23" height="24" viewBox="0 0 23 24" fill="none" xmlns="http://www.w3.org/2000/svg">
<path d="M1.25802 0.378766C0.953847 0.746304 0.803781 1.21301 0.838159 1.68455V22.316C0.809106 22.79 0.966089 23.257 1.27711 23.6218L1.3439 23.6871L13.1478 12.1402V11.8697L1.32482 0.313477L1.25802 0.378766Z" fill="white"/>
<path d="M17.0602 15.9923L13.1478 12.1402V11.8697L17.0602 8.0083L17.1461 8.05494L21.8314 10.6572C23.1673 11.394 23.1673 12.6065 21.8314 13.3527L17.1652 15.9456L17.0602 15.9923Z" fill="white"/>
<path opacity="0.6" d="M17.1747 15.9453L13.1478 12L1.258 23.6215C1.5303 23.8555 1.87767 23.9891 2.24008 23.9993C2.60249 24.0096 2.95717 23.8957 3.24281 23.6775L17.1842 15.936" fill="white"/>
<path opacity="0.6" d="M17.1747 8.06396L3.2333 0.322503C2.94765 0.104263 2.59297 -0.00958562 2.23056 0.000632561C1.86816 0.0108507 1.52079 0.144493 1.24848 0.378465L13.1478 12L17.1747 8.06396Z" fill="white"/>
</svg>
