<svg width="24" height="24" viewBox="0 0 24 24" fill="none" xmlns="http://www.w3.org/2000/svg">
<circle cx="12" cy="12" r="12" fill="#DFDFDF"/>
<path d="M10.7109 13.5078C10.7109 12.7786 10.7995 12.1979 10.9766 11.7656C11.1536 11.3333 11.4766 10.9089 11.9453 10.4922C12.4193 10.0703 12.7344 9.72917 12.8906 9.46875C13.0469 9.20312 13.125 8.92448 13.125 8.63281C13.125 7.7526 12.7188 7.3125 11.9062 7.3125C11.5208 7.3125 11.2109 7.43229 10.9766 7.67188C10.7474 7.90625 10.6276 8.23177 10.6172 8.64844H8.35156C8.36198 7.65365 8.68229 6.875 9.3125 6.3125C9.94792 5.75 10.8125 5.46875 11.9062 5.46875C13.0104 5.46875 13.8672 5.73698 14.4766 6.27344C15.0859 6.80469 15.3906 7.55729 15.3906 8.53125C15.3906 8.97396 15.2917 9.39323 15.0938 9.78906C14.8958 10.1797 14.5495 10.6146 14.0547 11.0938L13.4219 11.6953C13.026 12.0755 12.7995 12.5208 12.7422 13.0312L12.7109 13.5078H10.7109ZM10.4844 15.9062C10.4844 15.5573 10.6016 15.2708 10.8359 15.0469C11.0755 14.8177 11.3802 14.7031 11.75 14.7031C12.1198 14.7031 12.4219 14.8177 12.6562 15.0469C12.8958 15.2708 13.0156 15.5573 13.0156 15.9062C13.0156 16.25 12.8984 16.5339 12.6641 16.7578C12.4349 16.9818 12.1302 17.0938 11.75 17.0938C11.3698 17.0938 11.0625 16.9818 10.8281 16.7578C10.599 16.5339 10.4844 16.25 10.4844 15.9062Z" fill="white"/>
</svg>
