<svg width="24" height="24" viewBox="0 0 24 24" fill="none" xmlns="http://www.w3.org/2000/svg">
<circle cx="12" cy="12" r="12" fill="#FF941F"/>
<path d="M12.7109 13.5234H10.7188C10.724 13.0547 10.7604 12.651 10.8281 12.3125C10.901 11.9688 11.0234 11.6589 11.1953 11.3828C11.3724 11.1068 11.6068 10.8333 11.8984 10.5625C12.1432 10.3438 12.3568 10.1354 12.5391 9.9375C12.7214 9.73958 12.8646 9.53646 12.9688 9.32812C13.0729 9.11458 13.125 8.8776 13.125 8.61719C13.125 8.3151 13.0781 8.0651 12.9844 7.86719C12.8958 7.66406 12.7604 7.51042 12.5781 7.40625C12.401 7.30208 12.1771 7.25 11.9062 7.25C11.6823 7.25 11.474 7.29948 11.2812 7.39844C11.0885 7.49219 10.9297 7.63802 10.8047 7.83594C10.6849 8.03385 10.6224 8.29427 10.6172 8.61719H8.35156C8.36719 7.90365 8.53125 7.3151 8.84375 6.85156C9.16146 6.38281 9.58594 6.03646 10.1172 5.8125C10.6484 5.58333 11.2448 5.46875 11.9062 5.46875C12.6354 5.46875 13.2604 5.58854 13.7812 5.82812C14.3021 6.0625 14.7005 6.40885 14.9766 6.86719C15.2526 7.32031 15.3906 7.8724 15.3906 8.52344C15.3906 8.97656 15.3021 9.38021 15.125 9.73438C14.9479 10.0833 14.7161 10.4089 14.4297 10.7109C14.1432 11.013 13.8281 11.3255 13.4844 11.6484C13.1875 11.9141 12.9844 12.1927 12.875 12.4844C12.7708 12.776 12.7161 13.1224 12.7109 13.5234ZM10.4844 15.9375C10.4844 15.6042 10.599 15.3281 10.8281 15.1094C11.0573 14.8854 11.3646 14.7734 11.75 14.7734C12.1302 14.7734 12.4349 14.8854 12.6641 15.1094C12.8984 15.3281 13.0156 15.6042 13.0156 15.9375C13.0156 16.2604 12.8984 16.5339 12.6641 16.7578C12.4349 16.9818 12.1302 17.0938 11.75 17.0938C11.3646 17.0938 11.0573 16.9818 10.8281 16.7578C10.599 16.5339 10.4844 16.2604 10.4844 15.9375Z" fill="white"/>
</svg>
