<svg width="80" height="18" viewBox="0 0 80 18" fill="none" xmlns="http://www.w3.org/2000/svg">
<g clip-path="url(#clip0_2545_3297)">
<path fill-rule="evenodd" clip-rule="evenodd" d="M65.1348 5.39773C65.4406 5.92598 65.5407 6.52699 65.5737 7.20265L65.6171 8.10322V14.4006L65.6615 15.3021C65.7502 16.7744 66.8347 17.863 68.3165 17.9556L69.2122 18V8.10322L69.2565 7.20265C69.2933 6.53455 69.3924 5.9222 69.7029 5.39017C70.0193 4.84448 70.4736 4.39173 71.02 4.07739C71.5665 3.76305 72.1859 3.59818 72.8161 3.59933C73.4463 3.60047 74.0651 3.76761 74.6104 4.08394C75.1557 4.40027 75.6083 4.85467 75.9227 5.40151C76.2285 5.92976 76.3238 6.54211 76.3606 7.20265L76.405 8.10038V14.4006L76.4493 15.3021C76.5418 16.7819 77.6178 17.8705 79.1043 17.9556L80 18V7.20265C80 5.29338 79.2427 3.46227 77.8945 2.11195C76.5464 0.761625 74.7178 0.00264421 72.8109 0.00189249C71.7903 0.000814807 70.7812 0.217825 69.851 0.638426C68.9208 1.05903 68.091 1.67353 67.417 2.44089C66.7427 1.67383 65.9128 1.05948 64.9827 0.638752C64.0526 0.218027 63.0437 0.000595802 62.0231 0.000947331C60.53 0.000947331 59.1444 0.454539 57.9967 1.23793C57.2964 0.455483 55.7297 0.000947331 54.8302 0.000947331V18L55.7297 17.9556C57.2341 17.8564 58.3214 16.797 58.3799 15.3021L58.4281 14.4006V8.10322L58.4724 7.20265C58.5102 6.52321 58.6046 5.92598 58.9113 5.39395C59.228 4.8486 59.682 4.39596 60.228 4.08123C60.7741 3.76651 61.393 3.6007 62.0231 3.60038C62.6536 3.60052 63.273 3.76665 63.8192 4.08211C64.3654 4.39758 64.8191 4.85129 65.1348 5.39773ZM3.59501 17.9565L4.49447 18H17.9769L17.9326 17.1023C17.8108 15.6224 16.7641 14.5414 15.2814 14.445L14.3819 14.4006H6.29339L17.0775 3.59943L17.0331 2.70265C16.9633 1.20769 15.8722 0.127575 14.3819 0.0453611L13.4825 0.00472718L0 0.000947331L0.0443595 0.901515C0.162337 2.36718 1.22413 3.47092 2.6946 3.55597L3.59501 3.60038H11.6835L0.89946 14.4015L0.943819 15.3021C1.03254 16.7857 2.10189 17.8601 3.59501 17.9556V17.9565ZM51.3013 2.63555C52.1361 3.47122 52.7983 4.46335 53.2501 5.55529C53.7019 6.64724 53.9345 7.81759 53.9345 8.99953C53.9345 10.1815 53.7019 11.3518 53.2501 12.4438C52.7983 13.5357 52.1361 14.5278 51.3013 15.3635C49.6147 17.0508 47.328 17.9986 44.9437 17.9986C42.5595 17.9986 40.2728 17.0508 38.5862 15.3635C35.0761 11.8491 35.0761 6.14994 38.5862 2.63555C39.4202 1.80017 40.4104 1.13745 41.5003 0.685241C42.5902 0.233031 43.7583 0.000186549 44.9381 2.16949e-06C46.1197 -0.000819235 47.29 0.231615 48.3818 0.684011C49.4737 1.13641 50.4658 1.79989 51.3013 2.6365V2.63555ZM48.7577 5.18417C49.7687 6.19721 50.3367 7.57072 50.3367 9.00284C50.3367 10.4349 49.7687 11.8085 48.7577 12.8215C47.7459 13.8338 46.3741 14.4024 44.9437 14.4024C43.5134 14.4024 42.1415 13.8338 41.1297 12.8215C40.1187 11.8085 39.5508 10.4349 39.5508 9.00284C39.5508 7.57072 40.1187 6.19721 41.1297 5.18417C42.1415 4.17189 43.5134 3.60327 44.9437 3.60327C46.3741 3.60327 47.7459 4.17189 48.7577 5.18417ZM26.073 2.16949e-06C27.2528 0.000310653 28.421 0.233304 29.5109 0.685678C30.6007 1.13805 31.5909 1.80094 32.4249 2.6365C35.9359 6.14994 35.9359 11.8501 32.4249 15.3635C30.7383 17.0508 28.4516 17.9986 26.0673 17.9986C23.6831 17.9986 21.3964 17.0508 19.7098 15.3635C16.1997 11.8491 16.1997 6.14994 19.7098 2.63555C20.5438 1.80017 21.5341 1.13745 22.6239 0.685241C23.7138 0.233031 24.8819 0.000186549 26.0617 2.16949e-06H26.073ZM29.8813 5.18228C30.8926 6.19536 31.4607 7.56908 31.4607 9.00142C31.4607 10.4338 30.8926 11.8075 29.8813 12.8206C28.8695 13.8328 27.4977 14.4015 26.0673 14.4015C24.637 14.4015 23.2652 13.8328 22.2534 12.8206C21.2423 11.8075 20.6744 10.434 20.6744 9.00189C20.6744 7.56978 21.2423 6.19626 22.2534 5.18322C23.2652 4.17095 24.637 3.60232 26.0673 3.60232C27.4977 3.60232 28.8695 4.17095 29.8813 5.18322V5.18228Z" fill="#2D8CFF"/>
</g>
<defs>
<clipPath id="clip0_2545_3297">
<rect width="80" height="18" fill="white"/>
</clipPath>
</defs>
</svg>
